<?xml version="1.0" encoding="UTF-8" standalone="no"?>
<svg
   width="128"
   height="128"
   viewBox="0 0 33.866666 33.866668"
   version="1.1"
   id="svg8"
   inkscape:version="1.1 (c4e8f9e, 2021-05-24)"
   sodipodi:docname="backspace.svg"
   xmlns:inkscape="http://www.inkscape.org/namespaces/inkscape"
   xmlns:sodipodi="http://sodipodi.sourceforge.net/DTD/sodipodi-0.dtd"
   xmlns="http://www.w3.org/2000/svg"
   xmlns:svg="http://www.w3.org/2000/svg"
   xmlns:rdf="http://www.w3.org/1999/02/22-rdf-syntax-ns#"
   xmlns:cc="http://creativecommons.org/ns#"
   xmlns:dc="http://purl.org/dc/elements/1.1/">
  <defs
     id="defs2" />
  <sodipodi:namedview
     id="base"
     pagecolor="#ffffff"
     bordercolor="#666666"
     borderopacity="1.0"
     inkscape:pageopacity="0.0"
     inkscape:pageshadow="2"
     inkscape:zoom="5.6"
     inkscape:cx="59.375"
     inkscape:cy="66.428571"
     inkscape:document-units="mm"
     inkscape:current-layer="g158"
     inkscape:document-rotation="0"
     showgrid="true"
     units="px"
     inkscape:window-width="1884"
     inkscape:window-height="2102"
     inkscape:window-x="0"
     inkscape:window-y="0"
     inkscape:window-maximized="1"
     inkscape:pagecheckerboard="0">
    <inkscape:grid
       type="xygrid"
       id="grid10"
       spacingx="1.0583333"
       spacingy="1.0583333"
       empspacing="4" />
  </sodipodi:namedview>
  <metadata
     id="metadata5">
    <rdf:RDF>
      <cc:Work
         rdf:about="">
        <dc:format>image/svg+xml</dc:format>
        <dc:type
           rdf:resource="http://purl.org/dc/dcmitype/StillImage" />
      </cc:Work>
    </rdf:RDF>
  </metadata>
  <g
     inkscape:label="Layer 1"
     inkscape:groupmode="layer"
     id="layer1">
    <g
       id="g158"
       transform="translate(0.1899611,-0.04710791)">
      <path
         style="fill:#000000;stroke-width:0.264583"
         id="path261"
         d="m 0.55011049,12.935872 c -0.005723,0.495263 -0.0152281,0.990484 -0.0248335,1.485688 -0.010877,0.581561 -6.9056e-4,1.163349 -0.0178133,1.74477 -0.0196255,0.512777 -0.0705784,1.023528 -0.10063511,1.535789 -0.025119,0.617029 -0.1096218,1.228113 -0.20109355,1.838032 -0.0764615,0.435646 -0.11630871,0.861438 -0.114862,1.302965 0.01109266,0.23667 0.0222049,0.498983 0.17582796,0.691944 0.13948552,0.111254 0.33675544,0.08563 0.50397081,0.08555 0.0928164,-4.3e-5 0.18562611,-0.0016 0.2784392,-0.0024 0.1201411,4.23e-4 0.2402821,8.73e-4 0.3604232,0.0013 0.1499772,0.0033 0.3000097,0.0047 0.4499315,0.01 0.2070341,0.0073 0.4139142,0.01839 0.6208712,0.02759 0.281935,0.01087 0.5638332,0.02274 0.8458044,0.03263 0.9842648,0.0345 1.9685904,0.06513 2.9527634,0.102461 1.8836809,0.08224 3.7703303,0.05262 5.6551813,0.03945 1.79464,-0.0072 3.58778,-0.08656 5.382145,-0.107099 1.677973,0.02356 3.355913,0.04313 5.033993,0.05871 1.206095,0.02092 2.412345,0.0334 3.618345,0.05914 0.796844,0.01647 1.593586,0.03767 2.390287,0.06001 0.383238,0.0066 0.766553,5.82e-4 1.149826,2.44e-4 0,0 0.761071,-0.552821 0.761071,-0.552821 v 0 c -0.378748,-0.0012 -0.757425,-0.0068 -1.136163,-0.0088 -0.810205,0.0011 -1.620417,-0.0086 -2.430349,-0.02989 -0.179528,-0.0044 -0.856389,-0.02167 -1.039797,-0.02343 -0.87916,-0.0084 -1.758517,0.02112 -2.637701,0.0057 -1.672533,-0.0166 -3.344582,-0.06317 -5.017181,-0.07303 -0.269969,0.0026 -0.539973,0.0028 -0.809907,0.0079 -1.542411,0.02895 -3.082754,0.12754 -4.625607,0.138627 -0.393365,0.0012 -0.786729,0.0049 -1.180093,0.0036 -1.4784232,-0.0047 -2.9563936,-0.04741 -4.4345916,-0.06875 -0.9806291,-0.02412 -1.9603574,-0.05253 -2.9397589,-0.109593 -1.9823416,-0.115503 0.1704864,0.0012 -1.4119907,-0.101587 -0.1458635,-0.0095 -0.2920212,-0.01367 -0.4380318,-0.02051 -0.6575197,-0.02065 -0.065423,-0.0041 -0.6170306,-0.01466 -0.1172541,-0.0022 -0.2772628,0.0059 -0.3957822,-0.01648 -0.014903,-0.0028 -0.028524,-0.01032 -0.042786,-0.01548 -0.15430905,-0.148637 -0.14298012,-0.424808 -0.15832712,-0.62085 -0.001643,-0.42884 0.031114,-0.854968 0.0984329,-1.278934 0.086145,-0.614112 0.1775958,-1.227959 0.2040968,-1.848434 0.031501,-0.513404 0.092228,-1.024918 0.1000989,-1.539526 0.00888,-0.580929 0.0011,-1.162048 0.01313,-1.742977 0.00723,-0.502514 0.01665,-1.005554 0.061904,-1.506375 0,0 -0.88220797,0.449508 -0.88220797,0.449508 z" />
      <path
         style="fill:#000000;stroke-width:0.264583"
         id="path267"
         d="m 0.76556472,12.880673 c 2.91438798,0.0099 5.82891438,-0.01183 8.74331138,-0.02312 3.1574809,0.0097 6.3142109,0.07976 9.4705049,0.161011 1.884722,0.0377 3.767659,0.1286 5.64917,0.241934 0.791249,0.07309 1.583902,0.108354 2.378162,0.0916 0.383254,-0.01035 0.76653,-0.02033 1.149837,-0.02848 0.271682,-8.99e-4 0.542975,0.01236 0.809373,0.06706 0.09171,0.02905 0.374735,0.07898 0.418494,0.175848 0.01072,0.02372 0.01122,0.05084 0.01685,0.07626 0.03083,0.392233 -0.03849,0.783936 -0.09922,1.1701 -0.09296,0.585684 -0.117139,1.178583 -0.124822,1.770568 -0.0021,0.455016 0.01585,0.909533 0.01968,1.364531 0.0024,0.460715 -0.05211,0.919151 -0.06471,1.379533 0.0079,0.369291 0.06593,0.73428 0.106865,1.100589 0.02561,0.343263 0.07848,0.683556 0.12383,1.02454 0.0386,0.271562 0.05723,0.546191 0.09794,0.817352 0.01717,0.09353 0.03242,0.193499 0.08412,0.275232 0,0 0.855572,-0.510845 0.855572,-0.510845 v 0 c -0.04375,-0.02212 -0.05629,-0.182667 -0.07074,-0.224797 -0.04643,-0.267765 -0.07146,-0.53934 -0.109181,-0.808403 -0.04561,-0.340467 -0.09579,-0.680558 -0.122139,-1.023257 -0.04148,-0.360726 -0.102643,-0.720006 -0.109636,-1.083877 0.01318,-0.461438 0.06812,-0.920843 0.06371,-1.382704 -0.0019,-0.453237 -0.02363,-0.905627 -0.02804,-1.358807 0.0011,-0.589176 0.03384,-1.178024 0.134824,-1.759487 0.06513,-0.401625 0.142973,-0.811018 0.105518,-1.219117 -0.02551,-0.0852 -0.02508,-0.132023 -0.09412,-0.192255 -0.08075,-0.07044 -0.299482,-0.112463 -0.400162,-0.149071 -0.273396,-0.06554 -0.550624,-0.07888 -0.831434,-0.07927 -0.38861,0.0028 -0.776428,0.02318 -1.164741,0.03773 -0.315563,0.01093 -0.631357,0.02388 -0.947198,0.02028 -0.365273,-0.0042 -0.539937,-0.01791 -0.914755,-0.03435 -0.192848,-0.0085 -0.38574,-0.01589 -0.57861,-0.02383 -0.658485,-0.02295 -0.989319,-0.03336 -1.670245,-0.06231 -1.337405,-0.05687 -2.673931,-0.142388 -4.012779,-0.158594 -1.228563,-0.0051 -2.456976,0.0055 -3.685554,0.0024 -2.141027,-0.0053 -1.632678,-0.0098 -3.871189,-0.03273 -0.690193,-0.0071 -1.380403,-0.01227 -2.070605,-0.01841 -1.1480831,-6.62e-4 -2.8412262,0.0011 -3.9977675,-0.01031 -1.3549794,-0.01341 -2.7111045,-0.03681 -4.0634856,-0.12848 -0.1303567,-0.0088 -0.2601873,-0.02421 -0.390281,-0.03632 0,0 -0.80634102,0.572215 -0.80634102,0.572215 z" />
      <path
         style="fill:#000000;stroke-width:0.264583"
         id="path269"
         d="m 29.742909,13.631516 c 0.528601,0.512541 1.050624,1.031973 1.583246,1.540344 0.241795,0.227568 0.49471,0.442958 0.744402,0.661722 0,0 0.792004,-0.491535 0.792004,-0.491535 v 0 c -0.244105,-0.222029 -0.484476,-0.447853 -0.728475,-0.669971 -0.546235,-0.483674 -1.088191,-0.979529 -1.554122,-1.542554 0,0 -0.837055,0.501994 -0.837055,0.501994 z" />
      <path
         style="fill:#000000;stroke-width:0.264583"
         id="path271"
         d="m 29.303219,22.074193 c 0.23358,0.435344 0.561616,0.812186 0.873139,1.192636 0.306646,0.363671 0.600321,0.738041 0.912172,1.097306 0.127614,0.153185 0.265321,0.296677 0.401878,0.441681 0,0 0.841211,-0.513108 0.841211,-0.513108 v 0 c -0.139041,-0.142301 -0.275743,-0.286006 -0.409035,-0.433739 -0.325491,-0.34798 -0.638141,-0.707743 -0.946756,-1.0707 -0.301681,-0.37551 -0.612645,-0.757242 -0.810099,-1.200537 0,0 -0.86251,0.486461 -0.86251,0.486461 z" />
      <path
         style="fill:#000000;stroke-width:0.264583"
         id="path273"
         d="m 0.25074543,21.796127 c 0.22222563,0.299863 0.46448464,0.58353 0.70686294,0.867076 0.31547533,0.352992 0.63216493,0.705071 0.95534473,1.051026 0.130336,0.137941 0.268107,0.268406 0.4144794,0.389108 0.1688879,0.146247 0.3326872,0.296806 0.5088854,0.43451 0.1432488,0.09 0.274841,0.235986 0.4480338,0.269916 0.1347925,0.02641 0.2632749,0.0084 0.39937,7.68e-4 1.1133351,-0.140979 2.2290299,-0.252992 3.3488428,-0.325968 0.8780569,-0.04948 1.7573932,-0.07739 2.6367415,-0.05884 0.097375,0.0062 0.1948907,0.01045 0.292124,0.01856 0.085557,0.0071 0.722822,0.07481 0.755811,0.07787 0.561053,0.05204 1.123552,0.08873 1.6856,0.1279 0.833305,0.06644 1.668887,0.08654 2.504472,0.09235 1.032441,-0.0045 2.064633,0.02029 3.09672,0.0436 0.74521,0.02354 1.490761,0.01922 2.236211,0.01997 0.959755,-0.01509 1.919306,-0.03708 2.879162,-0.04605 1.052451,-0.01543 2.104904,-0.0089 3.157364,-7.93e-4 0.791604,-0.01052 1.583174,0.0053 2.374775,8.46e-4 0.573535,-0.003 1.147043,0.0042 1.720543,0.0096 0.254699,-0.0053 0.506754,0.0044 0.756492,0.05545 0.04207,0.0097 0.08414,0.01942 0.126217,0.02912 0,0 0.803362,-0.556005 0.803362,-0.556005 v 0 c -0.04214,-0.0099 -0.08429,-0.01987 -0.126431,-0.02981 -0.06872,-0.01698 -0.172509,-0.04464 -0.243761,-0.05471 -0.176768,-0.02497 -0.356769,-0.0096 -0.534305,-0.0119 -0.582149,0.0052 -1.164309,0.01241 -1.746496,0.0093 -0.792384,-0.0048 -1.58474,0.01073 -2.377127,7.67e-4 -1.060339,0.0096 -2.120644,0.01891 -3.181042,0.01718 -0.95225,0.0067 -1.904497,0.0128 -2.856618,0.03077 -0.748378,-0.0017 -1.496725,-0.0098 -2.245104,-0.01191 -1.029585,-0.0092 -2.058786,-0.03409 -3.088198,-0.05059 -0.841555,-0.0085 -1.683253,-0.02177 -2.52357,-0.07207 -0.555862,-0.03502 -1.110545,-0.07249 -1.663896,-0.137568 -0.113974,-0.0134 -0.596782,-0.08212 -0.740365,-0.0954 -0.09997,-0.0093 -0.200453,-0.01185 -0.30068,-0.01778 -0.8942571,-0.008 -1.787882,0.02057 -2.680239,0.08149 -0.5258104,0.03469 -0.7110442,0.04434 -1.2387644,0.08959 -0.6855465,0.05878 -1.3686094,0.142994 -2.0546435,0.196287 -0.128224,0.0081 -0.334804,0.04218 -0.4635852,-0.006 C 3.8700934,24.187689 3.7690043,24.086956 3.6580328,24.020615 3.4836207,23.883374 3.3289273,23.727306 3.1653749,23.577866 3.0189084,23.460806 2.8720022,23.343867 2.7419998,23.208027 2.4072039,22.874722 2.0811904,22.532458 1.7758326,22.171782 1.5426242,21.886333 1.3010923,21.605586 1.1033345,21.29358 c 0,0 -0.85258907,0.502547 -0.85258907,0.502547 z" />
      <path
         style="fill:#000000;stroke-width:0.264583"
         id="path275"
         d="m 31.599377,15.658363 c 0.03778,0.356024 0.04051,0.714791 0.04426,1.072474 0.0021,0.248803 -5.3e-4,0.497605 -0.0013,0.746406 -0.0011,0.189274 -2.65e-4,0.378547 4.2e-5,0.567821 0.01005,0.244389 -0.0054,0.4876 -0.0209,0.731297 -0.01035,0.249191 -0.02995,0.497667 -0.04443,0.746615 -0.02482,0.269292 -0.05318,0.538318 -0.06661,0.808475 -0.0075,0.235998 -0.01,0.472036 -0.0085,0.70813 -0.0021,0.350091 0.03939,0.698335 0.08543,1.044774 0.05152,0.373255 0.07691,0.749414 0.126478,1.122868 0.03607,0.221302 0.05641,0.444118 0.06599,0.667971 0.01389,0.202701 -0.0109,0.40444 -0.02511,0.606359 -0.0195,0.149106 -0.04333,0.297265 -0.06832,0.445498 0,0 0.884018,-0.431906 0.884018,-0.431906 v 0 c 0.02558,-0.150421 0.04848,-0.301347 0.06277,-0.453321 0.0149,-0.20505 0.03427,-0.410091 0.01868,-0.615868 -0.0105,-0.225808 -0.03511,-0.450007 -0.0775,-0.672242 -0.05375,-0.371004 -0.08383,-0.744847 -0.136448,-1.116032 -0.03975,-0.345869 -0.07156,-0.693209 -0.06476,-1.041817 0.0024,-0.23489 0.0011,-0.469936 0.01225,-0.704625 0.01416,-0.268882 0.03612,-0.53712 0.06307,-0.805026 0.01863,-0.249282 0.03746,-0.498356 0.04695,-0.74821 0.01556,-0.246081 0.02532,-0.492146 0.02209,-0.738806 5.29e-4,-0.189419 0.0016,-0.378839 5.29e-4,-0.568259 -0.0016,-0.247062 -0.0065,-0.494068 -0.01265,-0.741056 -0.0092,-0.363301 -0.01947,-0.726575 -0.0283,-1.089886 0,0 -0.877567,0.458366 -0.877567,0.458366 z" />
      <path
         style="fill:#000000;stroke-width:0.264583"
         id="path299"
         d="m 7.4945429,15.463339 c -0.3140633,0.24124 -0.633462,0.476323 -0.9682758,0.688264 -0.1002249,0.06344 -0.408515,0.241223 -0.3048624,0.183549 0.1790028,-0.0996 0.3539926,-0.206245 0.5309888,-0.309367 -0.2827768,0.159633 -0.5776875,0.295942 -0.874256,0.427556 -0.104525,0.0499 -0.211531,0.09415 -0.3162279,0.143617 -0.1392238,0.06282 -0.2851306,0.108518 -0.4283057,0.161108 -0.1099724,0.04479 -0.2161897,0.09739 -0.3193182,0.156063 -0.2945728,0.170704 -0.5891458,0.341408 -0.8837186,0.512112 -0.010041,0.0062 -0.040325,0.0244 -0.030119,0.01851 0.2746886,-0.158601 0.5488482,-0.318116 0.823581,-0.476639 0.00833,-0.0048 -0.015595,0.01151 -0.024358,0.01548 -0.1005977,0.04558 0.04023,-0.02913 -0.054002,0.02239 -0.3577588,0.178339 0.2483098,-0.312526 -0.8689443,0.596127 -0.029353,0.02387 0.1532958,0.124031 0.164746,0.130357 0.1724871,0.08908 0.3518561,0.163744 0.5286824,0.243614 0.3438602,0.165347 0.6999965,0.30232 1.056731,0.436867 0.2607707,0.100169 0.5190144,0.206642 0.7782015,0.31077 0.2244532,0.09565 0.4544793,0.174668 0.6872642,0.24705 0.1860653,0.06579 0.375974,0.119636 0.562836,0.182904 0.088538,0.03148 0.1788109,0.05656 0.2721639,0.06767 0.012277,9.26e-4 0.024556,0.0019 0.036833,0.0028 0,0 0.8063024,-0.580628 0.8063024,-0.580628 v 0 c -0.011748,-7.7e-5 -0.023492,-1.54e-4 -0.035239,-2.32e-4 -0.089936,-0.0021 -0.17801,-0.01544 -0.2636832,-0.04425 C 8.1813605,18.539142 7.9887949,18.487609 7.8013331,18.419013 7.5693628,18.348854 7.3404154,18.273963 7.1166142,18.180177 6.8538472,18.074795 6.5931093,17.964957 6.324239,17.87543 5.9697822,17.748923 5.6214691,17.608274 5.2874414,17.434004 5.1139102,17.354555 4.9380612,17.279842 4.768526,17.192006 c -0.019132,-0.01007 -0.038267,-0.02015 -0.0574,-0.03022 -0.013986,-0.0068 -0.028171,-0.01326 -0.041962,-0.02047 -0.00541,-0.0028 -0.010348,-0.01277 -0.015571,-0.0096 -2.0467778,1.236068 -1.0614951,0.610125 -0.7849624,0.495533 0.017272,-0.0078 0.031026,-0.02217 0.048307,-0.02992 0.0099,-0.0044 0.022498,-8.2e-4 0.031952,-0.0061 0.2944387,-0.165547 0.5856909,-0.336699 0.8782143,-0.505607 0.0099,-0.0057 0.038931,-0.02393 0.02902,-0.01825 -0.2715326,0.155793 -0.5426056,0.312386 -0.8139086,0.468579 0.1057127,-0.05463 0.2043496,-0.122394 0.3163197,-0.165022 0.1363155,-0.06792 0.2862556,-0.101586 0.4269341,-0.159331 0.1095623,-0.04429 0.2160825,-0.09667 0.3223736,-0.148186 0.3093651,-0.135327 0.6146641,-0.280816 0.9106095,-0.443597 0.3590158,-0.207537 0.7194143,-0.4127 1.0770471,-0.622611 0.4586782,-0.26922 0.8868426,-0.58641 1.3148524,-0.900929 0,0 -0.9158092,0.367099 -0.9158092,0.367099 z" />
      <path
         style="fill:#000000;stroke-width:0.264583"
         id="path301"
         d="m 4.3102611,17.492714 c 0.3898453,0.05145 0.78365,0.05833 1.1761882,0.06899 0.3573455,0.0097 0.7147404,0.01694 1.0722224,0.0169 0.3544036,-0.0025 0.7088008,-0.0017 1.0632048,-4.76e-4 0.3391228,-4.1e-5 0.6778601,-0.02002 1.016707,-0.03202 0.3038274,-0.01586 0.6073555,-0.01252 0.910786,0.008 0.4461524,0.036 0.8896385,0.09704 1.3350625,0.140942 0.506856,0.06101 1.017026,0.0625 1.526622,0.06825 0.601213,0.01808 1.202123,-0.0019 1.803072,-0.0191 0.522871,-0.02118 1.045889,-0.01867 1.568822,-0.004 0.273645,0.01161 0.547452,0.01403 0.821286,0.01657 0.296319,-1.04e-4 0.592666,0.0032 0.888955,-0.0011 0.448552,-0.0065 0.89724,-0.0048 1.34574,0.0042 0.710979,0.0066 1.421457,0.0328 2.132118,0.05212 0.839647,0.01928 1.67834,0.06038 2.517966,0.08184 0.440435,0.0059 0.880744,0.03891 1.32121,0.02197 0.133867,-0.0023 0.265699,-0.01967 0.396474,-0.04678 0,0 0.781017,-0.59646 0.781017,-0.59646 v 0 c -0.127457,0.03602 -0.25769,0.06031 -0.390539,0.06487 -0.451133,0.03205 -0.903665,0.01398 -1.355558,0.01227 -0.83883,-0.01751 -1.677047,-0.05396 -2.515553,-0.08232 -0.702052,-0.02911 -1.404591,-0.03543 -2.106386,-0.07076 -0.447517,-0.02113 -0.89586,0.0042 -1.343729,-0.0097 -0.293786,-0.0044 -0.587626,-5.03e-4 -0.881439,-0.0036 -0.275937,-0.0011 -0.551824,-0.0062 -0.827732,-0.01015 -0.534431,-0.0079 -1.068389,-0.0051 -1.602372,0.02283 -0.595391,0.01436 -1.190373,0.01144 -1.785889,0.01094 -0.506788,-0.0055 -1.013852,-0.01754 -1.518847,-0.06375 -0.441781,-0.04272 -0.879663,-0.113736 -1.321702,-0.15301 -0.303775,-0.02561 -0.6084556,-0.03816 -0.9131458,-0.02025 -0.338727,0.01551 -0.6775336,0.03848 -1.0167183,0.03686 -0.3542387,0.0016 -0.7084748,0.0031 -1.0627154,3.71e-4 -0.3612316,-0.0011 -0.7224992,0.0018 -1.0836867,-0.0056 -0.3814027,-0.0098 -0.7649131,-0.01717 -1.1425769,-0.07613 0,0 -0.8088638,0.567266 -0.8088638,0.567266 z" />
    </g>
  </g>
</svg>
