<?xml version="1.0" encoding="UTF-8" standalone="no"?>
<svg
   xmlns:dc="http://purl.org/dc/elements/1.1/"
   xmlns:cc="http://creativecommons.org/ns#"
   xmlns:rdf="http://www.w3.org/1999/02/22-rdf-syntax-ns#"
   xmlns:svg="http://www.w3.org/2000/svg"
   xmlns="http://www.w3.org/2000/svg"
   xmlns:sodipodi="http://sodipodi.sourceforge.net/DTD/sodipodi-0.dtd"
   xmlns:inkscape="http://www.inkscape.org/namespaces/inkscape"
   width="128"
   height="128"
   viewBox="0 0 33.866666 33.866668"
   version="1.1"
   id="svg8"
   inkscape:version="1.0.2 (e86c870879, 2021-01-15)"
   sodipodi:docname="esc.svg">
  <defs
     id="defs2" />
  <sodipodi:namedview
     id="base"
     pagecolor="#ffffff"
     bordercolor="#666666"
     borderopacity="1.0"
     inkscape:pageopacity="0.0"
     inkscape:pageshadow="2"
     inkscape:zoom="2.8"
     inkscape:cx="61.506696"
     inkscape:cy="65.360433"
     inkscape:document-units="mm"
     inkscape:current-layer="layer1"
     inkscape:document-rotation="0"
     showgrid="true"
     units="px"
     inkscape:window-width="1280"
     inkscape:window-height="750"
     inkscape:window-x="0"
     inkscape:window-y="0"
     inkscape:window-maximized="1">
    <inkscape:grid
       type="xygrid"
       id="grid10"
       spacingx="1.0583333"
       spacingy="1.0583333"
       empspacing="4" />
  </sodipodi:namedview>
  <metadata
     id="metadata5">
    <rdf:RDF>
      <cc:Work
         rdf:about="">
        <dc:format>image/svg+xml</dc:format>
        <dc:type
           rdf:resource="http://purl.org/dc/dcmitype/StillImage" />
        <dc:title></dc:title>
      </cc:Work>
    </rdf:RDF>
  </metadata>
  <g
     inkscape:label="Layer 1"
     inkscape:groupmode="layer"
     id="layer1">
    <g
       id="g158"
       transform="translate(0.1899611,-0.04710791)">
      <path
         style="fill:#000000;stroke-width:0.335493"
         id="path78"
         d="M 2.9301172,1.6248894 C 2.6111101,2.5492215 2.3218432,3.4830194 2.0489237,4.4218742 1.4854036,6.351888 1.2441207,8.3490046 1.038122,10.342366 c -0.23212537,2.407043 -0.36495577,4.822343 -0.37922157,7.240337 -0.00339,1.503077 0.1134839,3.001334 0.3233035,4.488666 0.092872,0.658626 0.22693387,1.310941 0.47724297,1.928521 0.1159464,0.253628 0.2471779,0.499822 0.3759091,0.747085 0.038949,0.06802 0.073479,0.138195 0.1055193,0.209662 0,0 1.0865471,-0.61711 1.0865471,-0.61711 v 0 C 2.9903604,24.26867 2.9512653,24.199032 2.9095073,24.130794 2.774936,23.891033 2.6337041,23.654897 2.5089869,23.409723 2.2348568,22.821273 2.0703042,22.194311 1.9534312,21.556637 1.6854185,20.103262 1.5292262,18.633832 1.4963196,17.155275 1.4893782,16.810827 1.4769449,16.466445 1.4754921,16.121932 1.4667895,14.059491 1.6117134,11.997613 1.8337448,9.9482495 2.0825769,7.9379615 2.3709157,5.9237451 2.9755132,3.9839237 3.2899366,3.0057855 3.6150428,2.0272305 4.0601193,1.0990655 c 0,0 -1.1300003,0.5258239 -1.1300003,0.5258239 z" />
      <path
         style="fill:#000000;stroke-width:0.335493"
         id="path80"
         d="M 3.4720408,1.8679911 C 4.7164739,1.5423112 5.9794411,1.2947003 7.2432619,1.0582458 8.8279134,0.77578566 10.433083,0.62556673 12.04254,0.60817033 c 1.131053,-0.0122235 1.55411,0.0225452 2.688,0.0731284 1.660604,0.10251318 3.317984,0.27072977 4.958368,0.55183307 0.848029,0.1453222 1.149059,0.2175434 1.972472,0.3928113 1.136222,0.2563057 2.26994,0.5485882 3.336337,1.0235807 0.185368,0.083717 0.359333,0.1876234 0.529273,0.2984218 0,0 1.025636,-0.6637941 1.025636,-0.6637941 v 0 C 26.361661,2.178932 26.166802,2.0817273 25.962371,2.0045931 24.827862,1.5741471 23.639583,1.3146782 22.452396,1.0748764 21.637914,0.92047419 21.262353,0.84290511 20.428786,0.71231819 18.766932,0.45197148 17.091197,0.29708641 15.412979,0.19039937 14.287297,0.13388019 13.859988,0.09725906 12.737126,0.10061293 11.154884,0.10534006 9.5747003,0.22871861 8.0121553,0.47870801 6.8244582,0.67772815 5.6399685,0.8934975 4.4571156,1.1194302 c 0,0 -0.9850748,0.7485609 -0.9850748,0.7485609 z" />
      <path
         style="fill:#000000;stroke-width:0.335493"
         id="path82"
         d="m 24.614359,3.2351534 c 0.480865,0.6408545 0.690004,1.4343965 0.900999,2.1930994 0.494187,2.164125 0.484534,4.3970953 0.499419,6.6043552 -0.01475,2.084513 0.0066,4.172655 -0.139647,6.253559 -0.02507,0.356632 -0.06109,0.71241 -0.09162,1.068615 -0.134967,1.339353 -0.36112,2.669511 -0.735651,3.963038 -0.106408,0.294477 -0.186273,0.626487 -0.397376,0.869018 -0.391218,0.18979 -0.683471,0.383683 0.962928,-0.568747 0.0112,-0.0065 -0.02104,0.01527 -0.03275,0.02076 -0.01661,0.0078 -0.06435,0.02032 -0.08205,0.02527 0,0 -0.985329,0.781986 -0.985329,0.781986 v 0 c 0.04634,-0.03087 0.08695,-0.02297 0.118051,-0.04034 0.481313,-0.268829 0.9153,-0.320497 1.165334,-0.718082 0.145651,-0.270246 0.221708,-0.568735 0.289068,-0.866671 0.275445,-1.278804 0.429825,-2.579655 0.531455,-3.883154 0.06151,-0.955708 0.08721,-1.226448 0.115022,-2.200848 0.04849,-1.697492 0.02008,-3.396475 0.04748,-5.094264 0.0091,-2.2380762 0.04581,-4.4953009 -0.353519,-6.7067633 -0.173849,-0.7969051 -0.347284,-1.6063716 -0.728606,-2.3353192 0,0 -1.083208,0.6344989 -1.083208,0.6344989 z" />
      <path
         style="fill:#000000;stroke-width:0.335493"
         id="path90"
         d="m 0.85377823,23.532978 c 0.16177537,0.301448 0.40629327,0.53404 0.66319767,0.753787 0.8065049,0.595638 1.7896116,0.87996 2.7373161,1.16486 1.3196814,0.36937 2.6615478,0.672659 4.0236264,0.835053 0.2906262,0.03466 0.5825674,0.0572 0.8738511,0.08581 1.7889835,0.127722 3.5841965,0.05786 5.3727445,-0.03809 1.192307,-0.07943 2.381081,-0.220006 3.554821,-0.446023 0.705169,-0.135788 0.871539,-0.186321 1.557702,-0.356357 1.033232,-0.274447 2.044726,-0.621927 3.0617,-0.949767 0.323957,-0.110009 0.65158,-0.207751 0.988378,-0.268772 0.516597,-0.0906 0.635697,-0.287442 1.290119,-0.676778 0.349356,-0.207843 -0.704136,0.406428 -1.056204,0.609642 0.0072,-0.0051 0.01438,-0.01029 0.02157,-0.01545 0,0 0.992522,-0.77959 0.992522,-0.77959 v 0 c -0.01006,0.0016 -0.01996,0.0032 -0.02994,0.0048 -0.368308,0.211716 -0.730465,0.43451 -1.104924,0.635148 -0.357614,0.191613 0.701244,-0.40829 1.054367,-0.608058 0.0097,-0.0056 -0.01372,0.01834 -0.02304,0.02462 -0.04424,0.02984 -0.104946,0.04153 -0.154985,0.05409 -0.358522,0.08909 -0.719934,0.167109 -1.063243,0.30955 -1.048627,0.364033 -2.094359,0.739916 -3.163982,1.038905 -0.686286,0.178688 -0.870647,0.236488 -1.575848,0.379181 -1.172711,0.237291 -2.362278,0.382069 -3.555668,0.461863 -1.783442,0.09794 -3.573034,0.168187 -5.3573167,0.04534 C 9.1982067,25.723785 8.9858226,25.716211 8.2306569,25.593193 7.1806731,25.422152 6.1461826,25.162958 5.1282312,24.856332 4.222734,24.561033 3.2810783,24.265536 2.5286462,23.658749 2.295344,23.441944 2.0633378,23.214654 1.9443294,22.91224 c 0,0 -1.09054977,0.620739 -1.09054977,0.620739 z" />
      <path
         style="fill:#000000;stroke-width:0.335493"
         id="path92"
         d="m 25.320576,2.6571929 c 0.644861,0.7797297 1.31125,1.5401953 1.99262,2.2881971 0.962104,1.0251319 1.93195,2.0428958 2.830825,3.1245833 0.350865,0.4232523 0.675627,0.8664168 0.996926,1.3121182 0,0 1.05397,-0.6297813 1.05397,-0.6297813 v 0 C 31.826657,8.3342549 31.463677,7.9115247 31.087747,7.5002594 30.13231,6.4623111 29.130992,5.4676154 28.192131,4.4143817 27.545216,3.6549351 26.894016,2.8895067 26.391337,2.0235367 c 0,0 -1.070761,0.6336562 -1.070761,0.6336562 z" />
      <path
         style="fill:#000000;stroke-width:0.335493"
         id="path94"
         d="m 24.647235,24.209288 c 0.51735,0.59091 0.9696,1.236388 1.432944,1.869678 0.744272,0.992777 1.460802,2.005045 2.140833,3.042807 0.362239,0.546535 0.677718,1.120456 0.983505,1.699627 0.08228,0.150569 0.04441,0.08005 0.11401,0.211348 0,0 1.071281,-0.620606 1.071281,-0.620606 v 0 c -0.08293,-0.124252 -0.03833,-0.0579 -0.134009,-0.198934 -0.36011,-0.550655 -0.708622,-1.109005 -1.08773,-1.647087 -0.708273,-1.01992 -1.440969,-2.022217 -2.159613,-3.034795 -0.442828,-0.642395 -0.884688,-1.286875 -1.277331,-1.961661 0,0 -1.08389,0.639623 -1.08389,0.639623 z" />
      <path
         style="fill:#000000;stroke-width:0.335493"
         id="path96"
         d="m 1.6818309,24.553647 c 0.6534274,0.800791 1.3322226,1.580754 1.9974837,2.371801 1.0364149,1.214555 2.006342,2.481399 2.9323781,3.781324 0.3702982,0.539041 0.7476059,1.074226 1.0942443,1.629044 0.049062,0.08677 0.031445,0.04855 0.057869,0.112181 0,0 1.0860332,-0.633471 1.0860332,-0.633471 v 0 c -0.050287,-0.05757 -0.020488,-0.02338 -0.08929,-0.102697 C 8.3351053,31.207791 7.9396993,30.679097 7.5317983,30.161009 6.5467774,28.900898 5.548541,27.651678 4.5396724,26.41056 3.9181897,25.612348 3.2622194,24.821151 2.7723802,23.932908 c 0,0 -1.0905493,0.620739 -1.0905493,0.620739 z" />
      <path
         style="fill:#000000;stroke-width:0.335493"
         id="path100"
         d="m 6.3869911,31.484887 c 0.4102413,0.304058 0.8468387,0.566126 1.2949193,0.809758 0.7981048,0.403956 1.633144,0.735176 2.4972736,0.968396 0.211338,0.05704 0.425288,0.103917 0.637934,0.155874 1.485985,0.339384 3.009648,0.419541 4.528295,0.44096 1.76356,0.01442 3.511057,-0.229922 5.243881,-0.531835 1.541511,-0.293201 3.071208,-0.645696 4.596887,-1.011549 0.807967,-0.203895 1.622297,-0.380141 2.438004,-0.549728 0.324326,-0.06517 0.64634,-0.140414 0.964872,-0.229602 0,0 0.977208,-0.753723 0.977208,-0.753723 v 0 c -0.329843,0.101973 -0.662963,0.191379 -0.999949,0.267024 -0.848023,0.197843 -1.695615,0.397807 -2.537198,0.621862 -1.541846,0.391337 -3.09022,0.760382 -4.65232,1.062373 -1.721614,0.304857 -3.459283,0.54953 -5.212354,0.532045 -1.499669,-0.02523 -3.006117,-0.105232 -4.471202,-0.452238 -0.208115,-0.0529 -0.417581,-0.100755 -0.624344,-0.158715 C 10.225981,32.419507 9.4114894,32.087081 8.6420264,31.670041 8.2206705,31.421017 7.8029216,31.159353 7.447805,30.818911 c 0,0 -1.0608139,0.665976 -1.0608139,0.665976 z" />
      <path
         style="fill:#000000;stroke-width:0.335493"
         id="path102"
         d="m 30.326508,8.9861987 c 0.337499,0.7214925 0.53033,1.4977403 0.719242,2.2679743 0.347998,1.555221 0.532266,3.140063 0.689086,4.723981 0.120905,1.415088 0.224314,2.836108 0.2009,4.257512 -0.0047,0.285722 -0.01994,0.571173 -0.02993,0.856761 -0.0756,1.621349 -0.365183,3.220112 -0.730727,4.798078 -0.283743,1.19037 -0.671518,2.35129 -1.084515,3.501939 -0.262296,0.713523 -0.553879,1.415711 -0.841885,2.119092 -0.07218,0.16887 -0.134878,0.341395 -0.195247,0.514734 0,0 1.109063,-0.521789 1.109063,-0.521789 v 0 c 0.05016,-0.166204 0.103711,-0.331299 0.165503,-0.493631 0.25275,-0.69598 0.518351,-1.387269 0.76262,-2.086319 0.38928,-1.145872 0.761023,-2.299783 1.017632,-3.483907 0.341176,-1.580837 0.616797,-3.17973 0.688515,-4.798375 0.0094,-0.286629 0.02379,-0.57314 0.02818,-0.859891 0.02188,-1.424984 -0.08026,-2.848926 -0.202415,-4.267578 -0.157145,-1.595139 -0.333666,-3.190559 -0.637921,-4.765518 -0.16418,-0.796369 -0.338375,-1.5900681 -0.56509,-2.3713464 0,0 -1.093025,0.6082831 -1.093025,0.6082831 z" />
      <path
         style="fill:#000000;stroke-width:0.335493"
         id="path122"
         d="m 2.7969459,12.671873 c 0.125596,0.296421 0.3406805,0.53357 0.5732684,0.749806 0.4695706,0.402906 1.0424111,0.627077 1.6261265,0.806042 0.700992,0.17996 1.4326188,0.19909 2.1259327,-0.02921 0.1570107,-0.0517 0.3066493,-0.123567 0.4599739,-0.185342 0.695297,-0.387135 1.0171378,-0.555455 1.819036,-1.114951 0.3308699,-0.230854 0.7735046,-0.782452 0.9917346,-1.126584 0.07665,-0.12088 0.138861,-0.250326 0.208291,-0.375489 0.169909,-0.390541 0.342792,-0.834078 0.222419,-1.266744 C 10.754609,9.8809742 10.688135,9.8469803 10.523298,9.6540647 10.432699,9.5914505 10.348185,9.5189714 10.251512,9.4662211 9.7881873,9.213396 9.2116493,9.1171139 8.6898721,9.1081681 8.5488056,9.1057589 8.4078929,9.1186926 8.2669032,9.1239294 7.6761819,9.1855545 7.1097371,9.3675931 6.5969647,9.668572 5.1784058,10.501215 5.5777275,10.200044 4.7778654,10.88288 4.059876,11.565494 3.4411025,12.355316 3.019684,13.255897 c -0.07476,0.159763 -0.1350177,0.32592 -0.2025263,0.488882 -0.2283965,0.655001 -0.4074633,1.372562 -0.2120959,2.061424 0.033875,0.119446 0.088281,0.232083 0.1324217,0.348124 0.3729597,0.702275 1.0313976,1.149479 1.7522273,1.448719 0.1693163,0.07029 0.3450637,0.123961 0.5175956,0.185933 0.9270536,0.258679 1.9123175,0.346806 2.8637556,0.166624 0.2011949,-0.0381 0.3976133,-0.09812 0.5964201,-0.147187 0.2135242,-0.07867 0.427048,-0.157325 0.6405723,-0.235988 0,0 0.8330169,-0.651848 0.8330169,-0.651848 v 0 c -0.205871,0.07761 -0.411741,0.155235 -0.6176115,0.232851 -0.1941603,0.05058 -0.3858734,0.111713 -0.5824814,0.151736 C 7.805334,17.495631 6.8331599,17.427404 5.9174323,17.174305 5.7485907,17.114316 5.5764949,17.062809 5.4109069,16.994352 4.7199493,16.708702 4.095441,16.269926 3.7477807,15.593131 3.7071754,15.482649 3.6573668,15.375117 3.6259621,15.261671 3.4428838,14.60031 3.6029174,13.912498 3.8207678,13.282146 c 0.065807,-0.158604 0.1243,-0.320445 0.1974209,-0.475812 0.419622,-0.891624 1.0415882,-1.670147 1.7682934,-2.330315 0.8240195,-0.6648662 0.4107329,-0.278982 -0.06382,-0.104877 -0.1451897,0.05327 0.2681159,-0.154877 0.4077773,-0.221301 0.385397,-0.1832968 0.7971107,-0.2959743 1.2192586,-0.3526426 0.138161,-0.00837 0.2760679,-0.024613 0.4144832,-0.025233 0.5017463,-0.00229 1.0533391,0.082712 1.5000209,0.3242676 0.087267,0.0472 0.1635124,0.112396 0.2452682,0.168596 0.145747,0.16871 0.204803,0.198156 0.265045,0.416983 0.110633,0.401893 -0.05643,0.81605 -0.211798,1.178695 -0.06666,0.11923 -0.1260815,0.242807 -0.1999671,0.3577 -0.1695316,0.263629 -0.3794419,0.519718 -0.6011635,0.740479 -0.122625,0.122096 -0.5222091,0.239139 -0.3865273,0.346534 0.1498321,0.118596 0.3332402,-0.279619 0.5203111,-0.240643 0.1657191,0.03453 -0.2916489,0.171936 -0.4374733,0.257903 C 8.309701,13.38659 8.1653731,13.460518 8.013308,13.51482 7.3452095,13.753403 6.6330348,13.752447 5.9511285,13.57683 5.3907887,13.402421 4.8404432,13.182688 4.3922003,12.791855 4.1809461,12.586123 3.9747772,12.358576 3.89832,12.065508 c 0,0 -1.1013741,0.606365 -1.1013741,0.606365 z" />
      <path
         style="fill:#000000;stroke-width:0.335493"
         id="path124"
         d="m 16.693309,9.3130904 c -0.900821,0.3185153 -1.718632,0.8648586 -2.53624,1.3409536 -0.539212,0.333064 -1.050708,0.71587 -1.476308,1.187347 -0.151892,0.18987 -0.315791,0.413975 -0.211873,0.667424 0.0199,0.04852 0.05122,0.09153 0.07681,0.137293 0.377604,0.456136 0.901437,0.760279 1.400174,1.065789 0.650097,0.36617 1.274074,0.772614 1.828545,1.272971 0.319599,0.316905 0.606089,0.683009 0.725588,1.124786 0.02197,0.08123 0.03338,0.164945 0.05005,0.247418 0.06565,0.556344 -0.169167,1.051248 -0.572491,1.43069 -0.11265,0.105986 -0.24154,0.193268 -0.36231,0.289901 -0.144751,0.08237 -0.487297,0.40496 -0.434255,0.247088 0.06137,-0.182649 0.508704,-0.15397 0.466105,-0.341884 -0.0391,-0.172507 -0.338632,0.104305 -0.511952,0.139645 -0.546337,0.11138 -0.99057,0.08268 -1.537149,0.03179 -0.505367,-0.08237 -1.020035,-0.20152 -1.453823,-0.48727 -0.184411,-0.121475 -0.221415,-0.173894 -0.36788,-0.323763 0,0 -1.02007,0.626906 -1.02007,0.626906 v 0 c 0.16143,0.150401 0.213626,0.211998 0.409281,0.334703 0.460488,0.288797 0.997608,0.407941 1.527225,0.49386 0.538843,0.05431 1.028421,0.08936 1.567645,-0.0063 0.884927,-0.157022 1.637898,-0.672388 2.393815,-1.133468 0.123491,-0.104694 0.255778,-0.199832 0.370475,-0.314096 0.420083,-0.418496 0.652547,-0.955608 0.572827,-1.548992 -0.0188,-0.08724 -0.03193,-0.175907 -0.05642,-0.261724 -0.131474,-0.46058 -0.436898,-0.837844 -0.776692,-1.164001 -0.567247,-0.496467 -1.199828,-0.902332 -1.849275,-1.283282 -0.470993,-0.296449 -0.967957,-0.595716 -1.304844,-1.049637 -0.01776,-0.03696 -0.04069,-0.07183 -0.05329,-0.110833 -0.06707,-0.207696 0.119053,-0.40053 0.230846,-0.549397 0.417849,-0.451099 0.913154,-0.819201 1.439367,-1.135512 -1.544283,0.876036 0.08268,-0.07987 0.471237,-0.164081 0,0 0.994872,-0.7643101 0.994872,-0.7643101 z" />
      <path
         style="fill:#000000;stroke-width:0.335493"
         id="path126"
         d="m 24.018355,9.7295693 c -0.389422,-0.057035 -0.782814,-0.071148 -1.175566,-0.056895 -1.105372,0.1016808 -1.722336,0.6135127 -2.690745,1.1996507 -0.65443,0.529309 -0.957722,1.176712 -1.242698,1.94832 -0.199995,0.671764 -0.355159,1.371822 -0.330046,2.077388 0.0045,0.123035 0.02095,0.245334 0.03141,0.368002 0.06588,0.446804 0.192271,0.896248 0.506558,1.236621 0.220567,0.238874 0.316922,0.265335 0.59973,0.429739 0.139464,0.04591 0.27431,0.109472 0.418392,0.137696 0.993844,0.194747 2.050087,-0.228729 2.975764,-0.530101 0,0 0.768479,-0.595848 0.768479,-0.595848 v 0 c -0.874401,0.279611 -1.86788,0.669936 -2.804896,0.487772 -0.134675,-0.02619 -0.261049,-0.08454 -0.391574,-0.126804 -0.264825,-0.152577 -0.354393,-0.176678 -0.56134,-0.398572 -0.300401,-0.322098 -0.421317,-0.749728 -0.486052,-1.174013 -0.0104,-0.118521 -0.02669,-0.236681 -0.03132,-0.355574 -0.02689,-0.690473 0.120714,-1.377832 0.328975,-2.031837 0.05455,-0.137931 0.103162,-0.278364 0.163665,-0.413791 0.259803,-0.58156 0.630522,-1.103082 1.143095,-1.487205 -0.246056,0.133194 -0.490402,0.269589 -0.738163,0.399579 -0.09045,0.04746 0.174941,-0.105878 0.266121,-0.151917 0.348329,-0.175884 0.730045,-0.273865 1.116501,-0.316763 0.368109,-0.01793 0.742075,-0.01103 1.102863,0.07264 0,0 1.030838,-0.7180872 1.030838,-0.7180872 z" />
    </g>
  </g>
</svg>
