<?xml version="1.0" encoding="UTF-8" standalone="no"?>
<!-- Created with Inkscape (http://www.inkscape.org/) -->

<svg
   version="1.1"
   id="svg2"
   width="112"
   height="112"
   viewBox="0 0 112 112"
   sodipodi:docname="grinch.svg"
   xml:space="preserve"
   inkscape:version="1.2.2 (b0a8486541, 2022-12-01)"
   inkscape:export-filename="../grinch.png"
   inkscape:export-xdpi="96"
   inkscape:export-ydpi="96"
   xmlns:inkscape="http://www.inkscape.org/namespaces/inkscape"
   xmlns:sodipodi="http://sodipodi.sourceforge.net/DTD/sodipodi-0.dtd"
   xmlns="http://www.w3.org/2000/svg"
   xmlns:svg="http://www.w3.org/2000/svg"><defs
     id="defs6" /><sodipodi:namedview
     id="namedview4"
     pagecolor="#ffffff"
     bordercolor="#666666"
     borderopacity="1.0"
     inkscape:showpageshadow="2"
     inkscape:pageopacity="0.0"
     inkscape:pagecheckerboard="0"
     inkscape:deskcolor="#d1d1d1"
     showgrid="false"
     inkscape:zoom="2.1071429"
     inkscape:cx="60.271186"
     inkscape:cy="56"
     inkscape:window-width="1481"
     inkscape:window-height="994"
     inkscape:window-x="0"
     inkscape:window-y="0"
     inkscape:window-maximized="1"
     inkscape:current-layer="g8" /><g
     inkscape:groupmode="layer"
     inkscape:label="Image"
     id="g8"><path
       style="fill:#000000;fill-opacity:1;fill-rule:nonzero;stroke:none"
       id="path376"
       d="m 2.637621,10.05574 c 1.628112,-0.1289827 3.22711,0.08214 4.827746,0.358695 2.484908,0.448381 4.969178,0.900075 7.461941,1.304052 2.070005,0.306517 4.133356,0.655205 6.20678,0.938577 1.904796,0.2479 3.825035,0.319204 5.743441,0.358561 2.393116,0.03825 4.785157,0.01135 7.17623,-0.08982 1.891855,-0.120233 3.776752,-0.325452 5.667903,-0.454803 2.524318,-0.134884 5.053964,-0.143264 7.58119,-0.172178 3.211645,-0.04085 6.430609,-0.02164 9.637886,-0.217263 1.839965,-0.145228 3.676949,-0.321439 5.510162,-0.535452 2.754236,-0.349739 5.530236,-0.444648 8.303139,-0.502505 2.529869,0.105991 5.003143,-0.41855 7.489035,-0.788645 2.677259,-0.4078537 5.374296,-0.6666187 8.077083,-0.8234097 1.890288,-0.0092 3.764178,-0.153936 5.642957,-0.348031 2.399208,-0.198004 4.802559,-0.3309672 7.203516,-0.5081493 1.29416,-0.095142 2.59051,-0.1517386 3.88792,-0.1703498 0.39201,-0.00313 0.78404,-0.00246 1.17606,-0.00209 0,0 2.99809,-2.1795536 2.99809,-2.1795536 v 0 c -0.40163,0.00265 -0.80326,0.00598 -1.20479,0.015957 -1.32776,0.029474 -2.65465,0.082849 -3.97733,0.2090996 -2.41351,0.1990969 -4.825867,0.3970999 -7.244211,0.5314082 -1.869075,0.1569728 -3.733616,0.3086524 -5.610388,0.3388614 -2.730517,0.1683867 -5.448279,0.4938678 -8.160115,0.8493888 -2.477672,0.3341938 -4.935328,0.8739017 -7.450806,0.8107665 -2.760612,0.080029 -5.5269,0.1394242 -8.27424,0.4417612 -1.830756,0.208674 -3.667924,0.343268 -5.499398,0.544705 -3.244415,0.2951147 -6.512261,0.3516777 -9.768042,0.3448357 -2.462395,-0.02345 -4.927093,-0.08271 -7.38876,0.0015 -1.926343,0.136658 -3.84049,0.401172 -5.766876,0.539627 -2.367186,0.100541 -4.73306,0.121474 -7.102107,0.06293 -1.908774,-0.03484 -3.820848,-0.08723 -5.717129,-0.326152 C 21.973954,10.303423 19.887339,9.9915493 17.79727,9.7027943 15.314896,9.3027123 12.844141,8.834312 10.370689,8.3833545 8.810417,8.0783392 7.252976,7.8000801 5.655939,7.8628032 c 0,0 -3.018318,2.1929368 -3.018318,2.1929368 z" /><path
       style="fill:#000000;fill-opacity:1;fill-rule:nonzero;stroke:none"
       id="path378"
       d="m 5.541274,100.94778 c 0.434016,-0.69522 0.715168,-1.452124 0.886799,-2.249447 0.233196,-1.370496 0.202841,-2.764585 0.330222,-4.144541 0.08702,-1.298711 0.306863,-2.577887 0.576314,-3.84934 0.219896,-1.253492 0.545335,-2.484388 0.77084,-3.73666 0.295285,-1.350373 0.484645,-2.720089 0.752413,-4.07572 0.312137,-1.492587 0.585285,-2.987774 0.740177,-4.505284 0.197687,-1.438761 0.337747,-2.883861 0.418947,-4.333684 0.04833,-1.204194 0.06588,-2.409643 0.06086,-3.614748 -0.0089,-1.267594 -0.0066,-2.535186 -0.0052,-3.80279 0.0025,-1.197145 -0.169884,-2.386017 -0.250026,-3.579713 -0.02453,-1.266245 -0.202895,-2.520258 -0.301857,-3.781621 -0.09962,-1.465914 -0.11902,-2.935748 -0.137745,-4.40445 -0.03485,-2.036946 -0.02596,-4.074148 -0.02072,-6.11126 -0.0076,-2.151828 -0.01087,-4.303665 7.9e-5,-6.455487 -0.009,-2.023008 -0.01,-4.042298 0.09856,-6.062583 0.138849,-2.248608 0.169765,-4.500622 0.203525,-6.752493 0.02366,-2.064947 0.03504,-4.130016 0.05008,-6.195042 0.01088,-1.470986 0.01414,-2.942009 0.01581,-4.413028 8e-6,-1.784498 -0.02028,-3.565367 -0.126959,-5.346716 C 9.554933,12.120157 9.303713,10.726554 9.174954,9.3204763 9.057892,8.5323438 9.115524,8.9234805 9.00201,8.1470718 c 0,0 -3.237132,1.7096965 -3.237132,1.7096965 v 0 c 0.114883,0.7687457 0.06083,0.3819437 0.161936,1.1604377 0.155482,1.38851 0.425373,2.763032 0.49457,4.160259 0.09735,1.784771 0.101715,3.568339 0.06513,5.355385 0.0027,1.46494 0.008,2.929875 0.01959,4.394775 0.01438,2.054373 0.02393,4.108812 0.0019,6.163186 -0.02776,2.251923 -0.09759,4.503581 -0.233082,6.751784 -0.105978,2.026101 -0.116519,4.052158 -0.09291,6.080851 0.01048,2.152345 0.0062,4.304701 -0.0034,6.457043 0.0035,2.043538 0.0069,4.087047 -0.01083,6.130547 0.0034,1.480812 0.01033,2.962758 0.124213,4.440166 0.09829,1.261777 0.241021,2.519827 0.286054,3.785184 0.07894,1.186349 0.244475,2.368585 0.238546,3.558519 0.0033,1.268093 0.0095,2.536188 2.26e-4,3.804283 -0.0093,1.197367 0.0015,2.395416 -0.05804,3.591802 -0.07616,1.442461 -0.208805,2.879739 -0.412181,4.31029 -0.159586,1.507888 -0.440933,2.992256 -0.753233,4.475411 -0.263937,1.360563 -0.477822,2.730208 -0.766028,4.086011 -0.240531,1.248388 -0.560432,2.480143 -0.778667,3.733171 -0.254502,1.285021 -0.468533,2.57649 -0.551251,3.885763 -0.09962,1.36849 -0.06994,2.755052 -0.377519,4.100834 -0.226755,0.78223 -0.557064,1.51597 -0.988789,2.20817 0,0 3.410151,-1.54286 3.410151,-1.54286 z" /><path
       style="fill:#000000;fill-opacity:1;fill-rule:nonzero;stroke:none"
       id="path380"
       d="m 3.570773,102.13211 c 1.201573,0.82174 2.457269,1.55045 3.789897,2.13594 1.235249,0.49404 2.548568,0.69617 3.866972,0.79256 0.861467,0.0608 1.65575,-0.17437 2.42358,-0.53911 0.759797,-0.47937 1.629049,-0.58278 2.496996,-0.71013 0,0 2.935043,-2.19999 2.935043,-2.19999 v 0 c -0.865587,0.13295 -1.766123,0.1369 -2.547751,0.58468 -0.708429,0.44495 -1.484289,0.70234 -2.325688,0.7245 -1.30373,-0.0579 -2.609078,-0.20327 -3.842558,-0.65732 -1.306683,-0.53734 -2.548926,-1.22106 -3.636677,-2.13175 0,0 -3.159814,2.00062 -3.159814,2.00062 z" /><path
       style="fill:#000000;fill-opacity:1;fill-rule:nonzero;stroke:none"
       id="path382"
       d="m 20.479873,103.56717 c -0.227115,-1.48182 -0.300277,-2.98482 -0.422102,-4.478624 -0.262681,-2.730905 -0.206092,-5.470012 -0.126475,-8.207223 0.03714,-2.304795 0.307115,-4.596003 0.435597,-6.896141 0.137488,-1.845579 0.357853,-3.677105 0.636655,-5.505711 0.219359,-1.796104 0.486022,-3.584381 0.760365,-5.37271 0.333783,-1.948066 0.467177,-3.916671 0.636049,-5.882949 0.259543,-2.575683 0.45979,-5.155718 0.601083,-7.740707 0.189378,-2.325059 0.332424,-4.652666 0.517501,-6.977947 0.149984,-2.074251 0.406022,-4.138275 0.539863,-6.213984 0.128416,-1.610686 0.381295,-3.206204 0.554962,-4.811504 0.196221,-1.516098 0.457996,-3.022033 0.670845,-4.535519 0.20782,-1.12333 0.431597,-2.24172 0.540875,-3.379621 0.04533,-0.713095 0.0665,-1.427476 0.06825,-2.14192 0,0 -3.295626,1.675836 -3.295626,1.675836 v 0 c -0.0097,0.703124 -0.0092,1.407397 -0.07368,2.108325 -0.108403,1.122254 -0.310837,2.230681 -0.50024,3.34151 -0.213911,1.512432 -0.456064,3.020562 -0.650104,4.535914 -0.193172,1.603946 -0.420465,3.203572 -0.525295,4.817116 -0.128031,2.066884 -0.347982,4.124922 -0.504623,6.189473 -0.18913,2.321929 -0.317839,4.647621 -0.481945,6.971453 -0.126229,2.588828 -0.362293,5.16557 -0.635201,7.742619 -0.186544,1.96855 -0.36994,3.935473 -0.695897,5.887365 -0.27745,1.784327 -0.516581,3.57291 -0.742452,5.364402 -0.283042,1.838132 -0.513749,3.680342 -0.623204,5.53826 -0.119361,2.287717 -0.310461,4.572267 -0.350643,6.863527 -0.07506,2.757147 -0.104582,5.513229 0.0862,8.26743 0.09537,1.53013 0.134697,3.06376 0.284361,4.5896 0,0 3.294885,-1.74827 3.294885,-1.74827 z" /><path
       style="fill:#000000;fill-opacity:1;fill-rule:nonzero;stroke:none"
       id="path386"
       d="m 9.63909,32.026383 c 2.665401,0.282953 5.347576,0.348534 8.024705,0.435386 2.331202,0.06845 4.662545,0.132827 6.994762,0.149751 1.931939,-0.0376 3.847941,-0.303282 5.770761,-0.470038 1.990972,-0.162522 3.989196,-0.191811 5.985602,-0.215716 2.52864,-0.05022 5.058565,0.02295 7.586621,-0.0433 1.649509,-0.0776 3.263725,-0.447905 4.888094,-0.717531 2.113216,-0.276517 4.254392,-0.248378 6.381773,-0.263899 2.239478,-0.01511 4.478813,0.0093 6.718172,0.02719 1.348691,0.0097 2.69737,0.01742 4.046096,0.0179 1.532782,0.003 3.029192,0.341653 4.532982,0.591136 1.946509,0.275334 3.897459,0.520404 5.849172,0.756179 1.455416,0.161312 2.913549,0.271326 4.365896,0.46029 1.461271,0.176237 2.936313,0.168497 4.405752,0.180593 1.667528,0.0065 3.335077,0.02109 5.002626,0.01999 2.294397,-0.02465 4.588718,-0.04182 6.883231,-0.02821 1.280205,0.03617 2.544435,-0.116733 3.807135,-0.301108 0,0 2.92548,-2.194336 2.92548,-2.194336 v 0 c -1.28309,0.206446 -2.5652,0.418759 -3.87015,0.415673 -2.27079,0.01394 -4.541393,-0.0015 -6.812097,-0.02369 -1.674837,0.001 -3.349673,0.01965 -5.024501,9.69e-4 -1.444205,-0.01917 -2.891738,-0.03243 -4.329382,-0.18603 -1.478156,-0.167816 -2.956398,-0.297521 -4.439803,-0.410562 -1.942378,-0.21479 -3.875921,-0.496176 -5.811762,-0.761502 -1.506676,-0.245993 -2.995826,-0.616671 -4.5285,-0.666976 -1.362179,-2.7e-4 -2.724324,0.0059 -4.086488,0.01187 -2.265743,0.01218 -4.531441,0.02893 -6.797238,0.02754 -2.09628,0.0057 -4.200127,-0.03897 -6.291085,0.123557 -1.649476,0.28949 -3.28254,0.69895 -4.955809,0.828447 -2.524526,0.10565 -5.05232,0.03288 -7.578447,0.04892 -1.991205,0.0065 -3.984868,0.0059 -5.97092,0.169958 -1.91308,0.16675 -3.818475,0.426603 -5.739481,0.487139 -2.373866,0.0023 -4.748125,0.01592 -7.121468,-0.0459 -2.597278,-0.07703 -5.217178,-0.124475 -7.782245,-0.573126 0,0 -3.029484,2.149444 -3.029484,2.149444 z" /><path
       style="fill:#000000;fill-opacity:1;fill-rule:nonzero;stroke:none"
       id="path388"
       d="m 107.17504,101.01694 c -0.0428,-1.173414 -0.052,-2.347919 -0.057,-3.522016 0.0759,-1.784473 -0.12999,-3.549909 -0.41747,-5.307033 -0.26213,-1.417341 -0.43816,-2.846182 -0.52032,-4.28471 -0.0451,-0.991982 -0.0478,-1.985592 -0.0464,-2.978457 0.001,-0.875078 0.008,-1.750101 0.0157,-2.625147 0.005,-0.641817 0.007,-1.283645 0.008,-1.925479 -0.007,-0.775078 -0.008,-1.550194 -0.0136,-2.325288 -0.0346,-1.164767 -0.19172,-2.32284 -0.26633,-3.486682 -0.17545,-1.310861 -0.29428,-2.626216 -0.36676,-3.946443 -0.04,-1.359969 -0.0477,-2.715576 -0.16437,-4.071567 -0.062,-1.259631 -0.27136,-2.502847 -0.4114,-3.754505 -0.053,-0.987269 -0.15475,-1.964567 -0.28291,-2.944369 -0.11515,-0.970014 -0.30022,-1.928955 -0.40332,-2.901149 -0.0175,-0.7644 -0.13424,-1.511385 -0.25106,-2.264959 -0.11611,-0.801581 -0.14491,-1.612127 -0.16259,-2.420794 -0.0111,-0.739764 -0.005,-1.479623 -0.001,-2.219419 0.008,-0.71915 -0.005,-1.438218 -0.007,-2.157339 -0.0122,-1.023966 -0.0113,-2.047905 -0.004,-3.071894 -9.8e-4,-1.099964 -0.009,-2.19991 -0.0126,-3.299869 -0.0112,-1.365136 -0.008,-2.730232 -0.003,-4.09538 6e-4,-1.236535 0.001,-2.47306 0.009,-3.709574 0.004,-0.844487 0.0206,-1.68895 0.0169,-2.533456 0.005,-0.778739 0.002,-1.557212 -0.0115,-2.335851 -0.0353,-1.429038 -0.0301,-2.858588 -0.0113,-4.287808 0.008,-1.407822 -0.0156,-2.81558 -0.0182,-4.223416 -0.0298,-1.512298 0.0383,-3.030399 0.26826,-4.526187 0.10381,-0.962032 0.44029,-1.865886 0.69722,-2.790599 0.14986,-0.827933 0.42087,-1.621495 0.64651,-2.429116 0.27459,-0.8675317 0.5462,-1.7385713 0.86797,-2.5899623 0.17118,-0.4944471 0.0923,-0.2485791 0.23753,-0.7373316 0,0 -3.34863,1.5830393 -3.34863,1.5830393 v 0 c -0.14806,0.4717679 -0.0692,0.2326199 -0.23727,0.7171879 -0.29634,0.8661657 -0.58327,1.7355627 -0.85718,2.6090967 -0.24739,0.800508 -0.45132,1.609277 -0.63805,2.425848 -0.28373,0.925384 -0.54873,1.85249 -0.63766,2.821836 -0.18412,1.511891 -0.24856,3.03287 -0.2163,4.555633 -0.003,1.414036 -0.0267,2.827998 -0.0182,4.24202 0.0191,1.43305 0.0235,2.866416 -0.0113,4.299291 -0.0135,0.782533 -0.0166,1.564901 -0.0115,2.347531 -0.004,0.838762 0.0124,1.677478 0.0169,2.51622 0.008,1.233594 0.008,2.467199 0.009,3.700815 0.004,1.366255 0.008,2.732459 -0.003,4.098704 -0.004,1.104247 -0.0116,2.20848 -0.0126,3.312731 0.007,1.025477 0.008,2.050904 -0.005,3.076354 -0.003,0.722151 -0.0167,1.444231 -0.0111,2.166423 0.002,0.739844 0.006,1.479734 0.0215,2.219436 0.0211,0.824927 0.059,1.649817 0.1786,2.467458 0.11863,0.746779 0.1969,1.493646 0.25313,2.247663 0.12478,0.969649 0.31921,1.929177 0.40978,2.903065 0.12663,0.974897 0.22978,1.948268 0.30121,2.929038 0.15028,1.243977 0.36873,2.479613 0.42618,3.733613 0.11106,1.353261 0.10712,2.707603 0.15516,4.064044 0.0701,1.321715 0.21913,2.635661 0.36635,3.950617 0.0734,1.161393 0.22365,2.320056 0.22007,3.484243 -0.006,0.779694 -0.006,1.55941 -0.0136,2.339087 2.7e-4,0.63939 0.003,1.278773 0.005,1.918157 0.004,0.871704 0.007,1.743383 0.006,2.615094 0.002,0.998457 -4.4e-4,1.997492 0.0726,2.994067 0.12201,1.43769 0.32204,2.864169 0.59806,4.28084 0.28065,1.743456 0.45156,3.497261 0.37103,5.265814 -0.005,1.193464 -0.0147,2.387284 -0.057,3.580074 0,0 3.33494,-1.69924 3.33494,-1.69924 z" /><path
       style="fill:#000000;fill-opacity:1;fill-rule:nonzero;stroke:none"
       id="path390"
       d="m 91.940485,101.48921 c 0.375532,-1.501824 0.321509,-3.060056 0.293556,-4.594572 -0.11304,-2.051307 -0.292555,-4.097608 -0.605114,-6.128371 -0.219011,-1.511337 -0.443976,-3.021889 -0.64833,-4.535353 -0.256692,-1.311847 -0.40462,-2.637887 -0.488045,-3.970782 -0.138443,-1.19294 -0.272607,-2.384604 -0.447157,-3.572673 -0.195255,-1.336145 -0.245213,-2.686478 -0.276681,-4.034525 0.03367,-1.345089 -0.113868,-2.681274 -0.217221,-4.019942 -0.0804,-1.047846 -0.103209,-2.098871 -0.111812,-3.149393 -0.0166,-1.222554 -0.01978,-2.44518 -0.02066,-3.667832 -0.0015,-1.291514 0.0013,-2.583019 0.01028,-3.874501 -2.11e-4,-1.165177 -5.08e-4,-2.330342 -1.25e-4,-3.495517 -3.1e-4,-1.132162 0.0027,-2.264322 0.0023,-3.396486 3.59e-4,-0.965184 0.0063,-1.930324 0.01365,-2.895479 0.0052,-0.762704 0.0042,-1.525486 -5.44e-4,-2.288197 0.119522,-1.073217 0.20862,-2.148949 0.263888,-3.227346 0.04999,-1.256459 0.04901,-2.514215 0.05097,-3.77145 0.0048,-1.065563 0.0088,-2.13111 0.02207,-3.196611 0.0064,-1.005099 -0.02155,-2.009867 -0.02127,-3.015041 0.01082,-1.117427 0.06035,-2.227758 -0.134072,-3.331686 -0.188526,-0.654213 -0.07494,-0.343213 -0.334333,-0.935319 0,0 -3.213401,1.811397 -3.213401,1.811397 v 0 c 0.241184,0.526809 0.136394,0.246186 0.304994,0.84531 0.175464,1.081849 0.104371,2.175424 0.123626,3.267915 4.57e-4,1.012158 -0.02754,2.023964 -0.01928,3.036042 0.01533,1.057319 0.02182,2.114703 0.02279,3.17213 -0.0057,1.25413 -0.01106,2.508872 -0.07346,3.761749 -0.06317,1.090378 -0.176884,2.174525 -0.285632,3.260831 -0.0047,0.762896 -0.0058,1.525862 -5.44e-4,2.288751 0.0073,0.960517 0.01331,1.921019 0.01366,2.881566 -3.9e-4,1.131367 0.0027,2.26273 0.0024,3.394096 3.76e-4,1.165254 9.4e-5,2.330496 -5.08e-4,3.495753 0.0085,1.28849 0.01028,2.577002 0.0071,3.865517 -0.0023,1.229527 -0.01122,2.459067 -0.0092,3.688566 0.01837,1.055946 0.04411,2.112228 0.140336,3.164584 0.124305,1.32672 0.261294,2.652323 0.231876,3.987306 0.03401,1.364178 0.07579,2.730863 0.277709,4.082818 0.166595,1.180169 0.295402,2.364669 0.434793,3.548273 0.0989,1.3376 0.26973,2.666802 0.511267,3.986462 0.208621,1.509355 0.460423,3.013309 0.694363,4.518938 0.318996,2.008647 0.520757,4.034589 0.611572,6.066631 0.0032,1.528561 0.01278,3.098281 -0.505806,4.558071 0,0 3.380047,-1.58163 3.380047,-1.58163 z" /><path
       style="fill:#000000;fill-opacity:1;fill-rule:nonzero;stroke:none"
       id="path392"
       d="m 90.255081,102.30512 c 0.830359,-0.0231 1.66123,-0.0151 2.491804,-0.0119 0.618426,0.002 1.236825,0.007 1.855255,0.007 0.60249,-0.002 1.204994,5e-4 1.807472,-0.004 0.769021,-0.006 1.538033,-0.004 2.307058,-0.001 0.59784,0.002 1.19567,0.004 1.79351,0.005 0.50067,6.9e-4 1.00134,0.002 1.50201,0.002 0.46855,6.4e-4 0.9371,3.2e-4 1.40564,10e-4 0,0 3.02057,-2.19457 3.02057,-2.19457 v 0 c -0.46964,8.8e-4 -0.93928,5.6e-4 -1.40891,0.001 -0.50218,-4.7e-4 -1.00435,9.6e-4 -1.50653,0.002 -0.60241,6.9e-4 -1.20482,0.003 -1.80724,0.005 -0.76797,0.003 -1.53594,0.005 -2.3039,-0.001 -0.59912,-0.004 -1.19827,-0.002 -1.797395,-0.004 -0.624936,-5e-5 -1.249841,0.005 -1.874772,0.007 -0.819619,0.003 -1.639574,0.0116 -2.458961,-0.0119 0,0 -3.025611,2.19824 -3.025611,2.19824 z" /><path
       style="fill:#000000;fill-opacity:1;fill-rule:nonzero;stroke:none"
       id="path394"
       d="m 25.632006,97.394362 c -1.063688,1.388438 -2.076616,2.810058 -3.208904,4.144428 -1.211263,1.48703 -2.556283,2.85692 -3.75326,4.35502 0,0 3.317483,-1.41573 3.317483,-1.41573 v 0 c 1.198197,-1.47045 2.509327,-2.84456 3.697844,-4.3239 1.149457,-1.384406 2.187042,-2.860311 3.394318,-4.195087 0,0 -3.447481,1.435269 -3.447481,1.435269 z" /><path
       style="fill:#000000;fill-opacity:1;fill-rule:nonzero;stroke:none"
       id="path396"
       d="m 77.216893,95.589399 c 0.714496,1.15725 1.544722,2.231603 2.400245,3.286569 0.785797,0.866018 1.484389,1.800712 2.105776,2.790582 0.468785,0.87435 1.028046,1.68723 1.653869,2.45506 0.428633,0.49382 0.201824,0.25179 0.682143,0.72448 0,0 3.133852,-1.92517 3.133852,-1.92517 v 0 c -0.459627,-0.44682 -0.24051,-0.21595 -0.658031,-0.69194 -0.621423,-0.75322 -1.175898,-1.55222 -1.633593,-2.416874 -0.647447,-0.992514 -1.356407,-1.939896 -2.172777,-2.800924 -0.84895,-1.022277 -1.671654,-2.074009 -2.270332,-3.267491 0,0 -3.241152,1.845708 -3.241152,1.845708 z" /><path
       style="fill:#000000;fill-opacity:1;fill-rule:nonzero;stroke:none"
       id="path398"
       d="m 29.990975,97.615457 c 1.342314,0.07282 2.684191,0.170628 4.020806,0.317536 1.275737,0.167167 2.558702,0.26051 3.844068,0.30452 1.208816,0.02863 2.41805,0.03115 3.627127,0.02502 1.688348,-0.0081 3.376698,-0.01554 5.065042,-0.02516 2.189687,-0.01558 4.379419,-0.01327 6.569072,0.0049 1.317621,0.0215 2.635251,0.02353 3.952954,0.01205 1.410426,-3.53e-4 2.820853,0.0015 4.231279,0.0024 1.165777,0.0093 2.331567,0.0077 3.497366,0.0054 1.259217,0.0074 2.518394,-0.0073 3.777598,-0.0063 0.940465,0.0011 1.871029,-0.102191 2.776325,-0.355372 0.708531,-0.227153 1.454512,-0.246289 2.187305,-0.327364 0.361128,-0.06814 0.691536,-0.233758 1.033783,-0.360864 0,0 2.943603,-2.281803 2.943603,-2.281803 v 0 c -0.352852,0.09677 -0.687078,0.228079 -1.00856,0.405006 -0.723875,0.179157 -1.493867,0.09409 -2.217294,0.29829 -0.904034,0.280357 -1.818272,0.481941 -2.772925,0.484447 -1.253398,9.76e-4 -2.506769,-0.01381 -3.760181,-0.0063 -1.170786,-0.0022 -2.341563,-0.0038 -3.512328,0.0054 -1.412578,8.14e-4 -2.825156,0.0027 -4.237734,0.0023 -1.328751,-0.01188 -2.657425,-0.0088 -3.986101,0.01203 -2.194709,0.01787 -4.389493,0.02092 -6.584238,0.006 -1.667913,-0.0087 -3.335827,-0.01426 -5.00375,-0.0194 -1.203822,-0.0054 -2.407798,0.0028 -3.611444,-0.02244 -1.290307,-0.03471 -2.579691,-0.102115 -3.862002,-0.256545 -1.314246,-0.143456 -2.636621,-0.220947 -3.942661,-0.423083 0,0 -3.02711,2.199325 -3.02711,2.199325 z" /><path
       style="fill:#000000;fill-opacity:1;fill-rule:nonzero;stroke:none"
       id="path404"
       d="m 28.636141,100.92518 c -0.756659,1.23332 -1.70532,2.33199 -2.653155,3.41964 -0.936514,1.1014 -1.803603,2.26254 -2.628964,3.44923 -0.107304,0.15193 -0.214607,0.30386 -0.321911,0.45578 0,0 3.362374,-1.46278 3.362374,-1.46278 v 0 c 0.103597,-0.15052 0.207194,-0.30104 0.310791,-0.45157 0.811512,-1.16861 1.672307,-2.30421 2.590445,-3.39129 0.968017,-1.1312 1.907043,-2.28437 2.776999,-3.493324 0,0 -3.436579,1.474324 -3.436579,1.474314 z" /><path
       style="fill:#000000;fill-opacity:1;fill-rule:nonzero;stroke:none"
       id="path406"
       d="m 31.247342,102.14982 c -0.404462,1.64087 -1.013083,3.22392 -1.519398,4.83509 -0.350658,1.01513 -0.175367,0.50988 -0.52584,1.51578 0,0 3.275803,-1.53404 3.275803,-1.53404 v 0 c 0.345216,-1.00692 0.176884,-0.50108 0.504901,-1.51756 0.512547,-1.64126 1.087429,-3.26139 1.626716,-4.89379 0,0 -3.362182,1.59452 -3.362182,1.59452 z" /><path
       style="fill:#000000;fill-opacity:1;fill-rule:nonzero;stroke:none"
       id="path408"
       d="m 37.568633,101.9086 c -0.510449,1.47262 -0.987647,2.95405 -1.526442,4.41735 -0.445289,1.0975 -0.886133,2.19604 -1.389437,3.26833 0,0 3.297943,-1.50747 3.297943,-1.50747 v 0 c 0.46896,-1.07577 0.892047,-2.16961 1.318272,-3.26293 0.558063,-1.48911 1.030016,-3.01882 1.710857,-4.45667 0,0 -3.411193,1.54139 -3.411193,1.54139 z" /><path
       style="fill:#000000;fill-opacity:1;fill-rule:nonzero;stroke:none"
       id="path410"
       d="m 43.276224,102.9879 c -0.750556,1.48497 -1.683578,2.86766 -2.636723,4.228 -0.856687,1.2011 -1.678947,2.42632 -2.35563,3.73822 0,0 3.299,-1.48451 3.299,-1.48451 v 0 c 0.687796,-1.28352 1.496412,-2.49377 2.337621,-3.68174 0.971093,-1.40928 1.915824,-2.83917 2.749213,-4.33529 0,0 -3.393481,1.53532 -3.393481,1.53532 z" /><path
       style="fill:#000000;fill-opacity:1;fill-rule:nonzero;stroke:none"
       id="path412"
       d="m 49.052419,101.07152 c -0.642773,1.35324 -1.430253,2.63064 -2.133543,3.95234 -0.70022,1.27714 -1.30724,2.59746 -1.906352,3.92338 0,0 3.294842,-1.50877 3.294842,-1.50877 v 0 c 0.576365,-1.31936 1.193278,-2.61835 1.883836,-3.88267 0.742863,-1.35489 1.554558,-2.67232 2.252476,-4.051354 0,0 -3.391259,1.567074 -3.391259,1.567074 z" /><path
       style="fill:#000000;fill-opacity:1;fill-rule:nonzero;stroke:none"
       id="path414"
       d="m 53.609211,102.95851 c -0.992945,1.47236 -1.957159,2.96085 -2.910034,4.45966 0,0 3.280455,-1.44532 3.280455,-1.44532 v 0 c 0.956367,-1.53055 1.935856,-3.04888 3.047927,-4.47252 0,0 -3.418348,1.45818 -3.418348,1.45818 z" /><path
       style="fill:#000000;fill-opacity:1;fill-rule:nonzero;stroke:none"
       id="path416"
       d="m 59.368602,101.57479 c -0.712825,1.5492 -1.372013,3.12211 -2.036726,4.69238 -0.520536,1.02434 -0.86976,2.13734 -1.478928,3.11628 -0.311882,0.50119 -0.497313,0.70813 -0.864753,1.17248 0,0 3.332415,-1.43148 3.332415,-1.43148 v 0 c 0.377242,-0.50549 0.533534,-0.68152 0.843868,-1.22774 0.563215,-0.99132 0.90065,-2.09319 1.398193,-3.11589 0.676283,-1.5968 1.334599,-3.21849 2.232282,-4.70619 0,0 -3.426351,1.50016 -3.426351,1.50016 z" /><path
       style="fill:#000000;fill-opacity:1;fill-rule:nonzero;stroke:none"
       id="path418"
       d="m 64.810242,101.46924 c -1.030157,1.47051 -1.959698,3.01347 -2.893303,4.54719 -0.494052,0.8765 -0.989652,1.75145 -1.466963,2.63716 0,0 3.284028,-1.476 3.284028,-1.476 v 0 c 0.45857,-0.8757 0.929829,-1.74428 1.429476,-2.59747 0.954141,-1.56517 1.898794,-3.16179 3.090412,-4.56006 0,0 -3.44365,1.44918 -3.44365,1.44918 z" /><path
       style="fill:#000000;fill-opacity:1;fill-rule:nonzero;stroke:none"
       id="path420"
       d="m 69.868438,101.43588 c -0.872576,1.26781 -1.778326,2.51198 -2.629491,3.79436 -0.775426,1.30046 -1.709101,2.49446 -2.454472,3.81268 -0.08642,0.15733 -0.172838,0.31465 -0.259257,0.47198 0,0 3.350377,-1.50219 3.350377,-1.50219 v 0 c 0.08181,-0.15249 0.163623,-0.30497 0.245434,-0.45746 0.744878,-1.2949 1.652172,-2.4858 2.417982,-3.76865 0.875152,-1.30339 1.781089,-2.5893 2.758526,-3.818334 0,0 -3.429099,1.467614 -3.429099,1.467614 z" /><path
       style="fill:#000000;fill-opacity:1;fill-rule:nonzero;stroke:none"
       id="path422"
       d="m 73.401012,103.01069 c -0.534344,1.20479 -1.21573,2.3314 -1.87569,3.46931 -0.643766,0.97511 -1.170812,2.01746 -1.611074,3.098 0,0 3.35575,-1.54761 3.35575,-1.54761 v 0 c 0.438171,-1.0487 0.938232,-2.06631 1.560351,-3.02053 0.677133,-1.15984 1.326492,-2.33415 1.989803,-3.50075 0,0 -3.41914,1.50158 -3.41914,1.50158 z" /><path
       style="fill:#000000;fill-opacity:1;fill-rule:nonzero;stroke:none"
       id="path424"
       d="m 77.891964,105.10671 c -0.495293,0.97271 -0.931596,1.96856 -1.259091,3.01017 -0.130378,0.40887 -0.167022,0.8358 -0.210341,1.25986 0,0 3.311785,-1.64032 3.311785,-1.64032 v 0 c 0.05086,-0.40184 0.106015,-0.80311 0.23031,-1.19062 0.329892,-1.03825 0.776445,-2.02868 1.322882,-2.97199 0,0 -3.395545,1.5329 -3.395545,1.5329 z" /><path
       style="fill:#000000;fill-opacity:1;fill-rule:nonzero;stroke:none"
       id="path426"
       d="m 82.362121,107.60324 c -0.337825,1.06539 -0.694759,2.1238 -1.058348,3.18101 0,0 3.316924,-1.55532 3.316924,-1.55532 v 0 c 0.360769,-1.07342 0.70545,-2.15371 1.117269,-3.20883 0,0 -3.375845,1.58314 -3.375845,1.58314 z" /><path
       style="fill:#000000;fill-opacity:1;fill-rule:nonzero;stroke:none"
       id="path428"
       d="m 89.133503,107.04823 c -0.208197,0.80332 -0.446419,1.58873 -0.72965,2.36861 -0.05945,0.13563 -0.118895,0.27126 -0.178342,0.40689 0,0 3.349631,-1.54274 3.349631,-1.54274 v 0 c 0.05632,-0.14102 0.112637,-0.28204 0.168955,-0.42307 0.281138,-0.78677 0.481282,-1.59672 0.781859,-2.37537 0,0 -3.392453,1.56568 -3.392453,1.56568 z" /><path
       style="fill:#000000;fill-opacity:1;fill-rule:nonzero;stroke:none"
       id="path430"
       d="m 96.463573,105.80559 c -0.348752,1.0862 -0.946708,2.08395 -1.441554,3.11081 0,0 3.314391,-1.5045 3.314391,-1.5045 v 0 c 0.51928,-1.0657 1.14615,-2.09602 1.49537,-3.23347 0,0 -3.368207,1.62716 -3.368207,1.62716 z" /><path
       style="fill:#000000;fill-opacity:1;fill-rule:nonzero;stroke:none"
       id="path432"
       d="m 102.76001,106.04734 c -0.30368,0.7255 -0.7117,1.39432 -1.15046,2.04412 0,0 3.36107,-1.47309 3.36107,-1.47309 v 0 c 0.4289,-0.66946 0.78844,-1.37921 1.2304,-2.03818 0,0 -3.44101,1.46715 -3.44101,1.46715 z" /><path
       style="fill:#000000;fill-opacity:1;fill-rule:nonzero;stroke:none"
       id="path436"
       d="m 7.627858,107.66619 c -0.319217,0.80219 -0.565534,1.63099 -0.876253,2.43685 0,0 3.321696,-1.54501 3.321696,-1.54501 v 0 c 0.301844,-0.82787 0.577275,-1.66625 0.931236,-2.47419 0,0 -3.376679,1.58235 -3.376679,1.58235 z" /><path
       style="fill:#000000;fill-opacity:1;fill-rule:nonzero;stroke:none"
       id="path438"
       d="m 14.704957,107.91953 c -0.145266,0.66484 -0.39652,1.29662 -0.627304,1.93456 0,0 3.314712,-1.54658 3.314712,-1.54658 v 0 c 0.24092,-0.66715 0.494178,-1.33131 0.678091,-2.01722 0,0 -3.365499,1.62924 -3.365499,1.62924 z" /><path
       style="fill:#000000;fill-opacity:1;fill-rule:nonzero;stroke:none"
       id="path440"
       d="m 26.638235,103.9504 c 1.822269,-0.0524 3.645686,-0.0495 5.468558,-0.0565 2.259671,-0.0403 4.519962,0.0265 6.769802,0.24202 1.587671,0.15449 3.170803,0.33664 4.751538,0.54987 1.318837,0.18372 2.650739,0.2112 3.979851,0.23396 1.32938,0.0142 2.658876,0.0179 3.988328,0.0175 1.297983,0.004 2.595846,-0.002 3.893765,-0.0141 1.877163,-0.0277 3.754359,-0.0102 5.631532,0.002 1.34291,-0.007 2.686979,0.039 4.028763,-0.0244 1.197474,-0.10981 2.39507,-0.20459 3.596544,-0.25622 1.134313,-0.0372 2.269317,-0.0462 3.404161,-0.0453 0.977368,-0.001 1.954626,0.0105 2.931992,0.008 0.614633,4.9e-4 0.311574,-2e-4 0.909175,0.002 0,0 2.984605,-2.16826 2.984605,-2.16826 v 0 c -0.60158,0.002 -0.297136,0.001 -0.913331,0.001 -0.983335,-0.004 -1.966593,0.005 -2.949933,0.005 -1.137761,0.004 -2.275962,-0.006 -3.413226,0.0346 -1.207339,0.0442 -2.412987,0.12249 -3.613726,0.25913 -1.341731,0.10141 -2.689564,0.0254 -4.034179,0.0559 -1.879339,0.012 -3.758706,0.0299 -5.638038,0.003 -1.2877,-0.0118 -2.575325,-0.0163 -3.863074,-0.009 -1.332703,0.002 -2.665439,0.012 -3.998112,-0.003 -1.319513,-0.0191 -2.641142,-0.048 -3.953074,-0.20356 -1.599786,-0.19147 -3.197052,-0.38958 -4.802839,-0.52741 -2.268359,-0.21539 -4.549561,-0.25744 -6.827086,-0.24253 -1.771051,-0.007 -3.542739,-0.003 -5.313135,-0.0565 0,0 -3.018861,2.19334 -3.018861,2.19334 z" /><path
       style="fill:#000000;fill-opacity:1;fill-rule:nonzero;stroke:none"
       id="path442"
       d="m 14.063842,109.73403 c 1.503304,-0.0339 3.007308,-0.0365 4.510961,-0.0437 2.153555,-0.001 4.307124,-0.0109 6.460677,-0.007 1.592853,0.0174 3.185721,0.0213 4.778649,0.0234 1.839858,-7.1e-4 3.679606,-0.0218 5.51948,-0.0218 1.873363,0.008 3.746704,0.0137 5.620081,0.008 1.686897,0.002 3.373782,0.007 5.06068,0.009 1.373052,0.002 2.746073,0.009 4.119128,0.009 1.372171,-0.0468 2.737763,0.0966 4.105014,0.18491 1.678496,0.0988 3.36054,0.11613 5.04146,0.13269 1.431396,-0.003 2.860739,0.004 4.28903,0.0995 2.0962,0.13954 4.197568,0.16952 6.297565,0.19888 1.982176,0.0348 3.964474,0.042 5.94688,0.035 1.902583,0.0106 3.802033,-0.12273 5.701431,-0.2162 1.466896,-0.10247 2.938546,-0.0632 4.406165,-0.13413 1.549295,-0.13582 3.102566,-0.20921 4.651081,-0.35339 0.617938,-0.0642 1.23654,-0.12015 1.855738,-0.17038 0,0 2.945431,-2.1776 2.945431,-2.1776 v 0 c -0.6318,0.0539 -1.263723,0.10824 -1.892749,0.18965 -1.541617,0.16899 -3.08826,0.21396 -4.632243,0.35709 -1.464278,0.11119 -2.934784,0.041 -4.400807,0.13072 -1.911185,0.13797 -3.825434,0.30381 -5.743118,0.27392 -1.989795,-0.008 -3.97958,-0.001 -5.969353,-0.0128 -2.070827,-0.0277 -4.143877,-0.0609 -6.20867,-0.23452 -1.441338,-0.128 -2.878834,-0.1176 -4.325942,-0.1041 -1.672459,-0.01 -3.345861,-0.0248 -5.015828,-0.1253 -1.365486,-0.0921 -2.727433,-0.26515 -4.098232,-0.21936 -1.381656,4.3e-4 -2.763278,0.008 -4.144932,0.009 -1.694911,0.002 -3.389809,0.006 -5.08472,0.009 -1.881124,-0.005 -3.762211,4.1e-4 -5.643322,0.008 -1.819872,4e-5 -3.639614,-0.0211 -5.45947,-0.0218 -1.614391,0.002 -3.228723,0.006 -4.843042,0.0234 -2.146856,0.004 -4.293727,-0.006 -6.440586,-0.007 -1.463544,-0.007 -2.927487,-0.009 -4.390653,-0.0437 0,0 -3.015784,2.19109 -3.015784,2.19109 z" /><path
       style="fill:#000000;fill-opacity:1;fill-rule:nonzero;stroke:none"
       id="path444"
       d="m 31.160983,52.439934 c 0.945505,0.210455 1.860781,0.532773 2.803513,0.758344 0.771573,0.195674 1.533331,0.418946 2.276605,0.703975 1.032212,0.325192 1.974194,0.808187 2.903236,1.354709 0.848919,0.513714 1.762464,0.902475 2.658314,1.323767 0.649474,0.207511 1.293406,0.720905 2.002001,0.723783 0.165868,6.74e-4 0.345062,-0.01019 0.48887,-0.09284 1.224119,-0.703575 2.392231,-1.500387 3.588347,-2.250581 0.92735,-1.383784 1.520779,-2.965055 2.009569,-4.549072 0.339123,-0.841763 0.329887,-1.973641 1.075423,-2.588901 1.349939,-0.534485 -0.37929,0.136691 -2.762337,1.66718 -0.07571,0.04862 0.180147,-0.01875 0.269725,-0.01031 0.328308,0.03092 0.597376,0.147899 0.868349,0.323592 0.570971,0.722851 0.530881,1.726424 0.57305,2.6026 0.03698,1.092707 -0.151724,2.175916 -0.225622,3.264782 -0.03468,1.014971 0.254106,1.599772 1.212728,1.945295 1.181888,0.215063 2.39198,0.18826 3.583953,0.08818 1.162698,-0.118575 2.286019,-0.438906 3.405261,-0.758948 1.035602,-0.33947 2.072931,-0.671583 3.118598,-0.978887 1.033662,-0.326078 2.02876,-0.763423 3.035967,-1.162067 0.998672,-0.377684 1.970084,-0.820127 2.90466,-1.335741 1.776308,-0.984685 3.723758,-1.765353 5.2569,-3.112057 0.588936,-0.40418 1.06611,-0.929482 1.570985,-1.427567 0.31472,-0.382224 0.654665,-0.720556 1.051712,-1.015129 0.961032,-0.783749 2.878573,-1.785122 -2.550427,1.43452 -0.279704,0.165878 0.39806,-0.188113 0.682969,-0.23896 0.740571,0.304174 0.815139,1.415712 0.923315,2.099231 0.125043,1.22178 0.138884,2.447578 0.252395,3.67068 0.186342,1.174112 0.349866,2.350008 0.577877,3.516626 0.264537,1.048808 0.546579,2.092291 0.823675,3.137834 0.290238,1.150322 0.382043,2.335442 0.557967,3.506008 0.147555,0.909641 0.20741,1.829009 0.235329,2.749022 0.05467,0.534813 -0.09643,0.929579 -0.51682,1.246001 -1.082417,1.148472 -3.720171,2.495538 1.673068,-0.662575 -0.791257,0.357523 -1.690871,0.332745 -2.542735,0.355297 -1.102587,0.0228 -2.205354,0.0054 -3.308017,0.006 -1.691294,0.02462 -3.378397,0.171011 -5.068052,0.249539 -1.394424,0.04213 -2.789768,0.11063 -4.184464,0.0569 -1.498629,-0.121113 -2.998839,-0.206526 -4.501468,-0.254793 -1.45089,-0.03886 -2.902301,-0.05359 -4.353655,-0.04645 -1.840959,0.0314 -3.682023,0.0065 -5.523047,0.0035 -1.751577,0.02137 -3.507664,0.104937 -5.252353,0.266688 -1.304392,0.136655 -2.604926,0.293276 -3.902765,0.481848 -0.905424,0.149251 -1.821059,0.198656 -2.736891,0.223714 -0.660742,5.03e-4 -1.325251,0.06061 -1.979103,-0.05417 -0.657268,-0.218986 -0.902896,-0.950314 -1.138407,-1.540398 -0.370321,-1.126924 -0.424019,-2.319434 -0.471597,-3.494969 -0.03841,-1.215698 -0.02551,-2.432089 -0.02408,-3.648159 0.02715,-1.059612 0.234156,-2.085967 0.464482,-3.114702 0.230412,-0.775354 0.424143,-1.557188 0.685222,-2.323995 0.259874,-0.732968 0.577978,-1.441244 0.821436,-2.182433 0.04898,-0.121362 0.09796,-0.242724 0.146947,-0.364086 0,0 -3.355224,1.555769 -3.355224,1.555769 v 0 c -0.04715,0.126027 -0.0943,0.252055 -0.141449,0.378083 -0.261121,0.731249 -0.577813,1.4411 -0.813306,2.181248 -0.257166,0.778101 -0.459221,1.571003 -0.670037,2.362556 -0.21506,1.045137 -0.366306,2.098502 -0.397123,3.167365 -0.0031,1.220899 -0.0037,2.442232 0.03289,3.662679 0.05888,1.214957 0.134286,2.44524 0.508763,3.611229 0.277478,0.72755 0.564477,1.498332 1.2946,1.878329 0.677362,0.155511 1.35793,0.127222 2.050763,0.107073 0.931579,-0.02559 1.867332,-0.05391 2.788584,-0.20529 1.305797,-0.20788 2.613228,-0.378657 3.927857,-0.521079 1.734215,-0.208514 3.48952,-0.28607 5.235018,-0.301427 1.838795,-0.0044 3.677643,-0.03193 5.516376,6.84e-4 1.450019,0.01079 2.900245,0.0012 4.350012,0.03611 1.497728,0.04242 2.993926,0.11854 4.486231,0.256453 1.408779,0.08939 2.821094,0.02023 4.229995,-0.04589 1.66862,-0.08097 3.336943,-0.227584 5.007491,-0.228008 1.100184,0.007 2.200445,0.0042 3.300644,0.009 0.872904,-0.0089 1.762401,-0.0018 2.617133,-0.196991 1.85844,-1.069587 3.309472,-1.662625 4.676093,-3.092823 0.349219,-0.445024 0.416003,-0.953664 0.356885,-1.510942 -0.04718,-0.927246 -0.125945,-1.853943 -0.286446,-2.769272 -0.188191,-1.180431 -0.279919,-2.377393 -0.573666,-3.53896 -0.263003,-1.042726 -0.563036,-2.07473 -0.807197,-3.122141 -0.227682,-1.150951 -0.419175,-2.308366 -0.583739,-3.47015 -0.10645,-1.234275 -0.100183,-2.473514 -0.24679,-3.704161 -0.158565,-0.927948 -0.307861,-1.973467 -1.133636,-2.554763 -0.284003,-0.06618 -0.539281,-0.07149 -0.808401,0.07885 -1.461048,0.81617 -2.656014,1.327063 -3.820455,2.288564 -0.372194,0.314743 -0.672106,0.702409 -1.01725,1.045725 -0.49617,0.495129 -1.003459,0.973595 -1.572181,1.386856 -1.059918,0.781152 -2.918905,1.7568 2.225168,-1.195157 0.114668,-0.0658 -0.229046,0.132411 -0.347183,0.191759 -1.145683,0.575552 0.345119,-0.221358 -0.843785,0.42388 -0.917478,0.545129 -1.883883,1.001044 -2.87942,1.385359 -1.009385,0.387025 -2.002373,0.816788 -3.016657,1.188255 -1.045996,0.300323 -2.090552,0.607169 -3.114255,0.977236 -1.114055,0.319819 -2.223414,0.669108 -3.376152,0.823526 -1.152917,0.112069 -2.310194,0.162809 -3.462481,-0.0033 -0.901113,-0.201852 -1.00538,-0.594879 -0.988651,-1.497679 0.0903,-1.096772 0.259853,-2.19347 0.190666,-3.29662 -0.04415,-1.008992 -0.02682,-2.085607 -0.683043,-2.917379 -1.645995,-1.327491 -3.412547,-0.07355 -4.944058,1.451982 -0.534005,0.802206 -0.603535,1.802764 -0.925088,2.694525 -0.476569,1.551032 -1.048341,3.131471 -2.107827,4.385917 0.897394,-0.470056 1.788423,-0.95247 2.692182,-1.41017 0.133682,-0.0677 -0.235452,0.201726 -0.38048,0.239431 -0.642227,0.166968 -1.363064,-0.454099 -1.935085,-0.627624 -0.886265,-0.434555 -1.810092,-0.789828 -2.669484,-1.279079 -0.93877,-0.555504 -1.845802,-1.123614 -2.910424,-1.41439 -0.747975,-0.321636 -1.508899,-0.576726 -2.302716,-0.76161 -0.944207,-0.190445 -1.863368,-0.465424 -2.76898,-0.792904 0,0 -3.065292,2.137592 -3.065292,2.137592 z" /><path
       style="fill:#000000;fill-opacity:1;fill-rule:nonzero;stroke:none"
       id="path452"
       d="m 72.901427,38.729746 c 0.528802,1.62691 1.223802,3.197327 1.906581,4.764694 0.723606,1.651593 1.297322,3.345342 1.598342,5.123496 0.228605,1.024691 0.384863,2.05781 0.454547,3.104728 0.05788,1.087775 0.04309,2.177424 0.04574,3.266243 0.01658,1.126878 0.03108,2.246501 -0.112379,3.365353 -0.08171,0.582897 -0.04302,0.297502 -0.11641,0.856139 0,0 3.313467,-1.637185 3.313467,-1.637185 v 0 c 0.06437,-0.553827 0.03165,-0.26993 0.09808,-0.851701 0.109551,-1.130724 0.07974,-2.264031 0.08754,-3.398997 0.0022,-1.096678 -0.009,-2.19373 -0.0533,-3.289599 -0.06993,-1.058473 -0.250357,-2.094465 -0.510699,-3.123504 -0.359328,-1.78718 -0.963331,-3.491274 -1.709221,-5.154822 -0.666242,-1.554518 -1.365619,-3.125555 -1.705999,-4.789543 0,0 -3.296278,1.764698 -3.296278,1.764698 z" /><path
       style="fill:#000000;fill-opacity:1;fill-rule:nonzero;stroke:none"
       id="path454"
       d="m 33.207525,38.775902 c -0.467759,1.222367 -0.843026,2.476845 -1.237046,3.724484 -0.625109,1.712657 -0.998678,3.49918 -1.537831,5.236762 -0.379488,1.262002 -0.909319,2.472198 -1.456207,3.669003 -0.532412,1.299868 -0.987475,2.631854 -1.405676,3.972565 -0.378541,1.253968 -0.658085,2.518036 -0.79465,3.820625 -0.08578,1.273503 -0.180928,2.543784 0.0313,3.807157 0.139154,0.862466 0.620666,1.495448 1.151651,2.147221 0,0 3.185108,-1.908209 3.185108,-1.908209 v 0 c -0.489614,-0.597178 -0.977766,-1.150799 -1.103557,-1.950287 -0.178941,-1.233013 -0.103887,-2.478789 0.0062,-3.716538 0.153122,-1.276117 0.442425,-2.519782 0.81322,-3.750558 0.428231,-1.327249 0.870087,-2.653511 1.425777,-3.933765 0.546565,-1.204979 1.081013,-2.422158 1.41629,-3.706163 0.492578,-1.74579 0.889037,-3.518887 1.526928,-5.221773 0.419677,-1.269769 0.829647,-2.544129 1.356564,-3.774652 0,0 -3.378024,1.584128 -3.378024,1.584128 z" /><path
       style="fill:#000000;fill-opacity:1;fill-rule:nonzero;stroke:none"
       id="path460"
       d="m 26.563004,62.371948 c -0.332002,0.774015 -0.693711,1.531098 -0.896272,2.35127 -0.17691,0.918326 -0.198201,1.854017 -0.222051,2.785728 0.0067,0.718393 0.396904,1.204292 0.998264,1.542183 0.327549,0.162182 0.685843,0.203464 1.044056,0.237934 0,0 3.028757,-2.168694 3.028757,-2.168694 v 0 c -0.323123,-0.01323 -0.650467,-0.02118 -0.961304,-0.121264 -0.530414,-0.212476 -0.81939,-0.566111 -0.815956,-1.159765 0.01467,-0.905479 0.04524,-1.819079 0.260233,-2.703103 0.240135,-0.793017 0.574994,-1.557728 0.973286,-2.284001 0,0 -3.409013,1.519712 -3.409013,1.519712 z" /><path
       style="fill:#000000;fill-opacity:1;fill-rule:nonzero;stroke:none"
       id="path462"
       d="m 78.105019,56.394725 c 0.0078,0.967225 0.242457,1.892202 0.542725,2.803497 0.296864,0.741802 0.732603,1.41269 0.981389,2.17472 0.166539,0.648138 0.169508,1.307469 0.0908,1.966278 -0.13633,0.557761 -0.375241,1.078064 -0.749285,1.515703 -0.198146,0.278135 -0.09194,0.151102 -0.315418,0.383744 0,0 3.435021,-1.455813 3.435021,-1.455813 v 0 c 0.198586,-0.264222 0.09896,-0.129324 0.298681,-0.404843 0.329352,-0.518772 0.577186,-1.075841 0.656242,-1.69135 0.05836,-0.707976 0.02101,-1.420499 -0.163494,-2.109844 -0.272918,-0.749727 -0.712844,-1.415207 -1.009281,-2.154375 -0.296716,-0.882281 -0.514414,-1.785428 -0.435115,-2.725592 0,0 -3.332269,1.697875 -3.332269,1.697875 z" /><path
       style="fill:#000000;fill-opacity:1;fill-rule:nonzero;stroke:none"
       id="path468"
       d="m 32.457609,73.959716 c 0.261631,1.743279 0.281993,3.512726 0.3194,5.271909 0.03701,1.67812 0.01735,3.356547 -0.009,5.034611 -0.0068,0.420477 -0.01278,0.840961 -0.01784,1.261462 0,0 3.301158,-1.681612 3.301158,-1.681612 v 0 c -0.0042,-0.414932 -0.0094,-0.829851 -0.017,-1.244738 -0.03162,-1.664164 -0.06758,-3.328245 -0.089,-4.992591 -0.03865,-1.795719 -0.06778,-3.593516 -0.195963,-5.385525 0,0 -3.291722,1.736484 -3.291722,1.736484 z" /><path
       style="fill:#000000;fill-opacity:1;fill-rule:nonzero;stroke:none"
       id="path470"
       d="m 38.737619,77.512422 c 0.104246,2.206868 -0.140362,4.41099 -0.342326,6.605629 0,0 3.174445,-1.583342 3.174445,-1.583342 v 0 c 0.177775,-2.229233 0.387742,-4.456904 0.447974,-6.693577 0,0 -3.280093,1.67129 -3.280093,1.67129 z" /><path
       style="fill:#000000;fill-opacity:1;fill-rule:nonzero;stroke:none"
       id="path472"
       d="m 45.149484,74.195934 c 0.234957,2.034324 0.264925,4.086027 0.299599,6.131464 0,0 3.102765,-1.588641 3.102765,-1.588641 v 0 c -0.04676,-2.083969 -0.0794,-4.168188 -0.121981,-6.252242 0,0 -3.280383,1.709419 -3.280383,1.709419 z" /><path
       style="fill:#000000;fill-opacity:1;fill-rule:nonzero;stroke:none"
       id="path474"
       d="m 52.329599,74.647153 c -0.100776,2.434998 -0.294638,4.86796 -0.515994,7.295424 -0.114477,1.191624 -0.21076,2.384855 -0.307234,3.57803 0,0 3.19263,-1.600152 3.19263,-1.600152 v 0 c 0.06087,-1.17784 0.129167,-2.355268 0.228862,-3.53061 0.20743,-2.479276 0.421617,-4.957749 0.710993,-7.428843 0,0 -3.309257,1.686151 -3.309257,1.686151 z" /><path
       style="fill:#000000;fill-opacity:1;fill-rule:nonzero;stroke:none"
       id="path476"
       d="m 60.945492,73.995722 c -0.352463,1.925617 -0.666074,3.858028 -0.972003,5.791536 -0.209499,1.457021 -0.423379,2.913578 -0.685876,4.36202 0,0 3.216642,-1.570886 3.216642,-1.570886 v 0 c 0.232264,-1.442984 0.428725,-2.891389 0.62987,-4.339022 0.317701,-1.971833 0.644935,-3.946239 1.17462,-5.874509 0,0 -3.363253,1.630861 -3.363253,1.630861 z" /><path
       style="fill:#000000;fill-opacity:1;fill-rule:nonzero;stroke:none"
       id="path478"
       d="m 66.843302,75.931267 c -0.441723,1.961772 -0.948486,3.910723 -1.459398,5.855956 0,0 3.102374,-1.480845 3.102374,-1.480845 v 0 c 0.537982,-2.013996 1.115305,-4.014804 1.709147,-6.012606 0,0 -3.352123,1.637495 -3.352123,1.637495 z" /><path
       style="fill:#000000;fill-opacity:1;fill-rule:nonzero;stroke:none"
       id="path480"
       d="m 74.164043,74.736559 c 0.02709,2.394851 -0.253915,4.774428 -0.593876,7.14043 -0.236223,1.479053 -0.120883,0.768248 -0.345231,2.132544 0,0 3.212623,-1.577451 3.212623,-1.577451 v 0 c 0.179774,-1.345919 0.08515,-0.643561 0.284319,-2.107017 0.318304,-2.416308 0.554916,-4.841245 0.744131,-7.270941 0,0 -3.301966,1.682435 -3.301966,1.682435 z" /><path
       style="fill:#000000;fill-opacity:1;fill-rule:nonzero;stroke:none"
       id="path482"
       d="m 61.97928,62.609554 c -0.565222,0.374325 -1.105452,0.776626 -1.520908,1.31743 -0.393601,0.560405 -0.595367,1.195811 -0.682597,1.867351 -0.103492,0.661947 0.273777,1.155948 0.736521,1.580228 0.576742,0.431619 1.188463,0.737483 1.888656,0.899433 0.735348,0.156926 1.468999,0.148497 2.20236,-10e-7 1.84833,-0.632084 3.479836,-1.785561 5.143613,-2.764407 0.557283,-0.50438 1.195299,-0.919708 1.722089,-1.455951 0.375043,-0.479913 0.59715,-1.023894 0.727273,-1.613739 0.137807,-0.685981 -0.193607,-1.245879 -0.738347,-1.629233 -0.729029,-0.303953 -1.528702,-0.441409 -2.305563,-0.579806 -0.555385,-0.09086 -1.101748,-0.04671 -1.631668,0.133201 -0.701361,0.351683 -1.470946,0.542565 -2.225167,0.744941 -0.164962,0.04677 -0.329924,0.09354 -0.494886,0.140317 0,0 -2.908153,2.246456 -2.908153,2.246456 v 0 c 0.162929,-0.05253 0.325858,-0.105065 0.488788,-0.157598 0.751119,-0.17666 1.502174,-0.369022 2.225194,-0.639526 0.446442,-0.319012 0.979841,-0.352495 1.515936,-0.340274 0.745914,0.109939 1.486194,0.272452 2.212601,0.467992 0.49423,0.24773 0.650915,0.69105 0.500385,1.222034 -0.155215,0.5332 -0.397807,1.027908 -0.805112,1.417002 -0.560572,0.4834 -1.13047,0.959541 -1.730681,1.392787 5.532604,-3.15929 2.614004,-1.406187 1.244979,-0.839847 -0.688237,0.228803 -1.386818,0.257616 -2.102368,0.137316 -0.662401,-0.1131 -1.224682,-0.357267 -1.778949,-0.741307 -0.408231,-0.335538 -0.657076,-0.717488 -0.543449,-1.259528 0.112629,-0.614917 0.335155,-1.188791 0.748016,-1.669537 0.475061,-0.48898 1.042013,-0.862912 1.580789,-1.277699 0,0 -3.469352,1.401965 -3.469352,1.401965 z" /><path
       style="fill:#000000;fill-opacity:1;fill-rule:nonzero;stroke:none"
       id="path484"
       d="m 39.070069,66.135563 c 1.8148,-0.03692 3.627713,-0.05945 5.44091,-0.150888 2.269468,-0.06687 4.531903,-0.251229 6.796697,-0.400514 1.487583,-0.09939 2.978071,-0.09777 4.463546,-0.226472 0,0 2.93066,-2.172891 2.93066,-2.172891 v 0 c -1.499065,0.161075 -3.003562,0.166087 -4.50724,0.270774 -2.277467,0.169601 -4.551296,0.393053 -6.836169,0.440398 -1.753667,0.07124 -3.506542,0.131958 -5.261216,0.04021 0,0 -3.027188,2.199381 -3.027188,2.199381 z" /><path
       style="fill:#000000;fill-opacity:1;fill-rule:nonzero;stroke:none"
       id="path486"
       d="m 45.708731,62.755478 c 1.89226,0.110579 3.781317,-0.05156 5.658692,-0.276308 1.62826,-0.222609 3.219378,-0.611051 4.773179,-1.139856 0.197364,-0.0755 0.394727,-0.151004 0.592091,-0.226506 0,0 2.870613,-2.255157 2.870613,-2.255157 v 0 c -0.195151,0.07937 -0.390303,0.158737 -0.585454,0.238105 -1.557861,0.570475 -3.151886,1.004859 -4.795224,1.253241 -1.811818,0.244378 -3.648521,0.443801 -5.47511,0.240407 0,0 -3.038787,2.166074 -3.038787,2.166074 z" /><path
       style="fill:#000000;fill-opacity:1;fill-rule:nonzero;stroke:none"
       id="path492"
       d="M 8.8301969,8.4930788 C 7.9536959,7.6926757 7.0543279,6.9183554 6.1791079,6.1164681 5.5284449,5.469393 4.9633569,4.7484938 4.4780829,3.9713714 4.4359029,3.8791194 4.3831329,3.791009 4.3515469,3.6946142 4.2632769,3.4252044 4.4531119,3.3321596 4.6754019,3.218928 c 0.135213,-0.068876 0.544251,-0.2656204 0.416546,-0.1836569 -0.84447,0.5419942 -1.713839,1.0441765 -2.570758,1.5662647 1.98993,-0.5841217 4.092913,-0.6094667 6.151209,-0.6676717 2.1058071,-0.042974 4.2121771,-0.037147 6.3182701,-0.027015 1.361122,0.031883 2.724118,-0.00106 4.084352,0.05658 1.665221,0.1174669 3.332492,0.2003863 5.000876,0.2551683 1.905784,0.010934 3.800176,0.2347357 5.695293,0.4103688 2.086592,0.1908971 4.181691,0.2445784 6.275629,0.2767662 1.529031,0.03337 3.058263,0.036966 4.587559,0.035439 1.86073,-0.00458 3.721398,-0.020382 5.5821,-0.030285 2.457296,0.00186 4.899311,0.2826537 7.34605,0.4680035 2.084917,0.1364588 4.16467,0.3300596 6.251069,0.4464275 1.836793,0.098544 3.676784,0.1013999 5.515652,0.1062445 1.70681,0.00305 3.413521,0.014935 5.120331,0.00578 2.058895,-0.014234 4.117774,-0.015559 6.176701,-0.012873 1.427146,-0.00243 2.854097,0.025846 4.281181,0.031645 1.36634,-0.010548 2.72725,-0.157811 4.090561,-0.2406296 1.165502,-0.1237874 2.327399,-0.2740963 3.496551,-0.3606825 1.474193,-0.045553 2.94473,-0.1351482 4.416192,-0.2353151 1.252603,-0.046923 2.490156,-0.253326 3.73689,-0.3668461 1.296236,-0.046292 2.579956,-0.1864346 3.865004,-0.3574381 1.2127,-0.1457693 2.42432,-0.272547 3.62649,-0.4901318 0.6349,-0.1204883 1.2688,-0.221129 1.9124,-0.1342079 0.70712,0.2204655 1.37196,0.639649 1.75775,1.2845071 0.0248,0.3214842 -0.32054,0.5135916 -0.54763,0.69562 -0.49149,0.4197107 -1.00198,0.7940139 -1.44817,1.2637413 -0.23312,0.2149267 -0.46391,0.4261259 -0.72718,0.6042221 -0.11395,0.077087 -0.4672,0.2906254 -0.34802,0.2218929 3.33984,-1.9261266 3.49384,-1.9949932 2.04408,-1.2323492 -0.88476,0.4192197 -0.44471,0.2222265 -1.31939,0.5926522 0,0 -2.85511,2.2504591 -2.85511,2.2504591 v 0 c 0.88983,-0.359062 0.44411,-0.169344 1.33672,-0.5701593 1.86602,-0.9134308 3.81162,-1.8153216 5.29903,-3.2877602 0.46802,-0.4450701 1.00134,-0.8116211 1.47212,-1.2545052 0.32636,-0.3336359 0.53056,-0.7004185 0.31599,-1.1629697 -0.46634,-0.6980896 -1.18477,-1.1731841 -1.93685,-1.5229904 -0.6712,-0.1835233 -1.3301,-0.1173768 -2.00747,0.025535 -1.22422,0.2352871 -2.44842,0.4414351 -3.69088,0.5632298 -1.26435,0.1630272 -2.52364,0.2927948 -3.79829,0.3268248 -1.266088,0.1091016 -2.51693,0.3331391 -3.785273,0.4118401 -1.453955,0.09875 -2.90556,0.1902339 -4.363281,0.1970564 -1.176261,0.069106 -2.343075,0.2263323 -3.511846,0.3724146 -1.351004,0.094374 -2.702628,0.24225 -4.057002,0.2457011 -1.456221,0.00583 -2.912313,0.033822 -4.368593,0.031824 -2.04867,0.003 -4.097292,0.00215 -6.14594,-0.00974 -1.711873,-0.00697 -3.423631,0.01032 -5.135499,0.007 C 66.393828,3.8176893 64.55639,3.8084273 62.720567,3.7357623 60.626501,3.6395803 58.540985,3.4428081 56.449281,3.3133723 53.994154,3.1425464 51.54442,2.886109 49.08259,2.8284405 c -1.835971,-0.00908 -3.671917,-0.023799 -5.507926,-0.023912 -1.545385,0.00124 -3.090751,0.00868 -4.636128,0.00636 C 36.847978,2.7851906 34.755842,2.7437487 32.671888,2.5620504 30.785482,2.3882676 28.903384,2.1193245 27.006355,2.1022543 25.347208,2.0619192 23.687881,1.9990842 22.035171,1.8401372 20.655621,1.7306966 19.271065,1.8149262 17.8884,1.8021742 c -2.117229,0.0039 -4.234734,-0.00474 -6.351641,0.038356 -2.0509252,0.056652 -4.1267651,0.073297 -6.1400311,0.5096616 -1.247282,0.6686946 -2.504412,1.3193354 -3.741846,2.0060838 -0.650199,0.3608464 -0.75520499,0.8717034 -0.373495,1.4768845 0.509159,0.803792 1.108754,1.5428249 1.792629,2.2060647 0.870125,0.7880472 1.772498,1.5485655 2.580433,2.3999542 0,0 3.175748,-1.9461002 3.175748,-1.9461002 z" /></g></svg>
