<?xml version="1.0" encoding="UTF-8" standalone="no"?>
<!-- Created with Inkscape (http://www.inkscape.org/) -->

<svg
   width="64"
   height="64"
   viewBox="0 0 16.933333 16.933334"
   version="1.1"
   id="svg5"
   inkscape:version="1.1.1 (3bf5ae0d25, 2021-09-20)"
   sodipodi:docname="need_a_platform.svg"
   inkscape:export-filename="/home/rpolzer/need_a_platform.png"
   inkscape:export-xdpi="96"
   inkscape:export-ydpi="96"
   xmlns:inkscape="http://www.inkscape.org/namespaces/inkscape"
   xmlns:sodipodi="http://sodipodi.sourceforge.net/DTD/sodipodi-0.dtd"
   xmlns="http://www.w3.org/2000/svg"
   xmlns:svg="http://www.w3.org/2000/svg">
  <sodipodi:namedview
     id="namedview7"
     pagecolor="#ffffff"
     bordercolor="#666666"
     borderopacity="1.0"
     inkscape:pageshadow="2"
     inkscape:pageopacity="0.0"
     inkscape:pagecheckerboard="0"
     inkscape:document-units="px"
     showgrid="false"
     units="px"
     width="64px"
     inkscape:zoom="5.5304153"
     inkscape:cx="35.621195"
     inkscape:cy="33.99383"
     inkscape:window-width="1024"
     inkscape:window-height="600"
     inkscape:window-x="0"
     inkscape:window-y="0"
     inkscape:window-maximized="1"
     inkscape:current-layer="layer1" />
  <defs
     id="defs2" />
  <g
     inkscape:label="Layer 1"
     inkscape:groupmode="layer"
     id="layer1">
    <g
       id="g101"
       transform="translate(0,0.0336012)">
      <g
         id="g66"
         transform="translate(-0.6664568,0.11628484)">
        <path
           style="fill:#000000;fill-opacity:1;fill-rule:nonzero;stroke:none;stroke-width:0.264583"
           id="path81"
           d="M 2.440706,5.9585129 C 2.537345,6.510566 2.52746,7.0767598 2.525834,7.6355164 2.5266277,8.0069589 2.501881,8.3775925 2.492268,8.7487389 c 0.00934,0.2306913 0.049417,0.4592318 0.095571,0.6850772 0.054306,0.2109197 0.1118642,0.4233492 0.2072364,0.6196989 0.1087602,0.199301 0.2522136,0.314557 0.4524039,0.413905 0.2515659,0.09931 0.5228464,0.134216 0.7885883,0.175623 0.3966623,0.05819 0.7956921,0.09867 1.1930732,0.152362 0.4573921,0.07878 0.9168832,0.139258 1.3800471,0.169022 0.4555771,0.02159 0.9118685,0.01852 1.3678348,0.02066 0.3905075,0.0018 0.7810085,0.0043 1.1715218,0.0043 0.3821261,9.79e-4 0.7640919,3.7e-4 1.1459605,-0.0143 0.315416,-0.01318 0.63102,-0.02126 0.946688,-0.02455 0.306267,-0.0115 0.611618,-0.03875 0.916281,-0.07123 0.32439,-0.02932 0.646975,-0.07506 0.959326,-0.168726 0.549601,-0.204222 1.043833,-0.51361 1.407026,-0.9646751 0.155211,-0.2034823 0.253265,-0.4424392 0.346197,-0.6789217 0.104268,-0.2947162 0.121478,-0.6077331 0.165597,-0.9144558 0.01484,-0.1031425 0.03258,-0.2058453 0.04887,-0.3087677 0.09017,-0.5217668 0.237018,-1.0307987 0.360211,-1.5450895 0.06432,-0.2841424 0.05698,-0.5774692 0.06063,-0.8670568 0.0036,-0.1122968 0.0024,-0.059414 0.004,-0.1586412 0,0 -0.865484,0.4442148 -0.865484,0.4442148 v 0 c 0.0074,0.093185 0.0034,0.043659 0.01192,0.1485749 0.01056,0.2802289 0.0106,0.5625775 -0.04963,0.838069 -0.09602,0.5083779 -0.189604,1.0171373 -0.30542,1.5215627 -0.04076,0.1971284 -0.08304,0.393944 -0.122856,0.5912644 -0.04411,0.2186062 -0.08243,0.4392954 -0.167129,0.6470844 -0.09685,0.2298948 -0.199185,0.4604739 -0.360986,0.6533576 -0.08427,0.09699 -0.169693,0.18901 -0.269531,0.270577 -0.235521,0.19242 -0.652832,0.397595 0.599085,-0.316816 0.03872,-0.0221 -0.07906,0.04123 -0.118596,0.06185 -0.307327,0.112273 -0.630869,0.163507 -0.956203,0.191578 -0.298913,0.03197 -0.59866,0.05187 -0.898771,0.06874 -0.322981,0.0076 -0.645727,0.02073 -0.968358,0.03771 -0.379643,0.01607 -0.759062,0.01673 -1.1390295,0.01374 -0.3954709,7.67e-4 -0.7909174,0.0048 -1.1863824,0.0068 -0.4535618,0.0012 -0.9072923,2.65e-4 -1.3605204,-0.01942 C 6.8863595,10.406681 6.4226836,10.361966 5.9641278,10.277518 5.5786577,10.21697 5.1924814,10.161025 4.8070409,10.10057 4.550699,10.06217 4.2908692,10.024883 4.0447887,9.9413279 3.8570266,9.8530368 3.7334109,9.7648159 3.6344173,9.5766337 3.5420793,9.3887483 3.4677293,9.1923272 3.4236986,8.9871304 3.3811391,8.7649425 3.3568583,8.5400491 3.3450293,8.3141161 3.334692,7.9558811 3.3054196,7.5984988 3.3000633,7.2400387 3.2865034,6.6589639 3.2761741,6.0769888 3.3117182,5.4964353 c 0,0 -0.8710127,0.4620776 -0.8710122,0.4620776 z" />
        <path
           style="fill:#000000;fill-opacity:1;fill-rule:nonzero;stroke:none;stroke-width:0.264583"
           id="path87"
           d="m 1.4231631,5.7352932 c 0.042002,0.016692 0.082855,0.036633 0.1260067,0.050078 0.1694697,0.052804 0.3998121,0.099405 0.5667683,0.1351103 0.374455,0.080081 0.7503043,0.1504233 1.1269075,0.2195124 0.3230608,0.060412 0.6475026,0.1195236 0.9759709,0.1415089 0.3001214,0.020087 0.6015821,0.00837 0.9018575,9.261e-4 0.5733987,-0.019323 1.1471421,-0.020847 1.7199962,-0.053672 0.5984886,-0.04676 1.1984226,-0.065295 1.7984547,-0.076166 0.6369371,-0.02304 1.2737714,-0.044742 1.9110941,-0.053374 0.699113,-0.014986 1.395776,-0.086202 2.092382,-0.1436481 0.591938,-0.051863 1.184668,-0.090755 1.777691,-0.1272469 0.371227,-0.020907 0.743314,-0.049975 1.115156,-0.029543 0.116634,0.00398 0.231456,0.018325 0.339891,0.062191 0.05168,0.018209 0.09986,0.044125 0.149273,0.067407 0,0 0.818472,-0.5464625 0.818472,-0.5464625 v 0 c -0.05251,-0.01892 -0.09824,-0.049794 -0.151466,-0.066358 -0.133589,-0.056592 -0.232239,-0.080264 -0.381942,-0.074963 -0.391271,-0.00784 -0.7808,0.040687 -1.171364,0.058792 -0.602506,0.042413 -1.204656,0.08605 -1.805791,0.1458335 -0.693208,0.061951 -1.387648,0.1230374 -2.083361,0.1447234 -0.632537,0.00874 -1.265178,0.016375 -1.8972938,0.042701 C 8.7527439,5.6449673 8.1537111,5.6648518 7.5555969,5.7027251 6.9809134,5.7391132 6.4050578,5.7438188 5.8296708,5.7646204 5.1962112,5.7803578 4.5612522,5.7886683 3.9376081,5.6537229 3.5665117,5.5894257 3.1964009,5.5264544 2.8326139,5.4270716 2.6961116,5.3897804 2.4822653,5.3257197 2.3445504,5.261449 2.3137944,5.247095 2.2872314,5.225086 2.2585724,5.206904 c 0,0 -0.8354088,0.5283891 -0.8354093,0.5283892 z" />
        <path
           style="fill:#000000;fill-opacity:1;fill-rule:nonzero;stroke:none;stroke-width:0.264583"
           id="path99"
           d="M 8.1452217,6.7037857 C 7.9013473,6.9231356 7.6582738,7.1434409 7.4419332,7.3906824 7.3031556,7.5492824 7.2374921,7.6407702 7.111181,7.8062198 6.9437564,8.049393 6.7520258,8.2822888 6.6328575,8.55464 c -0.056444,0.1441776 -0.022119,0.293568 0.01846,0.4370192 0.057979,0.1920285 0.1691288,0.3608679 0.2801718,0.5258274 0.2126845,0.2965828 0.497401,0.4338635 0.8229145,0.5748844 0.2368002,0.08739 0.4740508,0.188287 0.7270496,0.218549 0.143959,0.01722 0.1905452,0.0071 0.3343852,-0.003 0.052823,-0.0098 0.106463,-0.01588 0.1584693,-0.02935 0.3647749,-0.09446 1.1707231,-0.655397 1.2399851,-0.7012033 0.01373,-0.00908 0.241564,-0.253297 0.251758,-0.2641621 0.192555,-0.2243069 0.403372,-0.4393253 0.535063,-0.7077242 0.02786,-0.056789 0.04932,-0.1165035 0.07398,-0.1747552 0.117023,-0.3394628 0.201454,-0.7033326 0.192335,-1.065171 -0.0017,-0.068651 -0.01282,-0.1367456 -0.01924,-0.2051185 -0.01604,-0.062645 -0.02509,-0.1275122 -0.04813,-0.1879343 C 11.104461,6.7217786 10.873661,6.5159902 10.623535,6.4249775 10.52958,6.3907904 10.429931,6.374952 10.333129,6.349939 9.6851015,6.2361756 9.0256217,6.2857665 8.3872625,6.429481 8.3227025,6.455074 8.2581421,6.480666 8.1935819,6.506259 c 0,0 -0.71716,0.5683446 -0.71716,0.5683446 v 0 C 7.5404371,7.0430421 7.604452,7.011481 7.6684671,6.9799199 8.3023249,6.7970642 8.9495982,6.7154781 9.6028952,6.8512073 c 0.085764,0.025014 0.1737997,0.04326 0.2572938,0.075042 0.225021,0.085652 0.437628,0.2584617 0.52659,0.4871276 0.02154,0.05536 0.03057,0.1148032 0.04586,0.1722048 0.006,0.064034 0.01632,0.1278102 0.01788,0.1921018 0.0086,0.3557532 -0.08217,0.710251 -0.216074,1.0368307 -0.02768,0.056034 -0.05281,0.1133983 -0.08303,0.1681033 C 10.00973,9.2390838 9.8034477,9.4515635 9.6110877,9.6695247 9.5684583,9.7131912 9.5270997,9.7581355 9.4831992,9.8005238 9.440115,9.842124 9.2958012,9.9463233 9.3502493,9.9213786 9.5769305,9.8175278 9.7852034,9.677351 10.005786,9.5611079 10.05486,9.5352476 9.9142042,9.624182 9.8651314,9.6500452 9.7442245,9.713768 9.6967852,9.7179699 9.5657871,9.7519133 9.4462571,9.7667458 9.3633538,9.7823991 9.2422445,9.7759692 8.9904789,9.7626024 8.7536033,9.6678083 8.5199407,9.5821447 8.2053506,9.4492305 7.9524232,9.3266064 7.7572962,9.0340309 7.6550392,8.8763165 7.5496361,8.715357 7.5012028,8.5316978 7.4724712,8.4021596 7.457305,8.2753636 7.5141674,8.1506462 7.6246844,7.9006099 7.7789203,7.6731391 7.9369149,7.4511034 8.0582018,7.2914514 8.1219915,7.2010558 8.2576196,7.0498056 8.4929747,6.7873416 8.7625084,6.5604447 9.0360566,6.3393171 c 0,0 -0.8908344,0.3644688 -0.8908349,0.3644686 z" />
        <path
           style="fill:#000000;fill-opacity:1;fill-rule:nonzero;stroke:none;stroke-width:0.264583"
           id="path101"
           d="m 8.2870066,7.783147 c 0.1145127,0.2492272 0.1661909,0.5241381 0.2279724,0.7902824 0.068481,0.2544911 0.1168434,0.513538 0.1339395,0.7765709 0.00423,0.066721 0.00536,0.1335535 0.00616,0.2003796 0,0 0.8684803,-0.4477158 0.8684803,-0.4477158 v 0 C 9.5180496,9.0361016 9.5116996,8.969607 9.5003808,8.9037162 9.4565774,8.6436549 9.4139104,8.38337 9.3382565,8.1299872 9.274543,7.8560977 9.2095444,7.5826064 9.1501883,7.3077548 c 0,0 -0.8631822,0.4753922 -0.8631817,0.4753922 z" />
        <path
           style="fill:#000000;fill-opacity:1;fill-rule:nonzero;stroke:none;stroke-width:0.264583"
           id="path103"
           d="M 8.4642108,7.8066063 C 8.1788666,8.1215044 7.8876461,8.4310087 7.5919411,8.7361884 c -0.08674,0.090575 -0.174679,0.179981 -0.2636716,0.268338 0,0 0.8981179,-0.3773969 0.8981179,-0.3773969 v 0 C 8.2924157,8.541894 8.3654659,8.4626235 8.43765,8.3825923 8.7347835,8.052744 9.0340132,7.7175806 9.3827274,7.4413255 c 0,0 -0.9185166,0.3652808 -0.9185166,0.3652808 z" />
        <path
           style="fill:#000000;fill-opacity:1;fill-rule:nonzero;stroke:none;stroke-width:0.264583"
           id="path105"
           d="m 8.8137224,7.3977515 c 0.2290189,0.3245782 0.4144,0.6781586 0.606048,1.0255216 0,0 0.7620226,-0.4371801 0.7620226,-0.4371801 v 0 C 9.9970016,7.6382482 9.7984082,7.292209 9.6759858,6.9162411 c 0,0 -0.8622634,0.4815104 -0.8622634,0.4815104 z" />
      </g>
      <g
         id="g58"
         transform="translate(-0.42513392)">
        <path
           style="fill:#000000;fill-opacity:1;fill-rule:nonzero;stroke:none;stroke-width:0.264583"
           id="path107"
           d="M 2.6868716,3.6596083 C 2.6620536,3.0833198 2.8093679,2.5197458 2.9692106,1.9713417 3.0283106,1.8310153 3.0515896,1.6501764 3.1595664,1.532425 3.1758644,1.51465 3.2414134,1.481377 3.2207554,1.49382 2.3872275,1.9958666 2.2439604,1.7245363 2.5062529,2.0826317 c 0.042646,0.083414 0.0863,0.1663203 0.127938,0.2502417 0.1254064,0.252755 0.205229,0.4315281 0.3345769,0.6847669 0.1684058,0.3297071 0.3541123,0.6494565 0.5390174,0.9700212 0.1190371,0.2055699 0.233761,0.4137576 0.3456845,0.6232872 0.048087,0.090021 0.088689,0.1824075 0.1438979,0.2681949 C 4.2762146,5.1635167 4.870332,4.7305525 4.9673307,4.3714886 5.0026067,4.2409075 5.0109517,4.1627564 5.0361747,4.0165281 5.0567067,3.8975053 5.0773117,3.7784954 5.0978797,3.659479 5.223315,2.936487 5.3934201,2.2183809 5.6497262,1.5299887 c 0,0 -0.827129,0.3896726 -0.827129,0.3896726 v 0 c -0.1851515,0.6971348 -0.3007707,1.411116 -0.4893408,2.1076343 -0.067702,0.2337017 -0.108693,0.4064286 -0.199108,0.624209 -0.01602,0.038588 -0.034247,0.07689 -0.058791,0.1107019 -0.011912,0.016407 -0.06648,0.045983 -0.048354,0.036899 C 4.9507244,4.3361997 5.1527209,4.2676848 4.8335288,4.3781746 4.7602821,4.3099383 4.7117951,4.2268464 4.6549073,4.1446419 4.5196626,3.9492106 4.3749829,3.760242 4.2535288,3.5554836 3.8732776,2.9444713 3.5073549,2.3194242 3.3145617,1.6196739 3.2878057,1.5557473 3.3015418,1.4111571 3.2342935,1.4278941 2.3512566,1.647667 2.3068794,1.7365292 2.161162,2.3584076 2.0404328,2.9403197 1.9229254,3.522779 1.810229,4.10628 c 0,0 0.8766426,-0.4466717 0.8766426,-0.4466717 z" />
        <path
           style="fill:#000000;fill-opacity:1;fill-rule:nonzero;stroke:none;stroke-width:0.264583"
           id="path109"
           d="M 7.008021,1.9529851 C 6.968219,2.4924007 6.8421519,3.0200156 6.7530206,3.5522658 c -0.01415,0.1670013 -0.070453,0.4134964 0.071032,0.5500486 0.077632,0.074926 0.1499984,0.080375 0.2503787,0.1085165 0.3335086,0.049306 0.6729404,0.038692 1.0083123,0.015933 0,0 0.7604143,-0.5651513 0.7604143,-0.5651513 v 0 C 8.5161313,3.7098963 8.18081,3.7196171 7.852883,3.6741381 7.8016732,3.6629277 7.7017869,3.6490477 7.653161,3.6133927 7.5292251,3.52252 7.5672142,3.2754325 7.5682157,3.1507291 7.624881,2.6044776 7.7181344,2.0574184 7.8841896,1.5332652 c 0,0 -0.8761686,0.4197215 -0.8761686,0.4197215 z" />
        <path
           style="fill:#000000;fill-opacity:1;fill-rule:nonzero;stroke:none;stroke-width:0.264583"
           id="path111"
           d="M 6.8605254,3.1681527 C 7.2819497,2.9688219 7.7527065,2.900529 8.2100213,2.8324229 8.4177012,2.806282 8.3202711,2.8178258 8.5022515,2.7972912 c 0,0 0.7572391,-0.5664569 0.7572391,-0.5664569 v 0 c -0.2016194,0.033266 -0.093888,0.014843 -0.3230965,0.055839 -0.4363561,0.075872 -0.8747517,0.1492592 -1.3030065,0.263263 0,0 -0.7728622,0.6182166 -0.7728622,0.6182164 z" />
        <path
           style="fill:#000000;fill-opacity:1;fill-rule:nonzero;stroke:none;stroke-width:0.264583"
           id="path113"
           d="M 7.109553,1.7720875 C 7.544741,1.691248 7.9849291,1.6398789 8.4225442,1.5734048 c 0,0 0.6641327,-0.4974017 0.6641327,-0.4974017 v 0 C 8.6920779,1.1313063 8.2964546,1.1821117 7.897111,1.18264 c 0,0 -0.787558,0.5894475 -0.787558,0.5894475 z" />
        <path
           style="fill:#000000;fill-opacity:1;fill-rule:nonzero;stroke:none;stroke-width:0.264583"
           id="path115"
           d="m 10.205128,2.1109913 c -0.137614,0.4906399 -0.3303727,0.9637555 -0.5350337,1.4296894 -0.063461,0.1254125 -0.1086056,0.25576 -0.1389229,0.3923152 -0.00878,0.039558 -0.022177,0.077892 -0.015044,0.1191456 0.00287,0.0166 0.011539,0.031658 0.017306,0.047487 0.056105,0.083216 0.1511681,0.1255564 0.2373765,0.1711952 0.221615,0.1129337 0.4761881,0.104209 0.7183181,0.104844 0.33239,-0.012427 0.6637,-0.043559 0.996067,-0.056498 0.02546,-0.00106 0.05091,-0.00214 0.07636,-0.0032 0,0 0.778476,-0.5745367 0.778476,-0.5745367 v 0 c -0.02818,0.00295 -0.05636,0.0059 -0.08454,0.00885 -0.338426,0.038401 -0.678299,0.066612 -1.018499,0.082813 -0.217911,-0.00246 -0.449012,0.00196 -0.647821,-0.100493 -0.06701,-0.031728 -0.12994,-0.069902 -0.192376,-0.1095648 -0.03639,-0.1257241 0.06834,-0.3511991 0.100646,-0.4651314 0.175891,-0.4945904 0.354297,-0.9924964 0.600399,-1.4571368 0,0 -0.892716,0.4102286 -0.892716,0.4102286 z" />
        <path
           style="fill:#000000;fill-opacity:1;fill-rule:nonzero;stroke:none;stroke-width:0.264583"
           id="path117"
           d="M 9.0652269,3.8819019 C 9.1021601,3.8681833 9.1382664,3.8519905 9.1760265,3.8407463 9.3594803,3.7861172 9.6728812,3.7115764 9.8456924,3.6719564 10.233286,3.583094 10.623015,3.5033665 11.012524,3.4234526 c 0.203948,-0.041026 0.408294,-0.079565 0.611591,-0.1236925 0,0 0.742865,-0.5690227 0.742865,-0.5690227 v 0 c -0.222336,0.065924 -0.447448,0.1199015 -0.672806,0.1746761 -0.613158,0.1420989 -1.227988,0.2839881 -1.8526247,0.3660185 0,0 -0.7763224,0.6104699 -0.7763224,0.6104699 z" />
        <path
           style="fill:#000000;fill-opacity:1;fill-rule:nonzero;stroke:none;stroke-width:0.264583"
           id="path119"
           d="m 9.9030417,1.9597442 c 0.5808953,-0.086543 1.1678423,-0.1281543 1.7537313,-0.1643157 0,0 0.702604,-0.517882 0.702604,-0.517882 v 0 c -0.556516,0.042126 -1.11355,0.093054 -1.671805,0.1001687 0,0 -0.7845303,0.582029 -0.7845303,0.582029 z" />
        <path
           style="fill:#000000;fill-opacity:1;fill-rule:nonzero;stroke:none;stroke-width:0.264583"
           id="path121"
           d="m 13.197531,1.9430468 c 0.02271,0.343557 0.01294,0.6902009 -0.03623,1.0312303 -0.02628,0.1822709 -0.06562,0.3484573 -0.104785,0.5273612 -0.04438,0.1426181 -0.07841,0.3019015 -0.173463,0.422811 -0.01667,0.021209 -0.03713,0.039959 -0.05991,0.05442 -0.01614,0.010247 -0.07083,0.02794 -0.0544,0.018161 0.267491,-0.1592355 0.539104,-0.3114434 0.808656,-0.467165 -0.0069,0.00164 -0.01396,0.00683 -0.02084,0.00494 -0.05688,-0.01565 -0.05561,-0.3286701 -0.05467,-0.3395271 0.0073,-0.084147 0.02738,-0.1666864 0.04106,-0.2500299 0.07386,-0.3103287 0.218369,-0.5889822 0.386676,-0.8569801 0.09022,-0.1436566 0.174183,-0.2690636 0.286963,-0.395025 0.04366,-0.048763 0.09315,-0.09197 0.139729,-0.1379551 0.191873,-0.1413683 0.824107,-0.5999714 -0.492613,0.2736383 -0.04878,0.032364 0.10708,-0.048006 0.162938,-0.065523 0.18377,-0.05763 0.361583,-0.059698 0.551517,-0.052652 0.05946,0.011287 0.122297,0.011097 0.178371,0.033862 0.315642,0.1281463 0.446478,0.5649919 0.444216,0.8732162 -7.41e-4,0.1026961 -0.02763,0.2035309 -0.04144,0.3052963 -0.03839,0.095008 -0.06731,0.1944164 -0.115163,0.2850256 -0.09559,0.1809845 -0.23821,0.3520871 -0.390316,0.4877176 -0.08177,0.072911 -0.364698,0.2362803 -0.261795,0.1986931 0.156183,-0.05705 0.325104,-0.1269881 0.426427,-0.2588282 0.07355,-0.095698 -0.222893,0.092669 -0.334339,0.1390034 -0.271863,0.077094 -0.556538,0.1779355 -0.844989,0.1592728 -0.05181,-0.00335 -0.10105,-0.023887 -0.151575,-0.035829 0,0 -0.76405,0.5298848 -0.76405,0.5298848 v 0 c 0.06295,0.013377 0.124595,0.03662 0.188858,0.040134 0.306581,0.016769 0.608503,-0.092416 0.900089,-0.1655421 0.646097,-0.2449335 0.461508,-0.1543809 1.383594,-0.7301227 0.162373,-0.1013844 0.362972,-0.3042127 0.475702,-0.4584867 0.176113,-0.2410151 0.173078,-0.2993877 0.269539,-0.5779801 0.01068,-0.1079661 0.03345,-0.2154152 0.03202,-0.3238984 -0.0044,-0.3312423 -0.133095,-0.8290811 -0.457285,-0.9951472 -0.0571,-0.029248 -0.124787,-0.029841 -0.187181,-0.044761 -0.175076,-0.014572 -0.209618,-0.025284 -0.385309,-0.0086 -0.09146,0.00869 -0.271998,0.037335 -0.356158,0.082624 -0.876713,0.4717877 -0.691588,0.3262719 -1.082075,0.6643581 -0.04188,0.047676 -0.08653,0.093051 -0.125631,0.1430287 -0.106891,0.1366242 -0.163101,0.2378873 -0.249464,0.3908026 -0.160197,0.2836469 -0.301345,0.5751542 -0.389794,0.8903505 -0.04145,0.1850951 -0.164073,0.5738278 -0.0022,0.7474162 0.01372,0.014714 0.03331,0.022564 0.04996,0.033845 0.838783,-0.4476197 0.944325,-0.2833219 1.080986,-1.0104064 0.02424,-0.1731333 0.05245,-0.3457337 0.07383,-0.5192426 0.04471,-0.3627341 0.05758,-0.7298811 0.129177,-1.0890171 0,0 -0.87459,0.4456261 -0.87459,0.4456261 z" />
      </g>
      <g
         id="g75"
         transform="translate(0.28577055)">
        <path
           style="fill:#000000;fill-opacity:1;fill-rule:nonzero;stroke:none;stroke-width:0.264583"
           id="path123"
           d="m 2.8428326,12.369898 c -0.018473,0.125953 -0.024945,0.157594 -0.035326,0.300152 -0.016076,0.220757 -0.021722,0.442169 -0.036175,0.663037 -0.030939,0.472777 -0.032446,0.438075 -0.084481,0.912928 -0.018261,0.141148 -0.036524,0.282296 -0.054786,0.423444 0,0 0.743718,-0.368524 0.743718,-0.368524 v 0 c 0.013166,-0.138674 0.026331,-0.277347 0.039497,-0.416021 0.049592,-0.444148 0.05144,-0.483352 0.1111723,-0.927248 0.039665,-0.294767 0.076077,-0.595544 0.156641,-0.882957 0.011634,-0.04151 0.02791,-0.08157 0.041865,-0.122356 0,0 -0.8821254,0.417545 -0.8821253,0.417545 z" />
        <path
           style="fill:#000000;fill-opacity:1;fill-rule:nonzero;stroke:none;stroke-width:0.264583"
           id="path125"
           d="m 1.6458024,12.736452 c 0.031488,-0.014 0.061703,-0.0313 0.094463,-0.04199 0.2300029,-0.07501 0.4449035,-0.118418 0.6842733,-0.169364 0.5049492,-0.107471 1.0129662,-0.19945 1.5200486,-0.296102 0.5940436,-0.113598 1.1926708,-0.216983 1.7990868,-0.216822 0.089823,0.0039 0.1736956,0.02295 0.2459469,0.07678 0,0 0.8316775,-0.519224 0.8316775,-0.519224 v 0 C 6.7281005,11.4851 6.6255288,11.467022 6.5009283,11.457997 c -0.6477878,0.04188 -1.2866349,0.162839 -1.9219955,0.291307 -0.7168963,0.141185 -1.4358012,0.272358 -2.1602679,0.36893 0,0 -0.7728622,0.618217 -0.7728622,0.618217 z" />
        <path
           style="fill:#000000;fill-opacity:1;fill-rule:nonzero;stroke:none;stroke-width:0.264583"
           id="path127"
           d="m 6.8152038,12.51978 c -0.035995,0.760136 -0.2018644,1.503349 -0.3956561,2.236397 -0.067955,0.230006 -0.1345991,0.460418 -0.2148673,0.6865 -0.043152,0.121542 -0.028549,0.05885 -0.04426,0.139111 0,0 0.8831138,-0.446753 0.8831138,-0.446753 v 0 c -0.023011,-0.03231 -0.00968,-0.009 0.00569,-0.09452 0.039133,-0.217821 0.092184,-0.433044 0.1325295,-0.650622 0.055799,-0.267335 0.1127313,-0.534434 0.1678004,-0.80192 0.087242,-0.423756 0.1634609,-0.852117 0.2759509,-1.270259 0.01969,-0.0732 0.045847,-0.144497 0.068771,-0.216746 0,0 -0.8790713,0.418815 -0.8790713,0.418815 z" />
        <path
           style="fill:#000000;fill-opacity:1;fill-rule:nonzero;stroke:none;stroke-width:0.264583"
           id="path129"
           d="m 8.3156464,12.362093 c 0.074286,0.572118 0.071352,1.153121 0.066765,1.729334 -0.00573,0.219393 0.012467,0.44043 -0.035519,0.655927 0,0 0.86243,-0.427414 0.86243,-0.427414 v 0 c 3.175e-4,-0.211733 -0.026077,-0.421891 -0.038416,-0.633102 -0.039138,-0.589857 -0.05691,-1.185034 0.023434,-1.772462 0,0 -0.8786948,0.447717 -0.878694,0.447717 z" />
        <path
           style="fill:#000000;fill-opacity:1;fill-rule:nonzero;stroke:none;stroke-width:0.264583"
           id="path131"
           d="m 6.9618203,13.732615 c 0.5971352,-0.05629 1.1970782,-0.03844 1.7949,-0.0065 0.069512,0.0044 0.1390243,0.0088 0.2085367,0.01319 0,0 0.740043,-0.533958 0.740043,-0.533958 v 0 c -0.075247,-3.71e-4 -0.1504934,-7.41e-4 -0.2257404,-0.0011 -0.5738635,-0.0045 -1.1498151,4.77e-4 -1.7217647,-0.04988 0,0 -0.7959746,0.57831 -0.7959746,0.57831 z" />
        <path
           style="fill:#000000;fill-opacity:1;fill-rule:nonzero;stroke:none;stroke-width:0.264583"
           id="path133"
           d="m 10.934033,12.080942 c -0.05507,0.885366 -0.218922,1.758888 -0.406288,2.624403 -0.07456,0.333633 -0.153983,0.666512 -0.247399,0.995417 0,0 0.850611,-0.412062 0.850611,-0.412062 v 0 c 0.0368,-0.314373 0.0824,-0.627687 0.131196,-0.940403 0.14592,-0.903681 0.274021,-1.818511 0.553475,-2.692532 0,0 -0.881595,0.425177 -0.881595,0.425177 z" />
        <path
           style="fill:#000000;fill-opacity:1;fill-rule:nonzero;stroke:none;stroke-width:0.264583"
           id="path135"
           d="m 13.813141,12.42662 c -0.280443,0.287499 -0.654871,0.45732 -0.959298,0.716539 -0.07353,0.06261 -0.150885,0.124969 -0.204359,0.205394 -0.03998,0.06012 -0.04585,0.136928 -0.06877,0.205392 0.02473,0.06442 0.03452,0.136817 0.0742,0.193272 0.08201,0.116668 0.276308,0.229508 0.393002,0.296654 0.183178,0.105403 0.375071,0.199964 0.56333,0.296118 0.100393,0.06143 0.233555,0.128574 0.25952,0.258739 0.0079,0.03981 0.01237,0.08483 -0.0046,0.121704 -0.06046,0.131174 -0.245746,0.233134 -0.346556,0.304892 0.130715,-0.08398 0.390954,-0.09658 0.392146,-0.251942 0.0011,-0.140386 -0.259233,0.108196 -0.391406,0.155522 -0.417094,0.149344 -0.847878,0.251488 -1.284675,0.320942 0,0 -0.716965,0.540282 -0.716965,0.540282 v 0 c 0.455706,-0.08761 0.906232,-0.199961 1.346533,-0.347821 0.130263,-0.04374 0.264651,-0.07923 0.387316,-0.141155 0.368266,-0.185927 0.721378,-0.400462 1.082067,-0.600692 0.162966,-0.131691 0.310135,-0.199399 0.370803,-0.409969 0.01495,-0.05187 0.0032,-0.109474 -0.01082,-0.161595 -0.04144,-0.153548 -0.178913,-0.234363 -0.309348,-0.300872 -0.195542,-0.08435 -0.395103,-0.164754 -0.57993,-0.271493 -0.09911,-0.05724 -0.266094,-0.16078 -0.337952,-0.261336 -0.02757,-0.03858 -0.03363,-0.08867 -0.05044,-0.13301 0.01831,-0.05151 0.02357,-0.109748 0.05493,-0.154519 0.09657,-0.137859 0.333811,-0.299156 0.457594,-0.386199 0.264384,-0.185912 0.547273,-0.3491 0.786527,-0.568806 0,0 -0.902817,0.373959 -0.902816,0.373959 z" />
      </g>
    </g>
  </g>
</svg>
