<?xml version="1.0" encoding="UTF-8" standalone="no"?>
<!-- Created with Inkscape (http://www.inkscape.org/) -->

<svg
   width="64"
   height="64"
   viewBox="0 0 16.933333 16.933334"
   version="1.1"
   id="svg5"
   inkscape:version="1.2.2 (b0a8486541, 2022-12-01)"
   sodipodi:docname="need_a_platform.svg"
   inkscape:export-filename="../../../../../need_a_platform.png"
   inkscape:export-xdpi="96"
   inkscape:export-ydpi="96"
   xmlns:inkscape="http://www.inkscape.org/namespaces/inkscape"
   xmlns:sodipodi="http://sodipodi.sourceforge.net/DTD/sodipodi-0.dtd"
   xmlns="http://www.w3.org/2000/svg"
   xmlns:svg="http://www.w3.org/2000/svg">
  <sodipodi:namedview
     id="namedview7"
     pagecolor="#ffffff"
     bordercolor="#666666"
     borderopacity="1.0"
     inkscape:pageshadow="2"
     inkscape:pageopacity="0.0"
     inkscape:pagecheckerboard="0"
     inkscape:document-units="px"
     showgrid="false"
     units="px"
     width="64px"
     inkscape:zoom="11.060831"
     inkscape:cx="14.284642"
     inkscape:cy="33.99383"
     inkscape:window-width="1214"
     inkscape:window-height="992"
     inkscape:window-x="0"
     inkscape:window-y="0"
     inkscape:window-maximized="1"
     inkscape:current-layer="layer1"
     inkscape:showpageshadow="2"
     inkscape:deskcolor="#d1d1d1" />
  <defs
     id="defs2" />
  <g
     inkscape:label="Layer 1"
     inkscape:groupmode="layer"
     id="layer1">
    <g
       id="g66"
       transform="translate(-0.6664568,0.14988604)">
      <path
         style="fill:#000000;fill-opacity:1;fill-rule:nonzero;stroke:none;stroke-width:0.264583"
         id="path81"
         d="M 2.440706,5.9585129 C 2.537345,6.510566 2.52746,7.0767598 2.525834,7.6355164 2.5266277,8.0069589 2.501881,8.3775925 2.492268,8.7487389 c 0.00934,0.2306913 0.049417,0.4592318 0.095571,0.6850772 0.054306,0.2109197 0.1118642,0.4233492 0.2072364,0.6196989 0.1087602,0.199301 0.2522136,0.314557 0.4524039,0.413905 0.2515659,0.09931 0.5228464,0.134216 0.7885883,0.175623 0.3966623,0.05819 0.7956921,0.09867 1.1930732,0.152362 0.4573921,0.07878 0.9168832,0.139258 1.3800471,0.169022 0.4555771,0.02159 0.9118685,0.01852 1.3678348,0.02066 0.3905075,0.0018 0.7810085,0.0043 1.1715218,0.0043 0.3821261,9.79e-4 0.7640919,3.7e-4 1.1459605,-0.0143 0.315416,-0.01318 0.63102,-0.02126 0.946688,-0.02455 0.306267,-0.0115 0.611618,-0.03875 0.916281,-0.07123 0.32439,-0.02932 0.646975,-0.07506 0.959326,-0.168726 0.549601,-0.204222 1.043833,-0.51361 1.407026,-0.9646751 0.155211,-0.2034823 0.253265,-0.4424392 0.346197,-0.6789217 0.104268,-0.2947162 0.121478,-0.6077331 0.165597,-0.9144558 0.01484,-0.1031425 0.03258,-0.2058453 0.04887,-0.3087677 0.09017,-0.5217668 0.237018,-1.0307987 0.360211,-1.5450895 0.06432,-0.2841424 0.05698,-0.5774692 0.06063,-0.8670568 0.0036,-0.1122968 0.0024,-0.059414 0.004,-0.1586412 0,0 -0.865484,0.4442148 -0.865484,0.4442148 v 0 c 0.0074,0.093185 0.0034,0.043659 0.01192,0.1485749 0.01056,0.2802289 0.0106,0.5625775 -0.04963,0.838069 -0.09602,0.5083779 -0.189604,1.0171373 -0.30542,1.5215627 -0.04076,0.1971284 -0.08304,0.393944 -0.122856,0.5912644 -0.04411,0.2186062 -0.08243,0.4392954 -0.167129,0.6470844 -0.09685,0.2298948 -0.199185,0.4604739 -0.360986,0.6533576 -0.08427,0.09699 -0.169693,0.18901 -0.269531,0.270577 -0.235521,0.19242 -0.652832,0.397595 0.599085,-0.316816 0.03872,-0.0221 -0.07906,0.04123 -0.118596,0.06185 -0.307327,0.112273 -0.630869,0.163507 -0.956203,0.191578 -0.298913,0.03197 -0.59866,0.05187 -0.898771,0.06874 -0.322981,0.0076 -0.645727,0.02073 -0.968358,0.03771 -0.379643,0.01607 -0.759062,0.01673 -1.1390295,0.01374 -0.3954709,7.67e-4 -0.7909174,0.0048 -1.1863824,0.0068 -0.4535618,0.0012 -0.9072923,2.65e-4 -1.3605204,-0.01942 C 6.8863595,10.406681 6.4226836,10.361966 5.9641278,10.277518 5.5786577,10.21697 5.1924814,10.161025 4.8070409,10.10057 4.550699,10.06217 4.2908692,10.024883 4.0447887,9.9413279 3.8570266,9.8530368 3.7334109,9.7648159 3.6344173,9.5766337 3.5420793,9.3887483 3.4677293,9.1923272 3.4236986,8.9871304 3.3811391,8.7649425 3.3568583,8.5400491 3.3450293,8.3141161 3.334692,7.9558811 3.3054196,7.5984988 3.3000633,7.2400387 3.2865034,6.6589639 3.2761741,6.0769888 3.3117182,5.4964353 c 0,0 -0.8710127,0.4620776 -0.8710122,0.4620776 z" />
      <path
         style="fill:#000000;fill-opacity:1;fill-rule:nonzero;stroke:none;stroke-width:0.264583"
         id="path87"
         d="m 1.4231631,5.7352932 c 0.042002,0.016692 0.082855,0.036633 0.1260067,0.050078 0.1694697,0.052804 0.3998121,0.099405 0.5667683,0.1351103 0.374455,0.080081 0.7503043,0.1504233 1.1269075,0.2195124 0.3230608,0.060412 0.6475026,0.1195236 0.9759709,0.1415089 0.3001214,0.020087 0.6015821,0.00837 0.9018575,9.261e-4 0.5733987,-0.019323 1.1471421,-0.020847 1.7199962,-0.053672 0.5984886,-0.04676 1.1984226,-0.065295 1.7984547,-0.076166 0.6369371,-0.02304 1.2737714,-0.044742 1.9110941,-0.053374 0.699113,-0.014986 1.395776,-0.086202 2.092382,-0.1436481 0.591938,-0.051863 1.184668,-0.090755 1.777691,-0.1272469 0.371227,-0.020907 0.743314,-0.049975 1.115156,-0.029543 0.116634,0.00398 0.231456,0.018325 0.339891,0.062191 0.05168,0.018209 0.09986,0.044125 0.149273,0.067407 0,0 0.818472,-0.5464625 0.818472,-0.5464625 v 0 c -0.05251,-0.01892 -0.09824,-0.049794 -0.151466,-0.066358 -0.133589,-0.056592 -0.232239,-0.080264 -0.381942,-0.074963 -0.391271,-0.00784 -0.7808,0.040687 -1.171364,0.058792 -0.602506,0.042413 -1.204656,0.08605 -1.805791,0.1458335 -0.693208,0.061951 -1.387648,0.1230374 -2.083361,0.1447234 -0.632537,0.00874 -1.265178,0.016375 -1.8972938,0.042701 C 8.7527439,5.6449673 8.1537111,5.6648518 7.5555969,5.7027251 6.9809134,5.7391132 6.4050578,5.7438188 5.8296708,5.7646204 5.1962112,5.7803578 4.5612522,5.7886683 3.9376081,5.6537229 3.5665117,5.5894257 3.1964009,5.5264544 2.8326139,5.4270716 2.6961116,5.3897804 2.4822653,5.3257197 2.3445504,5.261449 2.3137944,5.247095 2.2872314,5.225086 2.2585724,5.206904 c 0,0 -0.8354088,0.5283891 -0.8354093,0.5283892 z" />
      <path
         style="fill:#000000;fill-opacity:1;fill-rule:nonzero;stroke:none;stroke-width:0.264583"
         id="path99"
         d="M 8.1452217,6.7037857 C 7.9013473,6.9231356 7.6582738,7.1434409 7.4419332,7.3906824 7.3031556,7.5492824 7.2374921,7.6407702 7.111181,7.8062198 6.9437564,8.049393 6.7520258,8.2822888 6.6328575,8.55464 c -0.056444,0.1441776 -0.022119,0.293568 0.01846,0.4370192 0.057979,0.1920285 0.1691288,0.3608679 0.2801718,0.5258274 0.2126845,0.2965828 0.497401,0.4338635 0.8229145,0.5748844 0.2368002,0.08739 0.4740508,0.188287 0.7270496,0.218549 0.143959,0.01722 0.1905452,0.0071 0.3343852,-0.003 0.052823,-0.0098 0.106463,-0.01588 0.1584693,-0.02935 0.3647749,-0.09446 1.1707231,-0.655397 1.2399851,-0.7012033 0.01373,-0.00908 0.241564,-0.253297 0.251758,-0.2641621 0.192555,-0.2243069 0.403372,-0.4393253 0.535063,-0.7077242 0.02786,-0.056789 0.04932,-0.1165035 0.07398,-0.1747552 0.117023,-0.3394628 0.201454,-0.7033326 0.192335,-1.065171 -0.0017,-0.068651 -0.01282,-0.1367456 -0.01924,-0.2051185 -0.01604,-0.062645 -0.02509,-0.1275122 -0.04813,-0.1879343 C 11.104461,6.7217786 10.873661,6.5159902 10.623535,6.4249775 10.52958,6.3907904 10.429931,6.374952 10.333129,6.349939 9.6851015,6.2361756 9.0256217,6.2857665 8.3872625,6.429481 8.3227025,6.455074 8.2581421,6.480666 8.1935819,6.506259 c 0,0 -0.71716,0.5683446 -0.71716,0.5683446 v 0 C 7.5404371,7.0430421 7.604452,7.011481 7.6684671,6.9799199 8.3023249,6.7970642 8.9495982,6.7154781 9.6028952,6.8512073 c 0.085764,0.025014 0.1737997,0.04326 0.2572938,0.075042 0.225021,0.085652 0.437628,0.2584617 0.52659,0.4871276 0.02154,0.05536 0.03057,0.1148032 0.04586,0.1722048 0.006,0.064034 0.01632,0.1278102 0.01788,0.1921018 0.0086,0.3557532 -0.08217,0.710251 -0.216074,1.0368307 -0.02768,0.056034 -0.05281,0.1133983 -0.08303,0.1681033 C 10.00973,9.2390838 9.8034477,9.4515635 9.6110877,9.6695247 9.5684583,9.7131912 9.5270997,9.7581355 9.4831992,9.8005238 9.440115,9.842124 9.2958012,9.9463233 9.3502493,9.9213786 9.5769305,9.8175278 9.7852034,9.677351 10.005786,9.5611079 10.05486,9.5352476 9.9142042,9.624182 9.8651314,9.6500452 9.7442245,9.713768 9.6967852,9.7179699 9.5657871,9.7519133 9.4462571,9.7667458 9.3633538,9.7823991 9.2422445,9.7759692 8.9904789,9.7626024 8.7536033,9.6678083 8.5199407,9.5821447 8.2053506,9.4492305 7.9524232,9.3266064 7.7572962,9.0340309 7.6550392,8.8763165 7.5496361,8.715357 7.5012028,8.5316978 7.4724712,8.4021596 7.457305,8.2753636 7.5141674,8.1506462 7.6246844,7.9006099 7.7789203,7.6731391 7.9369149,7.4511034 8.0582018,7.2914514 8.1219915,7.2010558 8.2576196,7.0498056 8.4929747,6.7873416 8.7625084,6.5604447 9.0360566,6.3393171 c 0,0 -0.8908344,0.3644688 -0.8908349,0.3644686 z" />
      <path
         style="fill:#000000;fill-opacity:1;fill-rule:nonzero;stroke:none;stroke-width:0.264583"
         id="path101"
         d="m 8.2870066,7.783147 c 0.1145127,0.2492272 0.1661909,0.5241381 0.2279724,0.7902824 0.068481,0.2544911 0.1168434,0.513538 0.1339395,0.7765709 0.00423,0.066721 0.00536,0.1335535 0.00616,0.2003796 0,0 0.8684803,-0.4477158 0.8684803,-0.4477158 v 0 C 9.5180496,9.0361016 9.5116996,8.969607 9.5003808,8.9037162 9.4565774,8.6436549 9.4139104,8.38337 9.3382565,8.1299872 9.274543,7.8560977 9.2095444,7.5826064 9.1501883,7.3077548 c 0,0 -0.8631822,0.4753922 -0.8631817,0.4753922 z" />
      <path
         style="fill:#000000;fill-opacity:1;fill-rule:nonzero;stroke:none;stroke-width:0.264583"
         id="path103"
         d="M 8.4642108,7.8066063 C 8.1788666,8.1215044 7.8876461,8.4310087 7.5919411,8.7361884 c -0.08674,0.090575 -0.174679,0.179981 -0.2636716,0.268338 0,0 0.8981179,-0.3773969 0.8981179,-0.3773969 v 0 C 8.2924157,8.541894 8.3654659,8.4626235 8.43765,8.3825923 8.7347835,8.052744 9.0340132,7.7175806 9.3827274,7.4413255 c 0,0 -0.9185166,0.3652808 -0.9185166,0.3652808 z" />
      <path
         style="fill:#000000;fill-opacity:1;fill-rule:nonzero;stroke:none;stroke-width:0.264583"
         id="path105"
         d="m 8.8137224,7.3977515 c 0.2290189,0.3245782 0.4144,0.6781586 0.606048,1.0255216 0,0 0.7620226,-0.4371801 0.7620226,-0.4371801 v 0 C 9.9970016,7.6382482 9.7984082,7.292209 9.6759858,6.9162411 c 0,0 -0.8622634,0.4815104 -0.8622634,0.4815104 z" />
    </g>
    <path
       style="fill:#000000;fill-opacity:1;fill-rule:nonzero;stroke:none;stroke-width:0.264583"
       id="path7763"
       d="m 10.368812,4.8406514 c 0.119868,-0.08893 0.24746,-0.166684 0.369248,-0.252817 0.2063,-0.1459032 0.615932,-0.4533181 0.797114,-0.5903392 0.361371,-0.2732894 0.721057,-0.5488006 1.08226,-0.8223115 0.465558,-0.3504705 0.929202,-0.703438 1.391269,-1.0584905 0,0 -0.695915,0.2789493 -0.695915,0.2789493 v 0 c -0.419039,0.344535 -0.841717,0.6845645 -1.275533,1.0104844 -0.830777,0.6254012 -1.662287,1.2548428 -2.5601732,1.7824754 0,0 0.8917302,-0.3479509 0.8917302,-0.3479509 z" />
    <path
       style="fill:#000000;fill-opacity:1;fill-rule:nonzero;stroke:none;stroke-width:0.264583"
       id="path7765"
       d="m 9.1746205,4.7396896 c 0.00283,-0.021905 0.00394,-0.044102 0.0085,-0.065713 C 9.2297824,4.4530204 9.3113794,4.2373615 9.3864649,4.0253498 9.4356684,3.8864192 9.6242293,3.367145 9.6685438,3.2449019 9.8115559,2.8452377 9.9648909,2.4494452 10.119359,2.0541171 c 0,0 -0.7254982,0.3387519 -0.7254982,0.3387519 v 0 C 9.2660912,2.7866224 9.1359331,3.1797523 8.9809582,3.5639029 8.9230551,3.7053987 8.8667502,3.8475588 8.8072489,3.9883899 8.6399221,4.3844293 8.4503873,4.7705466 8.2841636,5.1669544 c 0,0 0.8904561,-0.4272648 0.8904569,-0.4272648 z" />
    <path
       style="fill:#000000;fill-opacity:1;fill-rule:nonzero;stroke:none;stroke-width:0.264583"
       id="path7767"
       d="M 7.8658182,4.7030887 C 7.581125,4.3321151 7.3081533,3.9521642 7.0298489,3.5763659 6.7403503,3.1829791 6.4520584,2.7877834 6.2015126,2.367966 6.1541363,2.288582 6.1100778,2.2072647 6.0643605,2.126914 c 0,0 -0.7347543,0.4277352 -0.7347543,0.4277352 v 0 c 0.064566,0.094109 0.2844014,0.4155822 0.3433813,0.4968661 0.2243616,0.3092077 0.4655812,0.6064663 0.6750682,0.9264841 0.071014,0.1073071 0.1446089,0.2129496 0.2130404,0.3219215 0.1780183,0.2834793 0.3364807,0.5802958 0.4487749,0.8962546 0,0 0.8559472,-0.4930868 0.8559472,-0.4930868 z" />
    <path
       style="fill:#000000;fill-opacity:1;fill-rule:nonzero;stroke:none;stroke-width:0.264583"
       id="path7769"
       d="M 5.9852461,4.6762841 C 5.9018502,4.6253742 5.9120756,4.6292951 5.795498,4.5755582 5.5432146,4.459267 5.2892271,4.3593846 5.0381137,4.237685 4.502634,3.9781701 4.2568594,3.8283545 3.727838,3.5305337 2.8562346,2.9982658 3.2737024,3.2651296 2.473552,2.7328945 c 0,0 -0.5206776,0.3355118 -0.5206776,0.3355118 v 0 c 0.8438358,0.4965981 0.4147384,0.2377192 1.286466,0.7780044 0.4106651,0.2658298 0.7911074,0.5052119 1.1886999,0.7872387 0.00981,0.00696 0.4910855,0.3673358 0.5866977,0.4433371 0.079759,0.0634 0.075686,0.061634 0.127494,0.1167149 0,0 0.8430141,-0.5174173 0.8430141,-0.5174173 z" />
    <path
       style="fill:#000000;fill-opacity:1;fill-rule:nonzero;stroke:none;stroke-width:0.264583"
       id="path7771"
       d="m 12.280863,5.1215466 c 0.597083,-0.2417768 1.218734,-0.4180599 1.83581,-0.6004706 0,0 0.560648,-0.4320908 0.560648,-0.4320908 v 0 c -0.538352,0.1539124 -1.078202,0.3024513 -1.624401,0.4261631 0,0 -0.772057,0.6063983 -0.772057,0.6063983 z" />
    <path
       style="fill:#000000;fill-opacity:1;fill-rule:nonzero;stroke:none;stroke-width:0.264583"
       id="path7773"
       d="m 3.1724008,4.7614873 c -0.032928,-0.00583 -0.05171,-0.00763 -0.083787,-0.020127 -0.0205,-0.00799 -0.039766,-0.018867 -0.060002,-0.027501 C 2.9842363,4.6949229 2.9395786,4.6766486 2.89481,4.658662 2.8222584,4.6295115 2.749377,4.6011895 2.6766605,4.5724536 2.5849996,4.5354421 2.4933388,4.4984309 2.4016779,4.4614194 2.3067425,4.4193461 2.2118071,4.3772729 2.1168717,4.3351996 c 0,0 -0.6953915,0.4605261 -0.6953915,0.4605261 v 0 c 0.091609,0.044332 0.1832185,0.088665 0.2748278,0.1329968 0.2198577,0.115589 0.2309243,0.1143574 0.4218336,0.2377411 0.2511475,0.1623158 -0.00529,0.00315 0.1597086,0.1129861 0.04174,0.027787 0.041133,0.025601 0.081695,0.042547 0,0 0.8128559,-0.5605095 0.8128556,-0.5605094 z" />
    <path
       style="fill:#000000;fill-opacity:1;fill-rule:nonzero;stroke:none;stroke-width:0.264583"
       id="path7775"
       d="m 6.8821741,12.004509 c -0.047168,0.308297 -0.174335,0.602495 -0.30494,0.883061 -0.1635532,0.351346 -0.2733855,0.54127 -0.4587407,0.883205 -0.2643957,0.470426 -0.5424794,0.933514 -0.8410585,1.383084 0,0 0.8287594,-0.367779 0.8287594,-0.367779 v 0 c 0.2264545,-0.437212 0.4392472,-0.881514 0.6764496,-1.31319 0.8873305,-1.641463 -0.4197898,0.774565 0.4904336,-0.901091 0.1767956,-0.325468 0.3564461,-0.651176 0.4995185,-0.993357 0,0 -0.8904219,0.426067 -0.8904219,0.426067 z" />
    <path
       style="fill:#000000;fill-opacity:1;fill-rule:nonzero;stroke:none;stroke-width:0.264583"
       id="path7777"
       d="m 8.0541082,12.099377 c 0.013369,0.05689 0.040363,0.171276 0.049546,0.21388 0.037666,0.174737 0.071269,0.35033 0.1082958,0.525204 0.014661,0.06924 0.1561296,0.720434 0.1669859,0.770442 0.104996,0.465959 0.1836968,0.936912 0.2566607,1.408716 0,0 0.7487761,-0.401027 0.7487761,-0.401027 v 0 C 9.2646849,14.161976 9.1497459,13.705724 9.0639979,13.243253 c -0.02317,-0.13721 -0.049123,-0.273979 -0.06951,-0.411629 -0.03976,-0.26845 -0.056853,-0.4364 -0.070239,-0.701689 -0.00686,-0.135975 -0.00884,-0.264523 -6.086e-4,-0.399472 0.00161,-0.0264 0.00611,-0.05254 0.00916,-0.0788 0,0 -0.8786916,0.447716 -0.8786916,0.447716 z" />
    <path
       style="fill:#000000;fill-opacity:1;fill-rule:nonzero;stroke:none;stroke-width:0.264583"
       id="path7779"
       d="m 9.1516303,12.089868 c 0.030302,0.01343 0.061159,0.02567 0.090907,0.04029 0.13398,0.06583 0.249179,0.131933 0.3799136,0.207898 0.2199074,0.12778 0.3708612,0.216048 0.5816921,0.364114 0.101347,0.07118 0.198356,0.148337 0.297534,0.222506 0.407145,0.327506 0.752588,0.72205 1.061273,1.141922 0.144112,0.196021 0.214844,0.312031 0.342612,0.510709 0.08615,0.148061 0.184756,0.28708 0.291816,0.420378 0,0 0.795828,-0.485822 0.795828,-0.485822 v 0 c -0.03165,-0.02716 -0.06472,-0.05277 -0.09496,-0.08149 -0.106386,-0.10105 -0.161584,-0.171216 -0.261138,-0.285935 -0.193567,-0.234978 -0.19033,-0.230161 -0.395238,-0.483036 -0.330966,-0.408445 -0.652165,-0.830968 -1.063767,-1.163713 -0.09779,-0.07632 -0.194882,-0.153547 -0.293383,-0.228949 -0.304361,-0.232986 -0.624268,-0.448564 -0.9048091,-0.710921 0,0 -0.8282787,0.532055 -0.8282787,0.532055 z" />
    <path
       style="fill:#000000;fill-opacity:1;fill-rule:nonzero;stroke:none;stroke-width:0.264583"
       id="path7781"
       d="m 11.054938,11.994066 c 0.64555,0.279463 1.259891,0.624342 1.8678,0.976599 0.482915,0.280644 0.946425,0.592087 1.402196,0.914361 0.14219,0.107071 0.303248,0.18392 0.457075,0.272195 0.08714,0.04929 0.174239,0.09866 0.261315,0.148065 0,0 0.789074,-0.511029 0.789074,-0.511029 v 0 c -0.08312,-0.05176 -0.164084,-0.106374 -0.246849,-0.158661 -0.158224,-0.09262 -0.324707,-0.167733 -0.488407,-0.249954 -0.520586,-0.267547 -1.040627,-0.536507 -1.553776,-0.818089 -0.577543,-0.33098 -1.162499,-0.665207 -1.665144,-1.105995 0,0 -0.823284,0.532508 -0.823284,0.532508 z" />
    <path
       style="fill:#000000;fill-opacity:1;fill-rule:nonzero;stroke:none;stroke-width:0.264583"
       id="path7783"
       d="m 5.4845393,11.883 c -0.016933,0.03274 -0.028252,0.05616 -0.049859,0.0886 -0.1217409,0.182796 -0.2624926,0.353267 -0.40137,0.522909 -0.2784986,0.338114 -0.595906,0.641811 -0.9324832,0.921431 -0.1577504,0.131055 -0.2928073,0.231845 -0.4543246,0.355203 -0.1313262,0.09392 -0.2014347,0.147083 -0.3340803,0.231396 -0.04453,0.0283 -0.1813775,0.107909 -0.1356689,0.08155 1.2575009,-0.725157 0.692322,-0.39642 0.402422,-0.24921 -0.42555,0.221271 -0.8892781,0.403359 -1.2575698,0.713251 -0.054979,0.05104 -0.1064146,0.105719 -0.1584634,0.159696 0,0 0.8942238,-0.370799 0.8942238,-0.370799 v 0 c 0.052996,-0.05191 0.1057741,-0.104654 0.1668201,-0.147282 0.2930131,-0.188369 0.08112,-0.05112 -0.7333948,0.417549 -0.021784,0.01253 0.043877,-0.02453 0.065998,-0.03646 0.1004174,-0.05415 0.2010911,-0.107887 0.3026853,-0.159798 0.5531123,-0.27778 1.1050315,-0.570644 1.5877953,-0.960635 0.4883904,-0.399375 0.9630672,-0.817308 1.3804461,-1.292105 0.1425409,-0.159524 0.2847568,-0.319071 0.420665,-0.484336 0.039401,-0.04791 0.075918,-0.09818 0.1160479,-0.145477 0.00986,-0.01162 0.020886,-0.0222 0.03133,-0.03329 0,0 -0.911219,0.387804 -0.911219,0.387804 z" />
    <path
       style="fill:#000000;fill-opacity:1;fill-rule:nonzero;stroke:none;stroke-width:0.264583"
       id="path7785"
       d="m 4.2600423,11.405993 c -0.4250571,0.139976 -0.8405468,0.306082 -1.2536601,0.47764 -0.3564327,0.155365 -0.7157937,0.305638 -1.0598825,0.487333 0,0 -0.7311976,0.591275 -0.7311976,0.591275 v 0 c 0.3632783,-0.219281 0.7530864,-0.39054 1.1392854,-0.564615 0.2628073,-0.109511 0.524428,-0.215624 0.7959672,-0.30186 0.066435,-0.0211 0.1959147,-0.05961 0.2734297,-0.07699 0.018629,-0.0042 0.037681,-0.0062 0.056521,-0.0093 0,0 0.7795366,-0.60352 0.7795366,-0.60352 z" />
  </g>
</svg>
