<?xml version="1.0" encoding="UTF-8" standalone="no"?>
<!-- Created with Inkscape (http://www.inkscape.org/) -->

<svg
   width="112"
   height="32"
   viewBox="0 0 29.633332 8.4666668"
   version="1.1"
   id="svg5"
   inkscape:version="1.1 (c4e8f9e, 2021-05-24)"
   sodipodi:docname="shruggie.svg"
   inkscape:export-filename="/home/rpolzer/bitmap.png"
   inkscape:export-xdpi="96"
   inkscape:export-ydpi="96"
   xmlns:inkscape="http://www.inkscape.org/namespaces/inkscape"
   xmlns:sodipodi="http://sodipodi.sourceforge.net/DTD/sodipodi-0.dtd"
   xmlns="http://www.w3.org/2000/svg"
   xmlns:svg="http://www.w3.org/2000/svg">
  <sodipodi:namedview
     id="namedview7"
     pagecolor="#ffffff"
     bordercolor="#666666"
     borderopacity="1.0"
     inkscape:pageshadow="2"
     inkscape:pageopacity="0.0"
     inkscape:pagecheckerboard="0"
     inkscape:document-units="mm"
     showgrid="false"
     units="px"
     width="80px"
     inkscape:zoom="17.597674"
     inkscape:cx="57.19506"
     inkscape:cy="24.037268"
     inkscape:window-width="3080"
     inkscape:window-height="2100"
     inkscape:window-x="0"
     inkscape:window-y="0"
     inkscape:window-maximized="1"
     inkscape:current-layer="layer1" />
  <defs
     id="defs2" />
  <g
     inkscape:label="Layer 1"
     inkscape:groupmode="layer"
     id="layer1">
    <path
       style="fill:#000000;stroke-width:0.264583"
       id="path42"
       d="m 0.44636901,2.5116782 c 0.2422345,-0.045824 0.48796351,-0.065259 0.73274829,-0.091178 0.1538456,-0.01629 0.432047,-0.050004 0.580205,-0.067659 0.2826014,-0.029006 0.2982853,-0.03259 0.5696539,-0.053306 0.1504032,-0.011482 0.2675437,-0.021257 0.4178247,-0.016377 0.1876935,0.00609 0.242902,0.018981 0.4272962,0.045183 0,0 0.7313943,-0.5152818 0.7313943,-0.5152818 v 0 C 3.8012475,1.7972974 3.5778912,1.7611044 3.4728884,1.7550134 3.2751169,1.7435424 3.2249455,1.7605634 3.0244176,1.7838114 2.7329939,1.8175944 2.7434105,1.8152944 2.4428832,1.8452394 2.038247,1.8813354 1.6332298,1.9132764 1.2274077,1.9328074 c 0,0 -0.78103869,0.5788698 -0.78103869,0.5788708 z" />
    <path
       style="fill:#000000;stroke-width:0.264583"
       id="path44"
       d="m 4.0779053,2.3625548 c 0.00906,0.021461 0.017984,0.042982 0.02719,0.064383 0.055197,0.1283276 0.067402,0.1485529 0.1183246,0.2931086 0.074215,0.2106756 0.1311452,0.4268021 0.1904352,0.6419655 0.042649,0.1453512 0.071708,0.2941261 0.1100426,0.4405548 0.043851,0.1675008 0.094254,0.3332249 0.1394954,0.5003554 0.044208,0.1633127 0.086147,0.3272313 0.1292628,0.4908356 0.087395,0.3405182 0.1722934,0.6815458 0.2714482,1.0188737 0.072262,0.2353534 0.1584034,0.4660556 0.2356707,0.6998255 0.041505,0.1288746 0.02231,0.067565 0.057881,0.1838373 0,0 0.8380192,-0.4652481 0.8380192,-0.4652481 v 0 C 6.1478635,6.1229465 6.1721639,6.1807111 6.1235895,6.0574105 6.0396283,5.8268883 5.9665278,5.592799 5.8850804,5.3614285 5.7694649,5.0350039 5.6627481,4.7056527 5.5650988,4.3733712 5.5122785,4.1935572 5.4749992,4.0711197 5.4269112,3.8887 5.3303002,3.5222106 5.3914711,3.739171 5.306366,3.3796528 5.2820772,3.2770487 5.2192866,3.0398897 5.1928058,2.9388141 5.1004344,2.5914763 4.9993583,2.245431 4.937689,1.8909455 c 0,0 -0.8597837,0.4716093 -0.8597837,0.4716093 z" />
    <path
       style="fill:#000000;stroke-width:0.264583"
       id="path46"
       d="m 6.399804,6.6375176 c 0.020328,-0.00164 0.040674,-0.00306 0.060985,-0.0049 0.2040702,-0.018465 0.1994315,-0.022717 0.4478771,-0.028957 0.2973031,-0.00747 0.5935126,0.0052 0.8902872,0.020376 0.329351,0.030514 0.659734,0.00283 0.9893517,-0.00643 0.1978697,-0.00845 0.3955759,0.00318 0.5929688,0.015991 0.1675556,0.010716 0.082645,0.00496 0.2547268,0.017312 0,0 0.7619194,-0.5443797 0.7619194,-0.5443797 v 0 c -0.166976,-0.014613 -0.08499,-0.00656 -0.24597,-0.023977 -0.104184,-0.00908 -0.2079967,-0.015589 -0.3124234,-0.020923 -0.065807,-0.00336 -0.1314757,-0.0107 -0.1973673,-0.011089 -0.030114,-1.783e-4 -0.06016,0.00289 -0.09024,0.00433 -0.1408594,0.014483 -0.2815117,0.030771 -0.4227759,0.04103 -0.1478333,0.010737 -0.2485091,0.015192 -0.3977873,0.018042 -0.076202,0.00146 -0.1524259,0.0013 -0.2286388,0.00196 -0.2962858,-0.00273 -0.5933141,-0.00365 -0.889136,-0.022706 -0.6192372,-0.039891 0.017965,-0.00534 -0.3681,-0.036801 -0.015491,-0.00127 -0.031081,3.969e-4 -0.046621,5.821e-4 0,0 -0.7990562,0.5805482 -0.7990562,0.5805482 z" />
    <path
       style="fill:#000000;stroke-width:0.264583"
       id="path48"
       d="m 12.470639,1.748517 c -0.341005,0.1636964 -0.704634,0.3143945 -0.977623,0.5783808 -0.06355,0.061454 -0.118015,0.1305923 -0.173961,0.1987871 -0.01529,0.02102 -0.03223,0.040932 -0.04586,0.063059 -0.01474,0.023911 -0.02636,0.049608 -0.03903,0.074679 -0.0477,0.094439 -0.0903,0.191064 -0.127898,0.2899133 -0.03549,0.1317742 -0.07442,0.2636962 -0.09713,0.3985207 -0.0058,0.034703 -0.01005,0.069662 -0.01508,0.1044938 -0.02423,0.2279655 -0.06584,0.4534786 -0.09347,0.6809954 -0.01012,0.1557065 -0.02195,0.311758 -0.01885,0.4678786 0.0043,0.1255006 0.02634,0.2496021 0.04047,0.3742552 0.01521,0.1133401 0.04958,0.2232247 0.08518,0.331569 0.04563,0.1385699 0.106148,0.2710939 0.168844,0.4025474 0.05662,0.1144418 0.13565,0.2158595 0.206471,0.3216912 0.06323,0.089563 0.126979,0.178517 0.178412,0.2755093 0.02748,0.05638 0.06492,0.1064641 0.101473,0.1570453 0.03601,0.040624 0.06615,0.08524 0.09441,0.1314103 0,0 0.847313,-0.4986636 0.847313,-0.4986636 v 0 C 12.57081,6.0578808 12.53986,6.0133088 12.51053,5.9676232 12.4763,5.9185322 12.4434,5.8685932 12.407331,5.8208028 12.345801,5.7273008 12.2838,5.6340736 12.221706,5.5409657 12.149006,5.4418717 12.070338,5.3465612 12.016491,5.2350687 11.950941,5.1105606 11.896505,4.9812386 11.855589,4.8464247 11.825199,4.7406072 11.801639,4.6334909 11.784119,4.5247723 11.763429,4.4053531 11.743679,4.285436 11.743749,4.1638047 c -0.0031,-0.1505662 -0.0017,-0.3014586 0.01247,-0.4515043 0.01847,-0.2249149 0.04529,-0.4495004 0.09001,-0.6708365 0.03705,-0.166247 0.07641,-0.3327203 0.134774,-0.4929951 0.05822,-0.1407584 0.119529,-0.2815656 0.221102,-0.3974601 0.05703,-0.065954 0.114159,-0.1283187 0.18492,-0.1802002 0.02152,-0.01578 0.09041,-0.056683 0.06719,-0.043528 -0.904071,0.5122128 -1.052218,0.587987 -0.758322,0.4365794 0,0 0.774749,-0.6153428 0.774749,-0.6153428 z" />
    <path
       style="fill:#000000;stroke-width:0.264583"
       id="path50"
       d="m 13.005697,2.5453725 c 0.0074,0.010716 0.0143,0.021759 0.02214,0.032147 0.01472,0.019526 0.03065,0.038121 0.04551,0.05755 0.07967,0.1042376 0.154759,0.2120649 0.230117,0.3194246 0.06417,0.09459 0.125998,0.1907723 0.186863,0.2875169 0,0 0.832752,-0.4893213 0.832752,-0.4893213 v 0 c -0.06839,-0.092226 -0.138066,-0.1835713 -0.202915,-0.2783549 -0.03757,-0.055732 -0.07988,-0.1181288 -0.116822,-0.1744095 -0.0513,-0.078141 -0.105953,-0.1561626 -0.137377,-0.244965 0,0 -0.86026,0.4904122 -0.86026,0.4904122 z" />
    <path
       style="fill:#000000;stroke-width:0.264583"
       id="path54"
       d="m 14.175434,2.3546314 c 0.01423,0.012237 0.0284,0.024537 0.04269,0.036713 0.06293,0.05365 0.09819,0.081716 0.160983,0.1411654 0.09226,0.087352 0.176217,0.1814788 0.259309,0.2773864 0.07598,0.092015 0.153853,0.1841268 0.21682,0.2858459 0.01852,0.033056 0.01035,0.016857 0.02487,0.048425 0,0 0.856296,-0.4896184 0.856296,-0.4896184 v 0 c -0.02113,-0.036659 -0.0098,-0.017903 -0.03413,-0.056166 C 15.627302,2.4962711 15.532057,2.4115286 15.444332,2.3206381 15.295338,2.1678905 15.14675,2.013385 15.017827,1.842994 c 0,0 -0.842393,0.5116374 -0.842393,0.5116374 z" />
    <path
       style="fill:#000000;stroke-width:0.264583"
       id="path56"
       d="m 16.454169,2.4315097 c -0.0051,0.011704 -0.01079,0.023143 -0.01519,0.035113 -0.07713,0.2098026 0.04703,-0.1105262 -0.05253,0.152469 -0.01228,0.032451 -0.02613,0.064291 -0.03876,0.096608 -0.03118,0.079766 -0.06142,0.1598982 -0.09247,0.2397161 -0.09224,0.2188411 -0.16537,0.4454192 -0.262325,0.6623352 -0.01889,0.042266 -0.03995,0.083533 -0.05992,0.1252992 -0.125188,0.2511616 -0.285322,0.4824897 -0.452777,0.7068791 -0.163689,0.2097008 -0.358264,0.3917246 -0.560167,0.5637758 -0.08046,0.06433 -0.108502,0.089955 -0.19422,0.1460264 -0.03132,0.020487 -0.128535,0.076733 -0.09615,0.057966 1.285812,-0.7452179 0.870969,-0.4912243 0.580033,-0.3482543 -0.123861,0.06399 -0.254591,0.1105069 -0.386296,0.155036 -0.159466,0.056747 -0.314948,0.1233205 -0.475913,0.1759432 -0.105752,0.033003 -0.213909,0.057298 -0.320736,0.08642 -0.03755,0.010432 -0.07504,0.020968 -0.112853,0.030387 0,0 -0.780619,0.600561 -0.780619,0.600561 v 0 c 0.0412,-0.012755 0.08278,-0.024209 0.123662,-0.038012 0.02613,-0.00792 0.08242,-0.025297 0.109053,-0.032094 0.07377,-0.018823 0.149229,-0.031699 0.221214,-0.057231 0.160803,-0.052789 0.31925,-0.1117057 0.476419,-0.1744765 0.06179,-0.021704 0.07807,-0.028161 0.140318,-0.047131 0.02225,-0.00678 0.04498,-0.011996 0.06705,-0.019357 0.06447,-0.021505 0.124861,-0.052815 0.186985,-0.079942 0.380847,-0.1845545 0.588533,-0.3218375 1.05277,-0.5949841 0.10101,-0.059433 0.188263,-0.1405594 0.278621,-0.2141048 0.198438,-0.1776862 0.388345,-0.3663503 0.547629,-0.5806697 0.166316,-0.2290812 0.318191,-0.4689572 0.443347,-0.7232567 0.01912,-0.042827 0.03898,-0.085331 0.05736,-0.1284796 0.09332,-0.2190813 0.169316,-0.4452757 0.26442,-0.6636575 0.08223,-0.1932188 0.02521,-0.061196 0.106612,-0.2450635 0.04402,-0.09943 0.08486,-0.201566 0.14994,-0.2897055 0,0 -0.904493,0.4018851 -0.904493,0.4018851 z" />
    <path
       style="fill:#000000;stroke-width:0.264583"
       id="path58"
       d="m 17.927294,2.4113868 c 0.122161,0.1003873 0.232206,0.2139102 0.340076,0.3291711 0.105605,0.1234019 0.205446,0.2538672 0.28037,0.3986149 0.0124,0.023958 0.02311,0.048758 0.03466,0.073137 0.0598,0.1301549 0.08853,0.2704775 0.116437,0.4100399 0.02501,0.1525804 0.04325,0.3062512 0.05657,0.4602705 0.0088,0.115521 0.013,0.2313551 0.0034,0.3469552 -0.0033,0.040092 -0.01158,0.1037133 -0.01658,0.1442085 -0.01476,0.1218991 -0.05044,0.2392077 -0.09651,0.3525319 -0.04316,0.086932 -0.08374,0.1752852 -0.130321,0.2604887 -0.0271,0.049564 -0.06847,0.1177993 -0.09725,0.1660115 -0.09467,0.1493691 -0.18607,0.3006254 -0.285075,0.4471691 -0.07844,0.095209 -0.14833,0.1968306 -0.225109,0.2933739 -0.07532,0.085737 -0.159644,0.1625061 -0.239494,0.2438556 -0.01525,0.015412 -0.03045,0.030868 -0.04574,0.046235 -0.04131,0.041508 -0.04611,0.048366 -0.09094,0.083903 -0.03367,0.026694 -0.07051,0.04807 -0.105444,0.072904 -0.298206,0.1534956 -0.602812,0.3424674 0.782278,-0.4529666 0.0058,-0.00333 -0.01101,0.0077 -0.01705,0.010552 -0.01216,0.00573 -0.02528,0.00919 -0.0376,0.014573 -0.0066,0.00254 -0.01319,0.00507 -0.01978,0.00761 0,0 -0.787784,0.5981247 -0.787784,0.5981247 v 0 c 0.0079,-5.556e-4 0.0157,-0.00111 0.02355,-0.00167 0.06749,-0.011057 -0.02187,0.00494 0.04104,-0.010549 0.0077,-0.00188 0.01651,3.175e-4 0.02339,-0.00353 0.27072,-0.1512543 0.637802,-0.3039803 0.906684,-0.524988 0.08146,-0.062385 0.149053,-0.1401004 0.222828,-0.2109777 0.083,-0.081144 0.166581,-0.1621137 0.235941,-0.2557185 0.07376,-0.09748 0.147728,-0.1951109 0.214606,-0.2974726 0.0927,-0.1477791 0.182629,-0.2972718 0.273264,-0.4463256 0.08596,-0.1455979 0.17364,-0.2915227 0.236718,-0.4488704 0.04296,-0.1209842 0.07387,-0.2458469 0.08244,-0.3744156 0.01161,-0.1674201 0.01064,-0.3349252 -0.0013,-0.5024033 -0.0106,-0.1584605 -0.02972,-0.3159783 -0.05695,-0.4725008 -0.02773,-0.1484194 -0.06306,-0.2950555 -0.13266,-0.4303685 -0.0303,-0.059397 -0.04897,-0.099326 -0.08498,-0.156071 -0.0746,-0.1175536 -0.168286,-0.2214488 -0.254715,-0.3300569 -0.09849,-0.1203272 -0.203109,-0.235148 -0.304038,-0.3533419 0,0 -0.84493,0.5124965 -0.84493,0.5124965 z" />
    <path
       style="fill:#000000;stroke-width:0.264583"
       id="path62"
       d="m 19.339854,6.636471 c 0.02356,-5.028e-4 0.04714,-5.821e-4 0.07068,-0.00151 0.19242,-0.00772 0.124416,-0.00976 0.331682,-0.010104 0.057,-9.68e-5 0.113993,0.00225 0.170995,0.00209 0.134135,-4.233e-4 0.268238,-0.00424 0.402361,-0.00617 0.263438,-6.086e-4 0.526878,-6.615e-4 0.790301,0.00233 0.138634,0.00249 0.276988,-0.00795 0.415589,-0.00695 0.09194,0.00525 0.183668,-5.292e-4 0.27544,-0.00559 0.07049,-0.00617 0.141319,-0.00749 0.211814,-0.013229 0.01448,-4.498e-4 0.02895,-8.731e-4 0.04343,-0.00132 0,0 0.792307,-0.5755609 0.792307,-0.5755609 v 0 c -0.01363,-4.497e-4 -0.02726,-9.26e-4 -0.0409,-0.00138 -0.07522,-0.00574 -0.149749,0.00592 -0.224419,0.014393 -0.08968,0.00828 -0.179531,0.00797 -0.269524,0.00909 -0.06113,0.00138 -0.122496,0.00156 -0.183541,0.00536 -0.08297,0.00518 -0.165643,0.016433 -0.248983,0.014946 -0.108927,0.00103 -0.217976,0.00212 -0.326799,0.00749 -0.168812,0.00834 -0.337459,0.022418 -0.506679,0.020532 -0.27857,7.409e-4 -0.119432,0.00122 -0.388804,-0.00151 -0.170208,-0.00172 -0.340981,-0.00156 -0.509689,-0.027735 0,0 -0.805264,0.5748578 -0.805264,0.5748578 z" />
    <path
       style="fill:#000000;stroke-width:0.264583"
       id="path74"
       d="m 24.607457,2.639871 c -0.0062,0.021507 -0.01173,0.043231 -0.01865,0.064523 -0.0093,0.028529 -0.01994,0.056585 -0.02991,0.084877 -0.01188,0.035592 -0.0241,0.071073 -0.03564,0.1067751 -0.04353,0.1346121 -0.08604,0.2690722 -0.132518,0.4027294 -0.06859,0.1950604 -0.165436,0.3784304 -0.241973,0.5701895 -0.0247,0.06188 -0.07115,0.1957237 -0.09366,0.2596314 -0.04799,0.1360371 -0.09958,0.2710228 -0.141261,0.4092088 -0.01829,0.060647 -0.03485,0.1218068 -0.05282,0.1825488 -0.0314,0.1166302 -0.07759,0.2284169 -0.115577,0.3428084 -0.01618,0.048718 -0.04661,0.1569943 -0.0602,0.2044221 -0.0552,0.1872499 -0.118994,0.3717552 -0.180166,0.5571091 -0.02837,0.08595 -0.0611,0.1705017 -0.08399,0.2581777 -0.01006,0.038529 -0.01867,0.077421 -0.02822,0.1160802 -0.01851,0.070325 -0.04734,0.1371205 -0.07156,0.2054725 -0.0127,0.035858 -0.02382,0.072258 -0.03579,0.1083696 -0.0213,0.067797 -0.04766,0.1328714 -0.08087,0.1955895 0,0 0.895115,-0.409004 0.895115,-0.409004 v 0 c 0.02523,-0.065398 0.04287,-0.133278 0.06581,-0.1994916 0.03654,-0.1062829 0.07869,-0.2109467 0.103248,-0.3209626 0.03006,-0.122696 0.06761,-0.2431521 0.10501,-0.3637796 0.05584,-0.1834645 0.108676,-0.3678325 0.16573,-0.5509212 0.0616,-0.1839603 0.132537,-0.3648168 0.18318,-0.5523664 0.05659,-0.1940822 0.115682,-0.3874529 0.179,-0.5794528 0.04326,-0.1253625 0.04238,-0.1270276 0.09177,-0.2525697 0.07536,-0.191562 0.162265,-0.3783991 0.233883,-0.5714683 0.08573,-0.2293326 0.164896,-0.461153 0.265607,-0.6846098 0,0 -0.885543,0.4161139 -0.885543,0.4161139 z" />
    <path
       style="fill:#000000;stroke-width:0.264583"
       id="path78"
       d="m 25.729063,2.6811058 c 0.09856,0.00336 0.19598,0.019522 0.294001,0.028684 0.08983,0.0084 0.109978,0.00758 0.20491,0.010901 0.117346,0.00199 0.234641,0.00556 0.351918,0.00997 0.03028,0.00114 0.06054,0.00335 0.09085,0.00343 0.0891,2.452e-4 0.178168,-0.00367 0.267259,-0.00506 0.125769,-0.00152 0.25155,3.915e-4 0.377258,0.00426 0.02529,7.779e-4 0.133586,0.00542 0.161632,0.00446 0.052,-0.00178 0.10388,-0.00623 0.155821,-0.00935 0.271433,-0.016741 0.54343,-0.011935 0.815065,-0.00488 0,0 0.739187,-0.5370657 0.739187,-0.5370657 v 0 c -0.267287,0.00654 -0.535053,0.01302 -0.8021,-0.00458 -0.04344,-0.00307 -0.08681,-0.00764 -0.130329,-0.00922 -0.02479,-8.995e-4 -0.15459,0.00415 -0.174191,0.00473 -0.129341,0.00379 -0.258754,0.00593 -0.388154,0.00399 -0.08299,-0.0018 -0.165931,-0.00589 -0.248933,-0.00709 -0.148786,-0.00216 -0.297902,0.00632 -0.446519,-0.0062 -0.154154,-0.010459 -0.309835,-0.019092 -0.460438,-0.055989 0,0 -0.807234,0.5690096 -0.807234,0.5690096 z" />
  </g>
</svg>
