<?xml version="1.0" encoding="UTF-8" standalone="no"?>
<!-- Created with Inkscape (http://www.inkscape.org/) -->

<svg
   width="32"
   height="32"
   viewBox="0 0 8.4666665 8.4666669"
   version="1.1"
   id="svg5"
   sodipodi:docname="touch_jump.svg"
   inkscape:version="1.1 (c4e8f9e, 2021-05-24)"
   inkscape:export-filename="/home/rpolzer/src/aaaaxy/assets/sprites/touch_jump.png"
   inkscape:export-xdpi="96"
   inkscape:export-ydpi="96"
   xmlns:inkscape="http://www.inkscape.org/namespaces/inkscape"
   xmlns:sodipodi="http://sodipodi.sourceforge.net/DTD/sodipodi-0.dtd"
   xmlns="http://www.w3.org/2000/svg"
   xmlns:svg="http://www.w3.org/2000/svg">
  <sodipodi:namedview
     id="namedview7"
     pagecolor="#ffffff"
     bordercolor="#666666"
     borderopacity="1.0"
     inkscape:pageshadow="2"
     inkscape:pageopacity="0.0"
     inkscape:pagecheckerboard="0"
     inkscape:document-units="mm"
     showgrid="false"
     units="px"
     width="32px"
     inkscape:zoom="34.99377"
     inkscape:cx="-2.0432208"
     inkscape:cy="15.774236"
     inkscape:window-width="3840"
     inkscape:window-height="2160"
     inkscape:window-x="0"
     inkscape:window-y="0"
     inkscape:window-maximized="1"
     inkscape:current-layer="layer1" />
  <defs
     id="defs2" />
  <g
     inkscape:label="Layer 1"
     inkscape:groupmode="layer"
     id="layer1">
    <path
       style="fill:#000000;stroke-width:0.264583"
       id="path225"
       d="m 2.9785386,5.5866476 c 0.00598,-0.033077 0.024688,-0.1369639 0.02706,-0.1452173 0.01688,-0.058728 0.036724,-0.1167315 0.060165,-0.1731619 0.029907,-0.071996 0.066976,-0.1408075 0.099659,-0.211587 C 3.3503309,4.6562348 3.2005979,4.9634356 3.4046146,4.5558966 3.4455541,4.4697176 3.4864227,4.383505 3.5274329,4.2973598 3.5679464,4.2122582 3.6091915,4.1275034 3.6491854,4.0421567 3.7175003,3.8963729 3.8074343,3.6981638 3.8719635,3.5499352 3.9204055,3.4386594 4.026209,3.1858669 4.0733651,3.0736423 4.0862477,3.0427525 4.2552098,2.6371185 4.2694164,2.6048215 4.3320369,2.4624618 4.3876319,2.3485447 4.4586485,2.2118612 c 0.024543,-0.047235 0.049476,-0.094285 0.075739,-0.1405847 0.019571,-0.034504 0.04115,-0.067832 0.061725,-0.1017474 -0.2389127,0.1542557 -0.499859,0.2788169 -0.716738,0.462767 -0.029611,0.025115 0.071615,0.033695 0.099252,0.060966 0.040719,0.040181 0.072184,0.089167 0.1022278,0.1378486 0.095055,0.1540208 0.1487051,0.3279409 0.2057027,0.4980963 0.016076,0.052158 0.032863,0.1041035 0.048232,0.1564748 0.014679,0.050018 0.028834,0.1002001 0.041902,0.1506628 0.026067,0.100665 0.038045,0.1802344 0.074831,0.277939 0.011274,0.029947 0.1356656,0.3011151 0.1447525,0.3210282 0.027262,0.060984 0.054297,0.1220695 0.081785,0.1829519 0.076847,0.1702118 0.1095529,0.2319073 0.1759818,0.407897 0.070951,0.1879696 0.1277361,0.3826246 0.1840945,0.5753595 0.040328,0.1587659 0.092805,0.3138273 0.1459981,0.4685916 0.070939,0.2063986 0.033608,0.098457 0.1048885,0.3034149 0,0 0.7207589,-0.3987818 0.7207589,-0.3987818 v 0 C 5.9620393,5.4430334 5.9482344,5.4068413 5.9027951,5.2738226 5.8502965,5.1201386 5.8027276,4.9643977 5.735059,4.8163646 5.7241714,4.7897975 5.5968547,4.4791473 5.5896366,4.4614192 5.5624989,4.3947664 5.5346962,4.3283753 5.5086149,4.2613024 5.4310996,4.0619566 5.4267068,4.0397877 5.3568888,3.8393073 5.3347775,3.7758174 5.3122768,3.7124645 5.2899706,3.6490433 5.1769128,3.2945929 5.2846075,3.641672 5.1899663,3.3102338 5.1525905,3.1793431 5.1458214,3.168016 5.1016114,3.0392012 5.0236641,2.8120877 5.0795345,2.9677794 4.9941604,2.7360247 4.972019,2.6829594 4.9504292,2.6296603 4.9277362,2.5768285 4.8227448,2.3323969 4.882326,2.4825104 4.7775542,2.2304792 4.7538007,2.1733393 4.7321292,2.1153408 4.7079299,2.0583881 4.6860129,2.0068069 4.6928301,1.8885643 4.639229,1.9049316 4.3352643,1.9977482 4.0731588,2.1940728 3.7901239,2.3386434 3.7591537,2.4623186 3.7265866,2.5851476 3.6857286,2.7060586 3.6244614,2.8873672 3.5947069,2.9552669 3.5201965,3.1379628 c -0.03199,0.078438 -0.064449,0.1566825 -0.096674,0.2350238 -0.1311101,0.3157143 -0.065152,0.1577451 -0.1978793,0.4739055 -0.032792,0.078741 -0.064323,0.1580092 -0.0977,0.2365042 -0.1083628,0.25484 -0.2234176,0.5069567 -0.347154,0.754712 -0.042345,0.084644 -0.082295,0.1705303 -0.127036,0.2539336 -0.047569,0.088677 -0.099535,0.1749258 -0.149788,0.2621106 C 2.4602666,5.4299667 2.417928,5.5066107 2.3719019,5.581035 2.2840701,5.7230597 2.186809,5.8578329 2.0886488,5.9926574 c 0,0 0.8898898,-0.4060098 0.8898898,-0.4060098 z" />
    <path
       style="fill:#000000;stroke-width:0.264583"
       id="path227"
       d="m 2.7334263,5.0486688 c 0.036674,-0.01334 0.075455,-0.00907 0.113507,-0.00893 0.1908892,6.88e-4 -0.1535755,-0.00431 0.1370317,6.88e-4 0.1633561,3.175e-4 0.3251946,0.024286 0.4835525,0.06316 0.058598,0.014385 0.08278,0.022386 0.1374947,0.038965 0.017044,0.00428 0.033615,0.01147 0.051135,0.012824 0.051825,0.00401 0.2158714,-0.00717 0.2523545,-0.0086 0.1482974,-0.00582 0.2184728,-0.00818 0.3666614,-0.00156 0.053064,0.00238 0.1059628,0.00758 0.158944,0.011367 0.076925,0.00124 0.1517459,0.02245 0.2281777,0.027894 0.041131,0.00293 0.082453,0.00172 0.1236797,0.00259 0,0 0.703248,-0.5065109 0.703248,-0.5065109 v 0 c -0.038935,-0.00246 -0.077797,-0.00676 -0.1168035,-0.00735 -0.091716,-0.0014 -0.1833332,0.010983 -0.2751175,0.00593 C 4.950751,4.6765959 4.8999634,4.6783951 4.753365,4.6649989 4.703099,4.6603989 4.6530339,4.6536959 4.6030602,4.6465949 4.5662842,4.6413649 4.5297952,4.6342949 4.493183,4.6280269 4.469527,4.6239769 4.446081,4.6185269 4.422255,4.6156389 4.401993,4.6131789 4.381506,4.6132089 4.36113,4.6119989 4.1497266,4.5989019 3.93602,4.5795339 3.7339728,4.5120919 c -0.020487,-0.00674 -0.040947,-0.013562 -0.061459,-0.020227 -0.013806,-0.00449 -0.027333,-0.010033 -0.041494,-0.013232 -0.010739,-0.00243 -0.021897,-0.00233 -0.03284,-0.00356 -0.034551,-0.00387 -0.023069,-0.00146 -0.053935,-0.0095 -0.00544,-0.0014 -0.010837,-0.00297 -0.016256,-0.00445 0,0 -0.7945641,0.5875512 -0.7945641,0.5875512 z" />
    <path
       style="fill:#000000;stroke-width:0.264583"
       id="path124"
       d="m 0.77816878,1.2700102 c 0.006431,0.044922 0.0211148,0.088622 0.0255675,0.1338155 0.005045,0.051202 0.005233,0.2537184 0.00561,0.2949454 7.4613e-4,0.081939 0.002841,0.272661 0.003726,0.3546484 7.7523e-4,0.054913 9.8425e-4,0.1098374 0.002323,0.1647399 0.001204,0.049469 0.001646,0.099008 0.005301,0.1483571 0.005961,0.080499 0.0236077,0.1914616 0.0356723,0.2716155 0.0279362,0.1856 0.0112726,0.065923 0.0351893,0.2463364 0.0149609,0.1206164 0.028147,0.2414442 0.0403237,0.362371 0.00497,0.049355 0.0123579,0.098546 0.0145243,0.1481029 0.005665,0.1296058 -0.003704,0.1881478 -0.0149611,0.3170338 -0.0222845,0.1296328 -0.0257985,0.1690449 -0.0599598,0.294682 -0.0117483,0.043207 -0.0261554,0.08565 -0.0398461,0.1282814 -0.0124719,0.038837 -0.0248949,0.077706 -0.038638,0.1161108 -0.0274572,0.076729 -0.0465401,0.119017 -0.0777414,0.1925855 -0.12838046,0.2798021 0.0458676,-0.098796 -0.0604233,0.1289412 -0.0107606,0.023056 -0.0281506,0.059305 -0.0331976,0.08526 -0.006115,0.031446 -0.0037,0.076304 -0.003339,0.1070485 0.004269,0.048395 0.0139864,0.1540574 0.0157422,0.1966532 0.002651,0.064325 0.001945,0.2050113 -3.8894e-4,0.2680541 -0.003263,0.088131 -0.0107984,0.167109 -0.0180938,0.2547215 -0.0263914,0.1962134 -0.0204068,0.3942252 -0.0160965,0.5914946 0.004593,0.1162825 0.0214921,0.231521 0.0358496,0.3468412 0.007941,0.063782 0.0120846,0.107251 0.0186238,0.1707949 0.006573,0.068066 0.00855,0.1364308 0.0124997,0.2046602 0.003264,0.056379 0.005339,0.06613 0.007186,0.1229262 6.6939e-4,0.020566 6.1912e-4,0.041146 9.2869e-4,0.06172 -0.001418,0.1194334 -0.003705,0.238819 -0.007963,0.3581849 3.0427e-4,0.055172 -0.0152149,0.1094608 -0.0134088,0.1646436 0.004991,0.1524916 0.002945,-0.074319 0.003577,0.088237 0.004857,0.025673 -0.005541,0.052245 -0.001783,0.077968 0.006372,0.043615 0.037373,0.0803 0.0806856,0.091272 0.0139422,0.00353 0.0287337,0.00135 0.0431005,0.00201 0.019689,-0.00293 0.0393881,-0.00578 0.0590669,-0.00878 0.0277859,-0.00423 0.0554384,-0.0094 0.0833265,-0.012885 0.0835354,-0.010454 0.15838997,-0.015661 0.24354097,-0.015917 0.1299063,-3.969e-4 0.1911975,0.0067 0.3204636,0.016354 0.048584,0.00492 0.097156,0.00994 0.1457512,0.014745 0.1218057,0.012039 0.142834,0.017002 0.2669098,0.014452 0.1213486,-0.00249 0.2301765,-0.014687 0.3520088,-0.02264 0.066498,-0.00434 0.1330759,-0.00734 0.1996138,-0.011009 0.1662627,-0.00651 0.1915861,-0.00785 0.3522366,-0.012872 0.087336,-0.00273 0.1780934,-0.00369 0.2653517,-0.010729 0.027244,-0.0022 0.3445013,-0.036229 0.3464348,-0.036435 0.3034054,-0.030158 0.6081242,-0.049909 0.9131594,-0.043234 0.1192334,0.00262 0.1688515,0.00765 0.2818656,0.016169 0.076482,0.00882 0.153352,0.013123 0.2297317,0.022844 0.013018,0.00167 0.065262,0.010036 0.080671,0.010454 0.018206,5.027e-4 0.036408,-0.00111 0.054612,-0.00167 0.1191022,-0.00618 0.2383809,-0.00623 0.3573891,0.00138 0.013578,-1.931e-4 0.027186,3.175e-4 0.040738,-5.821e-4 0.1293927,-0.00847 0.01656,-0.0068 0.160382,-0.011972 0.1378204,-0.00495 0.025876,0.00108 0.1483781,0.00159 0.026825,1.119e-4 0.053634,-0.0013 0.080452,-0.00193 0.03889,-0.00278 0.077725,-0.00648 0.1166707,-0.00832 0.039754,-0.00188 0.079577,-0.00183 0.119363,-0.00284 0.1002541,-0.00257 0.1655747,-0.0056 0.2658843,-0.00451 0.074905,8.202e-4 0.1497489,0.00455 0.2246265,0.00671 0.1305446,6.35e-4 0.2610866,2.645e-4 0.3913238,0.010221 0.019997,0.00153 0.042195,0.014523 0.05994,0.00518 0.289011,-0.1521761 0.5676066,-0.3233616 0.8514098,-0.4850423 9.261e-4,-0.030899 0.00257,-0.061785 0.00279,-0.092697 2.323e-4,-0.032548 -9.26e-4,-0.065091 -0.00143,-0.097636 -0.00116,-0.074917 -0.00169,-0.1339244 -0.00541,-0.2089348 -0.00353,-0.071123 -0.00904,-0.1421336 -0.013446,-0.2132076 -0.00881,-0.1729272 -0.014264,-0.3460525 -0.01333,-0.5192056 -2.54e-4,-0.1008505 0.016179,-0.2007338 0.019878,-0.3013401 0.00188,-0.050853 0.00103,-0.1017688 0.00153,-0.1526532 -0.00183,-0.1052462 0.011377,-0.2097378 0.01964,-0.3144192 0.00585,-0.074105 0.00573,-0.086648 0.00917,-0.1631246 0.00305,-0.031524 0.00539,-0.063125 0.00915,-0.094572 0.014862,-0.1242471 0.037136,-0.2476733 0.054955,-0.371501 0.047892,-0.3328045 -0.00539,0.014174 0.048889,-0.3320031 0.00992,-0.058953 0.018828,-0.1180865 0.029768,-0.1768589 0.019248,-0.1034105 0.04735,-0.2272159 0.069975,-0.3304868 0.026963,-0.1230738 0.05317,-0.2462535 0.078536,-0.3696644 0.00916,-0.068516 0.016846,-0.1133973 0.019608,-0.1821029 0.00251,-0.062332 -0.00138,-0.1274588 -0.00282,-0.1896687 -0.00417,-0.1803069 0.00191,-0.019471 -0.00612,-0.2031429 -0.011613,-0.1814155 -0.010927,-0.3635465 -0.00373,-0.5451319 -9.79e-4,-0.02368 -7.673e-4,-0.047438 -0.00291,-0.07104 -0.00262,-0.028873 -0.0076,-0.057485 -0.011409,-0.086227 -0.00316,-0.033249 -0.00685,-0.06645 -0.00947,-0.099746 -0.00275,-0.035032 -0.00411,-0.070162 -0.00661,-0.1052123 -0.00623,-0.087182 -0.010514,-0.1281655 -0.018608,-0.2151504 -0.00937,-0.10846 -0.00817,-0.2175544 -0.017182,-0.3260286 -0.00201,-0.024322 -0.00879,-0.079399 -0.011819,-0.1047419 -0.0065,-0.042684 -0.011919,-0.085778 -0.021204,-0.1279928 -0.00332,-0.015081 -0.00782,-0.029879 -0.011345,-0.044912 -0.00919,-0.039192 -0.012517,-0.058727 -0.020143,-0.098412 -0.00806,-0.050143 -0.015846,-0.10038596 -0.021606,-0.15085803 -0.00324,-0.0283706 -0.00342,-0.0571395 -0.00846,-0.085245 -0.00222,-0.0124402 -0.00646,-0.0244374 -0.0097,-0.0366564 -0.00103,-0.003051 -0.015597,-0.0494165 -0.020632,-0.0536461 -0.069606,-0.0584579 -0.1011187,-0.0392905 -0.2025451,-0.0322182 -0.080213,0.005593 -0.1600769,0.0153921 -0.2401176,0.0230653 -0.1240382,0.0118912 -0.2480794,0.0237516 -0.3721193,0.0356274 -0.3740476,0.0263933 -0.7493739,0.0234257 -1.12315,-0.004826 -0.085609,-0.006471 -0.1708602,-0.0170345 -0.2563175,-0.0252747 -0.069541,-0.006705 -0.138812,-0.0197651 -0.208675,-0.0195622 -0.1005094,2.9104e-4 -0.2005298,0.0140277 -0.3007945,0.0210418 -0.3259947,0.0282305 -0.6531017,0.043455 -0.9803402,0.0422612 -0.293683,-0.001072 -0.1647121,-0.0054 -0.4215593,-0.0137017 -0.053298,-0.001722 -0.106639,-0.00164 -0.1599586,-0.002461 -0.3043489,0.0290432 -0.6091195,0.0550884 -0.9150411,0.0576029 -0.1466657,0.001206 -0.1879191,-0.002135 -0.3263178,-0.008102 -0.036132,-0.002532 -0.072181,-0.008303 -0.1083945,-0.007593 -0.1223873,0.002402 -0.3220143,0.0357351 -0.4290275,0.0456504 -0.2269922,0.021032 -0.2965458,0.017835 -0.5174464,0.0206843 0,0 -0.58523895,0.42795973 -0.58523895,0.42795973 v 0 c 0.1891207,-0.00905 0.31331515,-0.019774 0.50225825,-0.01002 0.065283,0.00337 0.1298186,0.015908 0.1950097,0.020738 0.1396425,0.010345 0.1392513,0.00388 0.2786931,-0.011415 0.1581531,-0.015385 0.2199992,-0.022473 0.384112,-0.033561 0.2899125,-0.019586 0.5804311,-0.026733 0.8709725,-0.024762 0.062873,-0.00621 0.1258178,-0.011743 0.1886193,-0.018643 0.2483993,-0.027289 0.2467211,-0.033896 0.5132012,-0.054286 0.3168406,-0.024244 0.6348444,-0.0329 0.9524994,-0.022936 0.08569,0.00258 0.1713487,0.00891 0.2570692,0.00774 0.085112,-0.00117 0.1699242,-0.010403 0.2549332,-0.014748 0.4696568,-0.024005 0.941402,-0.03669 1.4103178,0.00858 0.087773,0.013891 0.1758526,0.025966 0.2633189,0.041672 0.051791,0.0093 0.103139,0.021024 0.1543018,0.03332 0.022558,0.00542 0.043664,0.017281 0.066728,0.019799 0.00485,5.292e-4 0.00416,-0.011279 0.00904,-0.011525 0.011544,-5.821e-4 0.011763,0.028882 0.020704,0.027817 0.032094,0.080425 0.039012,0.1670726 0.053029,0.2518571 0.00671,0.038701 0.011065,0.06206 0.016574,0.1008909 0.00228,0.015957 0.00359,0.032044 0.00614,0.047958 0.00666,0.041649 0.017531,0.082616 0.026825,0.1237056 0.015118,0.062254 0.00757,0.030128 0.022566,0.096398 0.023767,0.098375 0.049804,0.1964635 0.060205,0.297497 0.010046,0.1057599 0.018513,0.211437 0.018717,0.3177863 2.911e-4,0.1576101 -0.00318,0.051087 -0.0094,0.1999937 -0.00103,0.024503 -9.07e-5,0.049049 -1.36e-4,0.073574 0.00772,0.076212 0.014745,0.1523534 0.020831,0.2287154 0.00301,0.03781 0.012896,0.1558364 0.014502,0.1918036 0.00159,0.035579 0.00143,0.071214 0.00214,0.1068207 1.381e-4,0.034012 9.525e-4,0.167793 6.77e-5,0.2030402 -0.003,0.120799 -0.016912,0.241091 -0.01995,0.3619116 -0.00101,0.031218 -0.0014,0.062462 -0.00303,0.093654 -0.012925,0.2496852 -0.050984,0.4978903 -0.1022302,0.7423568 -0.03158,0.1562055 -0.036218,0.1884463 -0.074535,0.3417195 -0.04188,0.1675291 -0.098545,0.3320216 -0.1205357,0.5039902 -0.013171,0.085163 -0.015732,0.090692 -0.022315,0.1724162 -0.00847,0.105159 -0.00645,0.2108441 -0.014764,0.3160205 -0.00447,0.075086 -0.011634,0.1500367 -0.013798,0.22524 -0.00151,0.052507 -7.938e-4,0.094308 -0.00114,0.1470592 -1.733e-4,0.027428 -5.82e-4,0.054854 -8.731e-4,0.082281 1.437e-4,0.053819 -2.246e-4,0.1139151 0.00201,0.167721 0.00138,0.032679 0.00873,0.1361712 0.011972,0.1676598 0.00298,0.028891 0.00727,0.057631 0.010882,0.086448 0.00389,0.031048 0.00776,0.062098 0.011642,0.093147 0.003,0.033757 0.00693,0.067443 0.00899,0.10127 0.00405,0.066429 0.00506,0.1439649 0.00169,0.210488 -0.00274,0.054233 -0.00771,0.1384739 -0.03177,0.1897893 -0.00995,0.021227 -0.029629,0.036345 -0.044444,0.054518 0.2549657,-0.1372865 0.5149731,-0.2655962 0.7648972,-0.41186 0.021648,-0.012671 -0.049822,0.00598 -0.074824,0.00801 -0.1381297,0.011163 -0.2768981,0.00422 -0.4152876,0.00741 -0.08056,0.00188 -0.1610963,0.0053 -0.2416771,0.00577 -0.1011782,5.821e-4 -0.1510836,-0.00249 -0.2511292,-0.00605 -0.1442334,-0.00512 -0.071133,1.209e-4 -0.2028508,-0.012967 -0.025029,-8.467e-4 -0.050046,-0.00254 -0.07509,-0.00251 -0.1162648,1.778e-4 -0.036015,0.00625 -0.1558817,0.00343 -0.1358802,-0.0032 -0.013822,-0.00241 -0.1263782,-0.012205 -0.014354,-0.00124 -0.028816,-3.705e-4 -0.043224,-5.557e-4 -0.1201251,0.011687 -0.2409799,0.019465 -0.3614272,0.00666 -0.015393,-0.00116 -0.030746,-0.00325 -0.046182,-0.0035 -0.019211,-3.175e-4 -0.090514,0.00504 -0.1051105,0.00597 -0.098363,0.00632 -0.1968931,0.010335 -0.2949548,0.020801 -0.1894557,0.01769 -0.3789797,0.034943 -0.5690492,0.044806 -0.1797891,0.00933 -0.285573,0.011478 -0.4646882,0.010779 -0.066684,-2.592e-4 -0.1333524,-0.00214 -0.2000284,-0.00321 -0.1192962,-0.00225 -0.1902077,-0.00696 -0.3068275,0.00286 -0.046828,0.00394 -0.093251,0.011748 -0.1398704,0.017666 -0.1755288,0.022286 -0.3512765,0.044126 -0.5284028,0.048926 -0.3329223,0.00498 -0.044932,0.00324 -0.3545057,-0.00156 -0.1904896,-0.00295 -0.3813318,0.00937 -0.5714194,-0.00929 -0.051382,-0.00538 -0.1029003,-0.00959 -0.1541464,-0.01614 -0.5379507,-0.068759 0.2008617,0.020902 -0.2555154,-0.042431 -0.063873,-0.00886 -0.1291825,-0.00939 -0.1935345,-0.011022 -0.00824,0.00196 -0.017277,0.00183 -0.024732,0.00586 -0.01916,0.010343 -0.00343,0.014428 -0.011795,0.029232 -0.00106,0.00188 -0.00473,-0.00138 -0.00549,-0.0034 -0.00314,-0.00836 -0.00446,-0.017343 -0.00564,-0.026202 -0.00164,-0.012311 -0.00185,-0.024768 -0.00278,-0.037151 3.572e-4,-0.014761 -9.29e-5,-0.029563 0.00107,-0.044282 0.0036,-0.045377 0.00877,-0.041804 0.00751,-0.083477 -7.197e-4,-0.023701 -0.00552,-0.047116 -0.00722,-0.070767 -0.00116,-0.016095 -0.00165,-0.032231 -0.00247,-0.048346 -9.366e-4,-0.1197385 0.00329,-0.2394315 4.101e-4,-0.359134 -0.00304,-0.063282 -0.00358,-0.1272873 -0.010411,-0.1903135 -0.00401,-0.037015 -0.01392,-0.089352 -0.020655,-0.1255381 -0.00444,-0.023879 -0.00909,-0.047718 -0.013632,-0.071577 C 1.447739,6.1076316 1.4402918,6.0678351 1.4327424,6.0045917 1.4191344,5.8905934 1.4139559,5.7757684 1.4031672,5.6615113 1.3966999,5.5726539 1.3912101,5.483992 1.3899623,5.3948716 c -0.00145,-0.1038042 8.017e-4,-0.091062 7.964e-4,-0.1963012 -2e-6,-0.03501 -6.482e-4,-0.070016 -9.736e-4,-0.1050243 -5.054e-4,-0.063601 -0.00197,-0.1843347 -2.638e-4,-0.2460895 0.00462,-0.1668941 0.019503,-0.3342108 0.065672,-0.49531 0.00548,-0.020148 0.010491,-0.040429 0.016451,-0.060441 0.016115,-0.054105 0.011574,-0.027702 0.024476,-0.077885 0.00786,-0.030578 0.011805,-0.055929 0.0186,-0.087196 0.0047,-0.021603 0.00984,-0.043108 0.014757,-0.064663 0.024994,-0.098791 0.053067,-0.197051 0.073801,-0.2968654 0.00858,-0.041306 0.015739,-0.082898 0.022898,-0.124474 0.027673,-0.1607037 0.021659,-0.129727 0.040206,-0.2960007 0.018462,-0.2699832 0.00577,-0.054855 0.016233,-0.3269308 0.0021,-0.054555 0.00691,-0.1090216 0.00749,-0.1636133 C 1.6914853,2.7283137 1.6783983,2.6024332 1.6574353,2.4785946 1.6069063,2.2158606 1.5520469,1.9531302 1.531094,1.6859127 1.529604,1.6286317 1.525504,1.5713598 1.526634,1.514071 1.528954,1.3960602 1.54148,1.2784135 1.563228,1.1624316 1.583915,1.052109 1.596576,0.99808424 1.646643,0.90169595 c 0.00791,-0.0152278 0.020659,-0.0274044 0.030989,-0.0411066 0,0 -0.89946182,0.40941925 -0.89946182,0.40941925 z" />
  </g>
</svg>
