<?xml version="1.0" encoding="UTF-8" standalone="no"?>
<!-- Created with Inkscape (http://www.inkscape.org/) -->

<svg
   width="64"
   height="32"
   viewBox="0 0 16.933333 8.4666669"
   version="1.1"
   id="svg5"
   inkscape:version="1.1 (c4e8f9e, 2021-05-24)"
   sodipodi:docname="touch_exit.svg"
   inkscape:export-filename="/home/rpolzer/src/aaaaxy/assets/sprites/touch_exit.png"
   inkscape:export-xdpi="96"
   inkscape:export-ydpi="96"
   xmlns:inkscape="http://www.inkscape.org/namespaces/inkscape"
   xmlns:sodipodi="http://sodipodi.sourceforge.net/DTD/sodipodi-0.dtd"
   xmlns="http://www.w3.org/2000/svg"
   xmlns:svg="http://www.w3.org/2000/svg">
  <sodipodi:namedview
     id="namedview7"
     pagecolor="#ffffff"
     bordercolor="#666666"
     borderopacity="1.0"
     inkscape:pageshadow="2"
     inkscape:pageopacity="0.0"
     inkscape:pagecheckerboard="0"
     inkscape:document-units="mm"
     showgrid="false"
     units="px"
     width="32px"
     inkscape:zoom="24.744332"
     inkscape:cx="14.40734"
     inkscape:cy="15.720772"
     inkscape:window-width="3840"
     inkscape:window-height="2160"
     inkscape:window-x="0"
     inkscape:window-y="0"
     inkscape:window-maximized="1"
     inkscape:current-layer="layer1" />
  <defs
     id="defs2" />
  <g
     inkscape:label="Layer 1"
     inkscape:groupmode="layer"
     id="layer1">
    <path
       style="fill:#000000;stroke-width:0.264583"
       id="path125"
       d="m 0.9008588,1.1086668 c 7.3289e-4,0.00926 8.7312e-4,0.018596 0.002196,0.027795 0.012849,0.089329 0.0143714,0.052283 0.0247126,0.1665814 0.0121182,0.133938 0.008994,0.2685459 0.006913,0.4027815 -0.001029,0.1354743 -0.006564,0.2709885 -0.005186,0.4064844 5.9531e-4,0.058504 0.002532,0.1169887 0.003369,0.1754902 6.996e-5,0.033173 5.205e-5,0.066346 2.0987e-4,0.099518 6.0854e-4,0.1278593 -0.001124,0.2550103 -0.009691,0.382667 -0.00223,0.033244 -0.0183737,0.2187292 -0.0214439,0.2543458 -0.003396,0.039644 -0.007171,0.079257 -0.0101883,0.118931 -0.004137,0.054399 -0.0134596,0.2103393 -0.0177551,0.2617476 -0.011285,0.1350629 -0.0285102,0.2691574 -0.0480076,0.4032265 -0.006077,0.037747 -0.012873,0.075386 -0.0182322,0.1132414 -0.0114289,0.080729 -0.0166494,0.1362647 -0.0208873,0.217809 -0.005374,0.1034021 -0.00323,0.1463815 -0.007018,0.253083 -0.001921,0.054098 -0.005027,0.1081468 -0.007541,0.1622205 -0.008988,0.1961811 -0.038813,0.3905938 -0.0741641,0.5835108 -0.0358079,0.1954093 -0.0300767,0.1404974 -0.0647921,0.3242058 -0.00808,0.042755 -0.0148929,0.085741 -0.0223393,0.1286108 -0.008033,0.061535 -0.0200467,0.1380098 -0.0211026,0.2010931 -5.0006e-4,0.029829 0.007757,0.1556226 0.009554,0.1846011 0.006961,0.1122916 0.005273,0.084876 0.0130246,0.2005068 0.0112689,0.1108234 0.016864,0.222177 0.0276874,0.3330337 0.009889,0.1012825 0.0246396,0.2021023 0.037854,0.3029834 0.0135229,0.080669 0.0177086,0.1630725 0.0371798,0.2427372 0.006602,0.02701 0.0149495,0.050821 0.0235887,0.077109 0.0230518,0.062066 0.0290389,0.1276485 0.0342531,0.1930815 0.008531,0.1127464 0.008555,0.2258923 0.003908,0.3387966 -0.001844,0.035629 -0.008357,0.070766 -0.0121341,0.1061759 -0.002114,0.019804 -0.003144,0.039329 -0.006443,0.058996 0,0 0.88305163,-0.4458009 0.88305163,-0.4458009 v 0 c -0.00202,-0.018341 -0.00165,-0.03634 -0.00239,-0.054752 -0.00135,-0.033445 -0.00578,-0.066744 -0.00703,-0.1001963 -0.00473,-0.1151007 -0.0031,-0.2302162 -0.00192,-0.3453819 C 1.628201,6.8073253 1.6251226,6.7311155 1.5891275,6.6615944 1.5517315,6.5695271 1.5239782,6.473436 1.49871,6.3774674 1.4925933,6.3484283 1.4856851,6.3195451 1.4803599,6.2903507 1.466072,6.2120194 1.4614815,6.1662804 1.4526864,6.0865749 1.4406044,5.9770827 1.4298147,5.8673137 1.4287924,5.7570425 1.4260769,5.5681051 1.4172552,5.3791828 1.42102,5.1902261 1.42337,5.1509101 1.42492,5.1115391 1.42806,5.0722797 1.452384,4.7686356 1.500225,4.4675017 1.5508535,4.1673515 c 0.00915,-0.06318 0.036752,-0.2493994 0.044603,-0.3193995 0.00437,-0.03893 0.00642,-0.078086 0.00998,-0.1170974 0.00985,-0.1077989 0.022516,-0.2153528 0.029515,-0.3234052 0.010638,-0.1334596 0.022519,-0.2667416 0.037518,-0.3997968 0.00762,-0.067569 0.025291,-0.2011468 0.031226,-0.2707608 0.00334,-0.039174 0.00459,-0.078498 0.00689,-0.1177474 0.0084,-0.1734647 0.016469,-0.34712 0.031274,-0.5201877 0.00363,-0.042451 0.00916,-0.084728 0.012562,-0.1271985 0.00281,-0.035076 0.00403,-0.07026 0.00604,-0.10539 0.00143,-0.077646 0.00307,-0.1041003 1.645e-4,-0.1803632 C 1.755686,1.5562084 1.7401,1.4269766 1.735463,1.2971521 1.729433,1.0889533 1.721713,0.87490042 1.788765,0.67454091 c 0,0 -0.8879126,0.43412589 -0.8879126,0.43412589 z" />
    <path
       style="fill:#000000;stroke-width:0.264583"
       id="path127"
       d="m 1.0285556,1.2376218 c 0.040905,0.0029 0.081968,9.022e-4 0.1228891,0.00301 0.066451,0.00342 0.1326146,0.011255 0.1990333,0.015253 0.4206457,0.02532 -0.088783,-0.010266 0.4476394,0.029087 0.8870989,0.075068 -0.2805049,-0.02316 0.7219929,0.059059 0.1379819,0.011316 0.2758267,0.024312 0.4138617,0.034961 0.1406403,0.010851 0.2814888,0.018861 0.4221424,0.029538 0.2079212,0.015783 0.4760669,0.039846 0.6872803,0.058378 0.2091714,0.020767 0.4191426,0.030514 0.6288699,0.043451 0.068308,0.00421 0.1364906,0.010861 0.2048886,0.013185 0.026459,8.996e-4 0.052947,9.1e-6 0.079421,1.37e-5 0.035075,-0.00228 0.070179,-0.00415 0.105225,-0.00683 0.055161,-0.00422 0.110212,-0.00981 0.1653853,-0.01385 0.1542888,-0.011308 0.3590851,-0.023129 0.509584,-0.029382 0.1775129,-0.00738 0.4408945,-0.013374 0.6181114,-0.017895 0.09528,-8.44e-4 0.1905558,-0.00251 0.2858394,-0.00253 0.273236,-6.05e-5 0.5459286,0.014449 0.819045,0.018565 0.032871,-7.409e-4 0.065774,-5.927e-4 0.098612,-0.00223 0.041106,-0.00205 0.082105,-0.00587 0.1231577,-0.0088 0.053418,-0.00342 0.106792,-0.00759 0.1602529,-0.010247 0.2132877,-0.010587 0.4266604,-0.01439 0.6401633,-0.01597 0.072725,7.381e-4 0.1454592,8.069e-4 0.2181741,0.00221 0.1221063,0.00236 0.2441086,0.00919 0.3662262,0.010853 0.1882301,0.00257 0.3765124,-0.00439 0.5646108,-0.010123 0.3727967,-0.01496 0.7456517,-0.027619 1.1187927,-0.02527 0.03717,2.831e-4 0.07434,6.456e-4 0.111512,8.493e-4 0.03232,1.782e-4 0.06464,8.414e-4 0.09695,2.99e-4 0.131896,-0.00221 0.263582,-0.012308 0.395369,-0.017141 0.05748,-0.00211 0.115007,-0.00294 0.172511,-0.00441 0.05892,-0.00155 0.117839,-0.00308 0.176758,-0.00464 0.17735,-0.00469 0.158911,-0.00538 0.328237,-0.00578 0.116478,-2.752e-4 0.232874,0.00171 0.349351,8.467e-4 0.174789,-6.721e-4 0.348916,-0.017769 0.523369,-0.026353 0.152048,-0.00748 0.143354,-0.00589 0.287952,-0.00639 0.131959,-9.789e-4 0.263511,0.010057 0.393118,0.034518 0.02675,0.00648 0.0539,0.012683 0.07968,0.022505 0.0054,0.00206 0.01021,0.00606 0.01593,0.0069 0.02535,0.00371 0.05106,0.00441 0.07659,0.00662 0.215585,-0.00711 0.431406,-0.0044 0.646904,-0.013655 0.118245,0.00246 0.23553,-0.012168 0.353166,-0.020587 0.06197,-0.00443 0.101068,-0.00472 0.161835,-0.00617 0.01987,-2.448e-4 0.03979,6.191e-4 0.05961,-7.329e-4 0.145234,-0.00992 0.03167,-0.010654 0.179473,-0.013856 0.06177,-0.00134 0.123291,0.00243 0.184763,0.00777 0.0065,0.00154 0.01276,0.00398 0.01937,0.00461 10e-4,9.87e-5 -6.08e-4,-0.00203 -0.0012,-0.00288 -0.0087,-0.01214 -0.01765,-0.024067 -0.0266,-0.036012 -0.0084,-0.011154 -0.01337,-0.026073 -0.02529,-0.033285 -0.0047,-0.00287 -0.0097,0.00572 -0.01335,0.00992 -0.0073,0.00851 -0.01275,0.018496 -0.01913,0.027744 -0.04331,0.062503 -0.09058,0.1225342 -0.129864,0.1877694 -0.022,0.036525 -0.03124,0.057406 -0.04967,0.095098 -0.04249,0.1046476 -0.05742,0.2178779 -0.07272,0.3290665 -0.01243,0.1245355 -0.01994,0.2494908 -0.02995,0.3742264 -0.01369,0.1016623 -0.0042,0.2036401 0.0015,0.3053787 0.0021,0.037634 0.0071,0.1614054 0.0086,0.1980656 0.0013,0.034749 0.0022,0.069515 0.0039,0.1042471 0.0076,0.1551327 0.0063,0.067797 0.01154,0.2249022 0.0036,0.1073984 0.0043,0.2148988 0.0049,0.322344 0.0012,0.034409 0.002,0.068841 0.0037,0.1032283 0.0064,0.1260459 0.0074,0.090927 0.01589,0.2192139 0.0069,0.1041228 0.0098,0.2084742 0.01272,0.3127599 0.0026,0.033197 0.0045,0.066449 0.0077,0.09959 0.0035,0.035805 0.0087,0.071423 0.01233,0.1072128 0.0059,0.058685 0.01445,0.1651799 0.0176,0.2238902 0.0059,0.1097611 0.0043,0.1166757 0.0041,0.2261978 -8.73e-4,0.21961 -0.01053,0.4390356 -0.01881,0.6584527 -0.0044,0.1044451 -0.01215,0.2089531 -0.01116,0.3135699 9.26e-4,0.097526 0.0078,0.19525 0.01426,0.292522 0.0058,0.1127802 0.0162,0.2253419 0.01855,0.3382809 4.5e-4,0.022029 7.67e-4,0.1244885 8.46e-4,0.1482304 -0.0012,0.1275985 -0.0098,0.2549559 -0.01098,0.3825499 -9.79e-4,0.1169131 -3.44e-4,0.2336885 -0.006,0.3504952 -0.0014,0.048075 -0.0069,0.096193 -0.0066,0.144332 5.8e-5,0.0082 0.0025,0.047048 0.0031,0.056334 0.0015,0.01788 0.0032,0.034356 -0.0061,0.05004 -0.0034,0.00573 -0.0044,0.010586 -0.01248,0.00884 -0.0035,-7.673e-4 -0.0064,-0.00325 -0.0097,-0.00488 0,0 0.911215,-0.3981524 0.911215,-0.3981524 v 0 c -0.0034,-0.035825 -0.0069,-0.071469 -0.01257,-0.1070372 -0.005,-0.061936 -0.0047,-0.1241753 -0.0095,-0.186142 -0.0054,-0.1150403 -0.0038,-0.2300071 -0.0014,-0.3451239 0.0032,-0.1274669 0.0034,-0.255035 0.0013,-0.3825226 -0.0087,-0.1611506 -0.01857,-0.3223763 -0.03613,-0.4828241 -0.0058,-0.067856 -0.01079,-0.1170718 -0.01334,-0.1853983 -0.0051,-0.1349518 -0.0025,-0.2702446 0.004,-0.4050808 0.01111,-0.2201968 0.01255,-0.4406932 0.0136,-0.6611387 -0.0017,-0.09501 -0.0017,-0.1356905 -0.0066,-0.2309339 -0.0074,-0.1450271 -0.01985,-0.2898069 -0.02628,-0.4348996 -0.0075,-0.1027946 -0.01713,-0.2055831 -0.02311,-0.308475 -0.004,-0.068092 -0.0061,-0.1519037 -0.0081,-0.2203054 -10e-4,-0.034208 -0.002,-0.068418 -0.003,-0.102626 -0.009,-0.2173706 -0.0199,-0.4346887 -0.01977,-0.6523124 -5.82e-4,-0.03891 -0.0027,-0.1597657 -0.002,-0.1997441 0.0019,-0.1027489 0.0144,-0.2046693 0.02179,-0.3070555 0.0109,-0.1232522 0.01977,-0.2468329 0.03561,-0.3695402 0.01854,-0.1056777 0.04372,-0.2105549 0.09489,-0.3058254 0.05208,-0.096781 0.117222,-0.1858184 0.196309,-0.26251056 0.01091,-0.009856 0.02244,-0.0190598 0.03272,-0.0295688 0.0063,-0.006401 0.01594,-0.0120854 0.01674,-0.0210029 0.0016,-0.0175601 -0.0036,-0.0355352 -0.01019,-0.0519021 -0.02238,-0.0558639 -0.03745,-0.058624 -0.08937,-0.0561076 -0.07035,0.003784 -0.140768,0.007317 -0.211232,0.007908 -0.02947,2.4723e-4 -0.05893,-2.8575e-4 -0.0884,-6.1118e-4 -0.02587,-2.8575e-4 -0.05177,-0.002492 -0.07762,-0.001222 -0.02267,0.001114 -0.04506,0.005573 -0.06759,0.00836 -0.05798,0.004987 -0.115251,0.0103187 -0.173395,0.0135501 -0.03082,0.001712 -0.06171,0.001987 -0.09253,0.003715 -0.08708,0.004884 -0.173636,0.0160642 -0.260762,0.0203623 -0.03258,9.816e-4 -0.06519,0.001373 -0.09775,0.002944 -0.171476,0.008278 -0.344273,0.0313927 -0.515269,0.003357 -0.01246,-0.002021 -0.02498,-0.003652 -0.03737,-0.006066 -0.01972,-0.003843 -0.01189,-0.004805 -0.03336,-0.0125428 -0.02835,-0.0102129 -0.05872,-0.015617 -0.08838,-0.0199144 -0.05355,-0.008231 -0.10774,-0.014968 -0.161957,-0.0168677 -0.10097,-0.003538 -0.202043,0.004911 -0.302682,0.0112548 -0.04768,0.002323 -0.09533,0.005295 -0.143034,0.006968 -0.114982,0.004034 -0.181371,0.003179 -0.295509,0.005022 -0.235994,0.003809 -0.02396,0.001328 -0.244664,0.006029 -0.03653,7.7787e-4 -0.07308,0.001019 -0.109617,0.001527 -0.127099,0.00505 -0.253761,0.0142166 -0.380751,0.0213945 -0.152231,0.008605 -0.182536,0.0100113 -0.337531,0.0135316 -0.05721,0.001299 -0.114429,0.001879 -0.171644,0.002817 -0.05418,-0.001058 -0.108378,-0.001593 -0.162548,-0.003178 -0.121991,-0.003569 -0.243891,-0.0117308 -0.366016,-0.007159 -0.03594,0.001344 -0.07179,0.004402 -0.107663,0.006974 -0.04216,0.003023 -0.08427,0.00654 -0.12641,0.009809 -0.176085,0.0142147 -0.35213,0.0272292 -0.528635,0.0352185 -0.172574,0.007811 -0.24863,0.008917 -0.421342,0.0120719 -0.06692,0.001222 -0.133855,0.002151 -0.200783,0.003227 -0.184569,0.00265 -0.3691192,0.002199 -0.5536835,0.005015 -0.043636,6.6675e-4 -0.3567877,0.00705 -0.3912669,0.007366 -0.073799,6.7733e-4 -0.1476042,6.667e-5 -0.221406,9.998e-5 -0.073764,-0.001236 -0.1475478,-0.001566 -0.2212909,-0.003706 -0.1244462,-0.003609 -0.248798,-0.009961 -0.3731828,-0.0152808 -0.1076614,-0.004605 -0.1510665,-0.009884 -0.254295,-0.00617 -0.034643,0.001246 -0.069158,0.004883 -0.1037371,0.007324 -0.4086823,0.0325468 -0.8174164,0.0677467 -1.2275698,0.0753286 -0.2319949,0.00277 -0.3613531,0.00686 -0.5914094,-1.282e-4 -0.094602,-0.00287 -0.3308103,-0.0171667 -0.4372527,-0.0242459 -0.044957,-0.00299 -0.089812,-0.007562 -0.1348111,-0.009813 -0.03173,-0.001587 -0.063529,-0.00113 -0.095293,-0.001693 -0.029136,0.002037 -0.058328,0.003391 -0.087407,0.006116 -0.2343996,0.0219596 0.034459,0.002995 -0.2544114,0.0257114 C 5.1290452,1.0217899 4.8880656,1.0292192 4.6470842,1.0323237 4.3500053,1.0309664 4.2089927,1.0341705 3.9053637,1.0157891 3.4202978,0.98641957 2.9368972,0.92183811 2.462185,0.81758821 2.3901991,0.79982519 2.3181313,0.78239082 2.2462272,0.76429917 2.1972329,0.75197181 2.1486881,0.73784319 2.0994954,0.72633254 1.9402252,0.68906469 2.0621534,0.72290307 1.9240072,0.69345439 c -0.022149,-0.004722 -0.05937,-0.015744 -0.084404,-0.023002 0,0 -0.8110475,0.56716941 -0.8110476,0.56716941 z" />
    <path
       style="fill:#000000;stroke-width:0.264583"
       id="path129"
       d="m 0.91047471,7.8241762 c 0.0112874,-7.937e-4 0.0226169,-0.00111 0.0338623,-0.00238 0.19230089,-0.021466 -0.11260632,0.00764 0.17422849,-0.021923 0.1244208,-0.012824 0.2487454,-0.017529 0.3736828,-0.021315 0.3352098,-0.012465 0.6705819,-0.00106 1.0056987,0.00815 0.3553569,0.00312 0.710726,0.00821 1.0656261,0.027555 0.1850435,0.010089 0.2777588,0.017735 0.457998,0.031048 0.1846958,0.016719 0.3699327,0.02832 0.5553723,0.032119 0.080929,0.00167 0.1618959,5.556e-4 0.242828,0.00204 0.1849636,0.00338 0.2877404,0.00869 0.4707109,0.016319 0.070262,0.00297 0.1404827,0.00716 0.2107859,0.0089 0.084767,0.00209 0.1695923,7.938e-4 0.2543667,0.00257 0.3257307,0.00689 0.6513893,0.023035 0.9765601,0.042721 0.059248,0.00425 0.1185064,0.00836 0.1777445,0.012748 0.048431,0.00359 0.09678,0.00835 0.1452607,0.011176 0.160872,0.00939 0.3217548,0.00751 0.4827445,0.00421 0.2286524,-0.00762 0.4570494,-0.019592 0.6858516,-0.021945 0.1546193,0.00124 0.3078845,-0.019677 0.4615653,-0.033114 0.1363999,-0.011927 0.1516798,-0.01229 0.2900156,-0.02172 0.2334665,-0.017357 0.4675854,-0.022267 0.7012435,-0.035749 0.2362049,-0.013417 0.4728583,-0.010369 0.7093233,-0.011679 0.05216,-0.00124 0.104342,-0.00188 0.156484,-0.00375 0.274663,-0.0099 0.100114,-0.00832 0.37716,-0.014661 0.157035,-0.0036 0.313667,-0.00156 0.470654,0.00217 0.246892,0.00528 0.492921,0.027071 0.739572,0.037736 0.258354,0.00736 0.516632,0.015277 0.77425,0.036768 0.14824,0.00862 0.296778,0.00693 0.445183,0.00635 0.08553,0.00455 0.170527,-0.00571 0.256003,-0.00617 0.06106,-3.175e-4 0.09727,0.00233 0.157079,0.00541 0.131364,0.00452 0.26296,0.00388 0.394426,0.00381 0.01481,-9.26e-4 0.02981,-2.91e-4 0.04444,-0.00281 0.11035,-0.019026 0.218325,-0.050054 0.328168,-0.071823 0.176051,-0.034891 0.353969,-0.057822 0.53197,-0.079741 0.02179,-3.968e-4 0.04364,-0.00277 0.06537,-0.00116 0.0069,5.027e-4 0.01294,0.00493 0.01941,0.00739 0.260795,-0.1931281 0.53214,-0.3727696 0.782386,-0.5793843 0.01518,-0.012536 -0.03622,-0.015817 -0.05522,-0.021 -0.0069,-0.00188 -0.0752,-0.01048 -0.08572,-0.011837 -0.0091,-0.00132 -0.01811,-0.00265 -0.02717,-0.00397 0,0 -0.794917,0.5668041 -0.794917,0.5668041 v 0 c 0.01123,4.763e-4 0.02247,9.79e-4 0.0337,0.00146 0.01309,1.748e-4 0.02618,2.4e-5 0.03926,5.291e-4 0.01287,5.027e-4 0.02571,0.00339 0.03855,0.00246 0.0065,-4.762e-4 0.01308,-0.00294 0.0185,-0.00663 0.271303,-0.1847056 0.539,-0.3746916 0.811123,-0.558187 0.01478,-0.00996 -0.0227,0.028815 -0.03845,0.037162 -0.03282,0.017396 -0.06968,0.025744 -0.104528,0.038617 -0.181646,0.035921 -0.364027,0.07368 -0.5484,0.093078 -0.210558,0.022153 -0.08962,0.00262 -0.238401,0.011406 -0.01485,8.731e-4 -0.02952,0.00375 -0.04429,0.00563 -0.0606,0.00796 -0.121418,0.015981 -0.18253,0.018799 -0.08128,0.00375 -0.07222,2.567e-4 -0.152704,-0.00148 -0.02399,-5.292e-4 -0.04799,-2.646e-4 -0.07198,-4.234e-4 -0.0587,-1.23e-4 -0.10257,5.028e-4 -0.161543,-0.00267 -0.02573,-0.0014 -0.05139,-0.00386 -0.07705,-0.00616 -0.02025,-0.0018 -0.04035,-0.00565 -0.06068,-0.00617 -0.03683,-9.261e-4 -0.07344,0.00879 -0.110298,0.00695 -0.153484,0.00766 -0.306951,0.010361 -0.460618,0.010475 -0.263894,0.00873 -0.528142,0.00579 -0.791171,-0.019764 -0.104722,-0.0089 -0.133059,-0.012398 -0.23668,-0.016994 -0.0395,-0.00175 -0.07905,-0.00222 -0.118569,-0.00369 -0.133351,-0.00495 -0.26663,-0.013171 -0.40014,-0.012594 -0.166238,0.0035 -0.332261,0.011811 -0.498477,0.015658 -0.149017,0.00345 -0.206132,0.00282 -0.352488,-6.615e-4 -0.04766,-0.00114 -0.0953,-0.003 -0.14295,-0.0045 -0.08507,-0.00341 -0.157915,-0.00705 -0.24278,-0.00772 -0.151036,-0.00119 -0.30214,0.0041 -0.453183,0.00316 -0.03399,8.202e-4 -0.06801,7.409e-4 -0.101963,0.00249 -0.209437,0.010657 -0.417275,0.045136 -0.627035,0.051892 -0.1715236,0.00774 -0.3433128,0.011991 -0.5145207,0.025662 -0.035185,0.00281 -0.070241,0.00708 -0.1054147,0.01003 -0.036746,0.00308 -0.073555,0.00537 -0.1103323,0.00805 -0.228445,0.00505 -0.4570847,0.00564 -0.685218,0.020063 -0.1207931,0.00447 -0.2415383,0.011274 -0.3623309,0.015423 -0.1692492,0.00581 -0.3386918,0.0072 -0.5080032,0.00979 C 7.327485,7.4648805 7.2510758,7.4654097 7.1746805,7.4643514 6.9988826,7.4618907 6.841659,7.4562577 6.665868,7.4478731 6.5813862,7.4438435 6.4969183,7.4394302 6.4125106,7.4340698 6.3337204,7.4290665 6.2551759,7.420068 6.1762951,7.4167846 6.1030455,7.4137366 6.0296736,7.4156469 5.9563629,7.4150912 5.7736485,7.4115564 5.6687087,7.4114902 5.4857969,7.400002 5.4126553,7.3954089 5.3397496,7.3875984 5.2666844,7.3819151 5.0758949,7.367072 4.8848173,7.3565548 4.693323,7.3610712 4.4910946,7.3603304 4.408506,7.3612771 4.2015587,7.3549885 3.8607835,7.3446353 3.5210697,7.3163223 3.180916,7.2946278 3.0321067,7.2868675 2.9407244,7.282994 2.7933261,7.271908 2.6037666,7.2576469 2.4141581,7.2359993 2.2236723,7.2428686 c -0.1197593,0.00551 -0.2395085,0.012213 -0.359455,0.00974 -0.1451497,-0.003 -0.029485,-0.00206 -0.131425,-0.00904 -0.00779,-5.292e-4 -0.015608,1.199e-4 -0.023412,1.799e-4 0,0 -0.79890571,0.580439 -0.79890571,0.580439 z" />
    <path
       style="fill:#000000;stroke-width:0.264583"
       id="path131"
       d="m 13.547436,4.0228247 c -0.03604,0.00238 -0.0721,0.00452 -0.108131,0.00713 -0.194513,0.014115 -0.183397,0.016187 -0.390869,0.025614 -0.194933,0.00886 -0.39019,0.011607 -0.58525,0.016386 -0.357182,0.00464 -0.712898,0.039043 -1.069213,0.060855 -0.248342,0.01401 -0.497125,0.010194 -0.745717,0.013851 -0.159682,0.00114 -0.317749,0.025479 -0.476581,0.038911 -0.143918,0.012171 -0.2403701,0.017105 -0.3863481,0.025977 -0.3750834,0.018891 -0.7509214,0.019897 -1.1263469,0.013195 -0.2105858,-0.00605 -0.4212013,0.00434 -0.6314397,0.01552 -0.075406,0.00401 -0.1506996,0.010091 -0.2261378,0.013425 -0.076354,0.00337 -0.1527929,0.00447 -0.2291895,0.0067 -0.3738631,0.00738 -0.7478662,0.00505 -1.1215436,-0.00847 -0.04153,-0.00135 -0.083062,-0.00262 -0.1245889,-0.00406 -0.090692,-0.00312 -0.1438232,-0.00614 -0.2350288,-0.00625 -0.047335,-5.61e-5 -0.09466,0.00138 -0.1419934,0.00175 C 5.8258386,4.244318 5.770409,4.2438153 5.6468747,4.2434361 5.395098,4.2419015 5.1439791,4.2220208 4.8943659,4.1900924 4.7742078,4.1709075 4.6534501,4.1574764 4.5321463,4.1483682 4.368578,4.1412271 4.2048694,4.1446693 4.0412132,4.140899 3.9248151,4.136189 3.8080844,4.1412165 3.6918852,4.132229 c 0.00545,0.020315 -0.028822,-0.012962 -0.032168,-0.00273 -0.00127,0.00391 0.00464,0.0068 0.00696,0.010208 0.014841,0.021826 0.025747,0.046922 0.044512,0.065482 0.00415,0.0041 0.011835,-0.0018 0.016809,-0.00483 0.010305,-0.00629 0.018833,-0.015116 0.02825,-0.022675 0.1104513,-0.1006565 0.2223103,-0.1998827 0.3362483,-0.296577 0.07816,-0.064691 0.1553909,-0.1304904 0.2342454,-0.1943428 0.018516,-0.014991 0.03665,-0.030488 0.055822,-0.044629 0.020548,-0.015155 0.042169,-0.028799 0.063253,-0.043199 C 4.5972602,3.4982621 4.7410502,3.3868129 4.8890565,3.2812783 5.0110024,3.1962471 5.1277001,3.1041371 5.2472391,3.015865 5.3563712,2.9363537 5.4695444,2.8628287 5.5823736,2.7887461 c 0.049631,-0.03109 0.095011,-0.06815 0.1416372,-0.1034177 0,0 -0.8937405,0.3559874 -0.8937405,0.3559874 v 0 C 4.7880613,3.0734296 4.7451226,3.1044792 4.700665,3.1334516 4.5870153,3.2094842 4.4722962,3.2841792 4.3637766,3.3675267 4.2516726,3.4540732 4.1391945,3.5401601 4.0245987,3.6234002 3.8760609,3.7327612 3.7264088,3.8404321 3.5736067,3.9437849 3.4527691,4.0348667 3.3391506,4.1346186 3.2243135,4.2330801 3.1048962,4.3370661 2.9863896,4.4422787 2.8614015,4.5396152 c -0.00257,0.00225 -0.060812,0.046336 -0.058367,0.064604 0.00254,0.018907 0.020087,0.084256 0.052761,0.099259 0.010978,0.00504 0.041553,6.35e-4 0.050415,-9.39e-5 0.1256625,-0.00846 0.2516491,-0.011589 0.3775712,-0.012779 0.1578417,-0.00188 0.3156654,0.00122 0.4731689,0.012409 0.1274429,0.00898 0.2543755,0.025104 0.3823015,0.026591 0.071677,0.00267 0.1433849,0.00447 0.2150608,0.00717 0.1926272,0.00726 0.3849637,0.021442 0.5777383,0.025074 0.1193784,0.00169 0.1744472,0.00183 0.292907,0.00598 0.043701,0.00153 0.087352,0.00434 0.1310563,0.00575 0.1252532,0.00406 0.250584,0.00246 0.3758613,9.261e-4 0.39113,-0.015211 0.7824832,-0.023151 1.1738747,-0.028116 0.5773274,-0.00334 -0.1139957,-0.0013 0.4251121,0.0029 0.057261,4.498e-4 0.1145217,-9.525e-4 0.1717837,-0.00127 0.1472146,-8.202e-4 0.2944418,-4.762e-4 0.4416422,-0.00311 0.3510002,-0.011472 -0.050181,0.00254 0.331266,-0.013846 0.2753688,-0.011824 0.5509792,-0.019653 0.8266178,-0.019476 0.1685349,-0.00143 0.3370091,-0.0047 0.5055357,-0.00655 0.046714,-5.027e-4 0.1528334,-5.557e-4 0.2040832,-0.00269 0.028514,-0.00119 0.056962,-0.00363 0.085443,-0.00545 0.2702368,-0.017103 0.5397878,-0.044132 0.8101988,-0.058941 0.354829,-0.021143 0.709931,-0.03684 1.06468,-0.05937 0.160139,-0.00971 0.226835,-0.014811 0.389153,-0.020201 0.191931,-0.00637 0.389125,-0.01496 0.577055,0.032212 0,0 0.809115,-0.5677876 0.809115,-0.5677876 z" />
    <path
       style="fill:#000000;stroke-width:0.264583"
       id="path139"
       d="m 2.8423573,4.6611772 c 0.00307,0.012692 0.00453,0.025889 0.00922,0.038077 0.029315,0.076242 0.082481,0.1419826 0.1301803,0.2069293 0.093187,0.1268847 0.048766,0.069325 0.1576112,0.2000348 0.03143,0.037394 0.062223,0.075332 0.094289,0.1121815 0.1715952,0.1971945 0.041683,0.038701 0.2058953,0.2342795 0.08019,0.095507 0.1579848,0.1931848 0.2363972,0.2901548 0.099675,0.1193705 0.2042809,0.234614 0.3184787,0.3402343 0.061418,0.053962 0.129671,0.099165 0.1950141,0.1480119 0.059556,0.044521 0.1171186,0.091792 0.1756651,0.1376236 0.090325,0.062682 0.1807064,0.1253281 0.2688423,0.1910963 0,0 0.8013332,-0.5089649 0.8013332,-0.5089649 v 0 C 5.381326,6.0132732 5.3798152,6.0129274 5.3266223,5.9729941 5.3087074,5.9595453 5.2915192,5.9451186 5.2732593,5.9321411 5.256027,5.9198935 5.237899,5.9089636 5.220219,5.8973727 5.2020448,5.8843129 5.1838687,5.8712557 5.1656934,5.8581959 5.1014838,5.8187745 5.0368649,5.7798062 4.9767331,5.7342113 4.9191936,5.6905823 4.9044002,5.6749656 4.8527954,5.6270162 4.8365605,5.6119323 4.8203897,5.5967799 4.8041869,5.5816616 4.7559004,5.5383067 4.7056799,5.4980731 4.6560356,5.4563353 4.6008139,5.4099086 4.5827018,5.3927906 4.529361,5.3411847 4.5051569,5.3177691 4.4813828,5.2939145 4.4573938,5.2702795 4.334039,5.1435865 4.2070871,5.0187902 4.0925607,4.8839109 4.0591673,4.8445829 4.0275388,4.8037805 3.995874,4.7630482 3.9666915,4.7255091 3.9386504,4.6870969 3.9100384,4.6491212 3.8641284,4.5797877 3.8198028,4.5172447 3.7814212,4.4436209 3.7608155,4.4040927 3.7129989,4.3100357 3.7255918,4.2592246 c 0.00167,-0.00676 0.00792,-0.011464 0.011888,-0.017195 0,0 -0.8951201,0.4191479 -0.8951201,0.4191479 z" />
  </g>
</svg>
