<?xml version="1.0" encoding="UTF-8" standalone="no"?>
<!-- Created with Inkscape (http://www.inkscape.org/) -->

<svg
   width="32"
   height="32"
   viewBox="0 0 8.4666665 8.4666669"
   version="1.1"
   id="svg5"
   sodipodi:docname="touch_down.svg"
   inkscape:version="1.1 (c4e8f9e, 2021-05-24)"
   inkscape:export-filename="/home/rpolzer/src/aaaaxy/assets/sprites/touch_down.png"
   inkscape:export-xdpi="96"
   inkscape:export-ydpi="96"
   xmlns:inkscape="http://www.inkscape.org/namespaces/inkscape"
   xmlns:sodipodi="http://sodipodi.sourceforge.net/DTD/sodipodi-0.dtd"
   xmlns="http://www.w3.org/2000/svg"
   xmlns:svg="http://www.w3.org/2000/svg">
  <sodipodi:namedview
     id="namedview7"
     pagecolor="#ffffff"
     bordercolor="#666666"
     borderopacity="1.0"
     inkscape:pageshadow="2"
     inkscape:pageopacity="0.0"
     inkscape:pagecheckerboard="0"
     inkscape:document-units="mm"
     showgrid="false"
     units="px"
     width="32px"
     inkscape:zoom="34.99377"
     inkscape:cx="-2.0432208"
     inkscape:cy="15.774236"
     inkscape:window-width="3840"
     inkscape:window-height="2160"
     inkscape:window-x="0"
     inkscape:window-y="0"
     inkscape:window-maximized="1"
     inkscape:current-layer="layer1" />
  <defs
     id="defs2" />
  <g
     inkscape:label="Layer 1"
     inkscape:groupmode="layer"
     id="layer1">
    <path
       style="fill:#000000;stroke-width:0.264583"
       id="path198"
       d="m 2.1457079,2.9535593 c 0.019028,0.019225 0.038173,0.038333 0.057083,0.057673 0.039076,0.039964 0.080789,0.077554 0.1168751,0.1202378 0.1515335,0.1792393 0.2644845,0.3838011 0.380414,0.5865122 0.037534,0.065631 0.075056,0.131268 0.1125842,0.1969018 0.1339122,0.2478175 0.252005,0.5036606 0.3753088,0.7568102 0.054698,0.1003292 0.094691,0.2074331 0.1375045,0.3130656 0.0186,0.04589 0.03599,0.086108 0.055401,0.1316223 0.048984,0.1244102 5.821e-4,7.673e-4 0.045237,0.1168236 0.0063,0.016378 0.011755,0.033123 0.019132,0.049045 0.0076,0.016407 0.016476,0.032221 0.025726,0.04776 0.02054,0.034509 0.043628,0.067434 0.065253,0.1012727 0.065593,0.1018059 0.1194368,0.2103006 0.1674394,0.3212968 0.018254,0.045934 0.033419,0.093056 0.051656,0.1389933 0.014041,0.035373 0.029357,0.070324 0.043779,0.1055534 0.01315,0.038433 0.03654,0.071484 0.056154,0.1065887 0.021746,0.033197 0.043086,0.06657 0.062578,0.1011499 0.2129083,0.314238 0.343713,-0.1118655 0.9033541,-0.4344889 0.00672,-0.00388 -0.00135,-0.015602 -2.18e-4,-0.023281 0.0019,-0.012883 0.011591,-0.026979 0.017693,-0.037598 0.044097,-0.066018 0.082507,-0.135582 0.1243367,-0.203005 0.014121,-0.022762 0.028821,-0.045159 0.043231,-0.067738 0.1118579,-0.1643788 0.2195745,-0.3315309 0.3246498,-0.5003128 0.037129,-0.063687 0.080672,-0.1243293 0.11146,-0.1916213 0.00982,-0.021452 0.017301,-0.043894 0.025905,-0.065859 0.019172,-0.048948 0.038218,-0.097944 0.057338,-0.1469125 0.010562,-0.027069 0.020973,-0.054197 0.031685,-0.081209 0.040954,-0.1032846 0.028998,-0.068245 0.068119,-0.1759479 0.061173,-0.1684152 0.010702,-0.033084 0.073231,-0.2121778 0.013716,-0.039284 0.028252,-0.078276 0.042379,-0.1174142 0.041245,-0.1131908 0.086504,-0.2249556 0.1349221,-0.3352665 0.075974,-0.1730909 0.00532,-0.00834 0.073772,-0.1589153 0.00943,-0.020749 0.018002,-0.04188 0.027003,-0.06282 0.04342,-0.098498 0.088091,-0.1967093 0.1219578,-0.2989808 0.03018,-0.081946 0.060719,-0.1637622 0.082776,-0.2483715 0.00559,-0.021452 0.010009,-0.043196 0.015012,-0.064793 0.00656,-0.023606 0.012806,-0.0473 0.019669,-0.07082 0.018463,-0.063285 0.02173,-0.073507 0.044938,-0.1332339 0.00159,-0.00408 0.034393,-0.084043 0.037898,-0.093513 0.00434,-0.011731 0.00789,-0.023742 0.011832,-0.035613 0,0 -0.8682529,0.4131053 -0.8682529,0.4131053 v 0 c -0.00818,0.037709 -0.014018,0.075798 -0.022127,0.1135227 -0.014592,0.067882 -0.033828,0.1346025 -0.057949,0.1997424 -0.042011,0.105986 -0.080622,0.213256 -0.1208982,0.3199127 -0.037322,0.095332 -0.070343,0.1922947 -0.1050634,0.2885927 -0.00712,0.020492 -0.015063,0.040715 -0.021352,0.061476 -0.00632,0.020857 -0.010721,0.042252 -0.016449,0.06328 -0.00723,0.026545 -0.014462,0.053098 -0.022429,0.079432 -0.033349,0.1102312 -0.073082,0.2183794 -0.1149684,0.3256155 -0.015756,0.039759 -0.030966,0.079739 -0.047269,0.1192774 -0.067176,0.1629256 -0.1425731,0.3223466 -0.2126054,0.4840308 -0.018733,0.040605 -0.049951,0.1092693 -0.07045,0.1499434 -0.011007,0.021839 -0.023077,0.043127 -0.034434,0.064787 -0.031048,0.059215 -0.060664,0.1191747 -0.09228,0.1780947 -0.030455,0.055569 -0.051535,0.095578 -0.085148,0.150172 -0.073101,0.118727 -0.1561198,0.231028 -0.2402605,0.3420522 -0.076769,0.099771 -0.1522418,0.2005447 -0.2284508,0.3007262 -0.00135,0.00185 -0.025239,0.037169 -0.032751,0.040687 -0.00484,0.00228 -0.020669,0.00167 -0.016002,-9.26e-4 0.2841853,-0.1583958 0.5669545,-0.3196969 0.8567147,-0.4676476 0.00808,-0.00412 0.00734,0.016825 0.00863,0.025802 2.91e-4,0.00196 -0.00289,0.00274 -0.00433,0.00411 -0.03017,-0.024782 -0.03922,-0.056028 -0.056973,-0.089379 C 4.685226,5.5784249 4.6588216,5.5502754 4.6369213,5.5182857 4.5902747,5.4469979 4.5563739,5.3686707 4.5170809,5.2932652 4.4811971,5.2185199 4.4465631,5.1430983 4.4059686,5.0707178 4.3959594,5.052869 4.3846538,5.0357759 4.374325,5.018111 4.3637522,5.000032 4.3536213,4.9816985 4.3432687,4.9634925 4.2885444,4.866142 4.3382469,4.9565155 4.2887997,4.8610641 4.254606,4.7950588 4.2149138,4.7319578 4.1839948,4.6642398 4.1709456,4.6355976 4.1376589,4.5620373 4.1240328,4.5341621 4.0732437,4.43026 4.0114212,4.332206 3.9586434,4.2293259 3.9117674,4.1516577 3.8985052,4.1265017 3.8448996,4.0511822 3.8210606,4.0176873 3.7957603,3.9852562 3.7709922,3.9524424 3.667135,3.8148479 3.5599163,3.6797678 3.4608582,3.5385965 3.4199324,3.4755291 3.3776353,3.4133305 3.3380807,3.3493945 3.2157593,3.1516751 3.1004975,2.9466632 3.0334569,2.7225656 3.001864,2.6169598 3.0010023,2.5749143 2.9921885,2.4799638 c 0,0 -0.8464814,0.4736061 -0.8464814,0.4736061 z" />
    <path
       style="fill:#000000;stroke-width:0.264583"
       id="path200"
       d="M 2.2877792,2.861732 C 2.3249662,2.857592 2.3621702,2.853602 2.3993396,2.84931 2.4782496,2.8402 2.5567758,2.827048 2.6360181,2.821525 2.7827036,2.811299 2.940291,2.815795 3.087285,2.824215 c 0.057647,0.0033 0.1149276,0.013729 0.1726687,0.013854 0.080906,1.768e-4 0.1615816,-0.00863 0.2423724,-0.012949 0.258981,-0.026265 0.5194874,-0.031035 0.7794828,-0.022635 0.057252,0.00185 0.1143619,0.00724 0.1716257,0.00866 0.066385,0.00164 0.1328153,-3.704e-4 0.1992143,5.292e-4 0.071911,9.525e-4 0.143795,0.00335 0.2156926,0.00503 0.1581007,0.00784 0.3151883,0.027687 0.4708062,0.056121 0.030474,0.00557 0.060551,0.013282 0.091144,0.018153 0.030894,0.00492 0.062186,0.00696 0.09318,0.0112 0.026056,0.00357 0.051965,0.00814 0.077947,0.012216 0.076993,0.01433 0.0409,0.00745 0.1082993,0.020529 0,0 0.7646603,-0.548399 0.7646603,-0.548399 v 0 c -0.08436,0.00365 -0.039543,0.00267 -0.1344655,0.00215 -0.030014,-0.00136 -0.060046,-0.00237 -0.090042,-0.00408 -0.033713,-0.00192 -0.067318,-0.00592 -0.1010738,-0.0068 -0.039807,-0.00104 -0.079638,7.223e-4 -0.1194578,0.00104 -0.179593,0.00143 -0.3592742,0.00168 -0.5386273,-0.00976 -0.084931,-0.00631 -0.3130505,-0.025579 -0.4008091,-0.023086 -0.070375,0.002 -0.1401519,0.013633 -0.2103199,0.019391 -0.2558688,0.020998 -0.5130594,0.038807 -0.7696751,0.017768 -0.068834,-0.00344 -0.1375881,-0.00947 -0.206503,-0.010314 -0.066368,-8.176e-4 -0.1326759,0.00483 -0.1990466,0.00532 -0.1208003,8.969e-4 -0.3068992,7.86e-5 -0.4277982,-0.019158 -0.060494,-0.00963 -0.1381045,-0.037475 -0.2004729,-0.05877 0,0 -0.7883084,0.5615103 -0.7883084,0.5615103 z" />
    <path
       style="fill:#000000;stroke-width:0.264583"
       id="path402"
       d="M 0.81453981,1.4957417 C 1.2236377,1.4740757 1.6331259,1.4578267 2.042904,1.4684656 c 0.1531409,0.00398 0.3060701,0.01389 0.4591052,0.020835 0.1389748,0.011413 0.2779967,0.022267 0.4169246,0.03424 0.1222555,0.010536 0.2442353,0.024347 0.3666178,0.033289 0.2024115,0.014788 0.5242208,0.027982 0.7280286,0.033226 0.1184486,0.00305 0.2369322,0.00595 0.3554195,0.00558 0.1362422,-4.286e-4 0.2724335,-0.00532 0.4086505,-0.00798 0.3854122,-0.016956 0.7713666,-0.016418 1.1568478,-0.00286 0.084803,0.00298 0.1695535,0.00736 0.2542887,0.011871 0.064653,0.00344 0.1291571,0.00974 0.1938625,0.011971 0.066423,0.00229 0.1329211,0.00105 0.1993818,0.00157 0.046368,0.00187 0.2373427,0.00569 0.2953007,0.020715 0.026146,0.00678 0.052308,0.018888 0.071774,0.037615 0.039373,0.037876 0.051634,0.1306091 0.057222,0.1744808 0.00641,0.050324 0.00781,0.1011604 0.011708,0.1517406 0.00313,0.2612275 -0.00469,0.5226791 -0.025363,0.7831276 -0.00289,0.036374 -0.030158,0.3242344 -0.033742,0.3622402 -0.00788,0.060709 -0.014653,0.1215732 -0.02364,0.1821286 -0.0201,0.1354056 -0.044254,0.2602945 -0.070391,0.3948144 -0.011716,0.060296 -0.071679,0.360733 -0.08409,0.4198425 -0.014536,0.069231 -0.030153,0.1382305 -0.045229,0.2073457 -0.015023,0.067257 -0.030777,0.1343562 -0.045074,0.2017723 -0.014126,0.06661 -0.026597,0.1335609 -0.040186,0.2002825 -0.036059,0.1770525 -0.075564,0.3533692 -0.099356,0.532657 -0.00733,0.055214 -0.012144,0.1107316 -0.018217,0.1660975 -0.019545,0.1765998 -0.024027,0.3544175 -0.026286,0.5319268 -0.00257,0.201269 0.00265,0.2991408 -0.013279,0.5075401 -0.00788,0.1032576 -0.022042,0.2059403 -0.033062,0.3089106 -0.01747,0.100652 -0.070373,0.4306821 -0.1049425,0.539759 -0.019693,0.062137 -0.043647,0.1245034 -0.080743,0.1781003 -0.0289,0.041753 -0.1572234,0.1272235 -0.1131396,0.1020177 C 6.945106,7.1651655 7.0062084,7.1747267 6.6168775,7.2508455 6.4172596,7.2623708 6.2169944,7.2491522 6.0183045,7.2297476 5.9316167,7.2212783 5.7222982,7.1936013 5.6356871,7.1838562 5.5633929,7.1757229 5.4909635,7.1688384 5.4186015,7.1613296 5.1761498,7.1362947 4.9330596,7.1187634 4.6900827,7.0999521 4.6865055,7.0996875 4.2354193,7.0634867 4.221122,7.0625143 4.1465595,7.0574422 4.0718893,7.0541032 3.9972728,7.0498963 3.7889788,7.0379425 3.5803837,7.0302907 3.3717507,7.027973 3.2987673,7.0271527 3.2257722,7.0281187 3.1527874,7.0274173 2.9757446,7.0257505 2.940441,7.0236867 2.769226,7.0181649 2.6318494,7.0137225 2.4946572,7.0045811 2.3572975,6.9997842 c -0.1161643,-0.00406 -0.232351,-0.00611 -0.3485073,-0.010694 -0.087845,-0.00392 -0.1757976,-0.00581 -0.2634299,-0.013523 -0.017946,-0.00159 -0.066534,-0.00591 -0.088107,-0.012144 -0.00658,-0.00191 -0.012373,-0.00589 -0.01856,-0.00883 -0.00381,-0.00545 -0.00887,-0.010213 -0.011427,-0.016351 C 1.6137421,6.9057886 1.6119806,6.8218964 1.609676,6.790687 1.5974592,6.6252462 1.6029442,6.7218043 1.5956653,6.530869 1.5899675,6.2772093 1.6133069,6.02451 1.6387227,5.7724941 1.6585032,5.5763564 1.6551716,5.611098 1.677189,5.4187679 1.710804,5.1785881 1.688552,5.3434519 1.718647,5.1052258 1.737216,4.9582307 1.74216,4.9342118 1.755734,4.7849392 1.764464,4.6889202 1.775734,4.5222736 1.78246,4.4270495 1.78492,4.3632485 1.78988,4.2994947 1.78984,4.2356462 1.7897793,4.1535375 1.7737094,3.8348689 1.7708985,3.7623987 1.7675401,3.6758178 1.7644241,3.589222 1.7623754,3.5026001 1.7582135,3.3266379 1.7586945,3.201463 1.7581889,3.0271804 1.7575963,2.8556759 1.7604617,2.8129544 1.7483181,2.6441422 1.7438767,2.5823812 1.7164903,2.3154477 1.7108094,2.2552482 1.6968766,2.1076046 1.6907107,2.0279948 1.6786046,1.8815187 1.6682639,1.6907952 1.6526893,1.5000988 1.6499107,1.309032 c -0.00135,-0.0927 5.53e-4,-0.1413671 0.00261,-0.2329705 0,0 -0.81894103,0.4180044 -0.81894103,0.4180044 v 0 c 0.004438,0.1197603 0.008972,0.2394191 0.0192339,0.3588643 0.0104643,0.1217948 0.0151508,0.152011 0.032348,0.274609 0.007339,0.052316 0.0151088,0.1045714 0.0226631,0.1568571 0.0202142,0.1597996 0.026999,0.2040621 0.0426292,0.3671367 0.006265,0.065369 0.0120539,0.1307917 0.0167981,0.196289 0.00469,0.064751 0.007206,0.1296437 0.0115022,0.1944225 0.0126418,0.1906368 0.0130127,0.1778095 0.0322859,0.3695136 0.00583,0.07195 0.012968,0.1438058 0.017488,0.2158497 0.00982,0.1565606 0.016261,0.3498816 0.015277,0.5060281 -0.00138,0.219519 -0.00813,0.2754437 -0.023414,0.4886849 -0.00459,0.06405 -0.00936,0.1280869 -0.014034,0.1921306 -0.0203229,0.2135198 -0.0124946,0.1503923 -0.0396736,0.360866 -0.0305305,0.2364277 -0.0134469,0.092049 -0.0425091,0.3225287 -0.006592,0.052281 -0.0139647,0.1044815 -0.0191624,0.1569198 -0.005071,0.051156 -0.007757,0.1025211 -0.0116348,0.1537817 -0.006278,0.077082 -0.0225489,0.2749579 -0.0280103,0.3499794 -0.018777,0.2579286 -0.0312558,0.5164387 -0.063132,0.7732583 -0.005335,0.053036 -0.0101364,0.1061273 -0.0160049,0.1591064 -0.008679,0.078355 -0.0206166,0.1382247 -0.0206878,0.2151954 -4.056e-5,0.043861 0.003326,0.085282 0.022238,0.1255229 0.007476,0.015907 0.019771,0.029066 0.0296564,0.043599 0.014351,0.012136 0.0265687,0.027383 0.0430529,0.036414 0.0418723,0.022939 0.0732258,0.017034 0.11935936,0.016769 0.0945772,-5.291e-4 0.18915757,-0.00228 0.28373887,-6.085e-4 0.1192461,0.00114 0.2384887,0.00424 0.3577397,0.00459 0.1490874,4.234e-4 0.2981859,-0.00246 0.4472211,-0.00598 0.1263168,-0.00183 0.2754903,-0.00458 0.4011699,-0.00372 0.071138,4.762e-4 0.142253,0.0027 0.2133829,0.00384 0.2115167,0.00342 0.4230603,0.00569 0.6345188,0.01212 0.1109802,0.00466 0.3506628,0.014277 0.4600969,0.020667 0.2280443,0.013311 0.2632456,0.018299 0.4907901,0.039748 0.3026381,0.028527 0.1644637,0.013372 0.4595382,0.050858 0.1832554,0.027602 0.218101,0.034876 0.3991406,0.054429 0.066104,0.00714 0.1324141,0.012242 0.198569,0.018896 0.1958784,0.019704 0.3915688,0.043279 0.5885595,0.049266 0.4955188,-0.00604 0.2439863,0.024572 1.0706941,-0.5087853 0.039666,-0.02559 0.057313,-0.076609 0.073895,-0.1208048 0.020553,-0.05478 0.027475,-0.1139182 0.035898,-0.171818 0.025048,-0.1721819 0.023069,-0.3476707 0.056903,-0.5188725 0.016044,-0.1062784 0.03189,-0.2125875 0.048136,-0.3188354 0.03048,-0.1993358 0.057215,-0.3472003 0.076897,-0.5445141 0.00634,-0.063571 0.00814,-0.1275178 0.013076,-0.1912141 0.00459,-0.059218 0.010046,-0.1183656 0.01547,-0.1775124 0.00507,-0.055251 0.010671,-0.1104521 0.016007,-0.1656781 0.019442,-0.1656691 0.039239,-0.3311088 0.065442,-0.4958834 0.027538,-0.1731706 0.034995,-0.2074606 0.070381,-0.3829553 0.013462,-0.066766 0.027404,-0.1334341 0.041106,-0.2001509 0.042798,-0.2096897 0.086086,-0.4192561 0.1304777,-0.6286151 0.023439,-0.1105516 0.064236,-0.294736 0.082827,-0.4073085 0.010242,-0.062009 0.016812,-0.1245685 0.025218,-0.186853 0.00534,-0.060571 0.012412,-0.1210133 0.01601,-0.1817122 0.00351,-0.05927 0.00333,-0.1187013 0.00532,-0.1780419 0.0022,-0.065491 0.00411,-0.1309958 0.0072,-0.19645 0.00964,-0.2039334 0.013174,-0.210924 0.026437,-0.4136182 0.00415,-0.063425 0.00759,-0.1268948 0.011388,-0.1903423 0.00235,-0.094498 0.015139,-0.2256021 -0.016158,-0.3201353 -0.01371,-0.04143 -0.033316,-0.083787 -0.065328,-0.1134316 -0.076901,-0.071216 -0.1717426,-0.054787 -0.2649524,-0.054297 -0.061354,3.228e-4 -0.1226857,0.0024 -0.1840286,0.0036 -0.068409,7.806e-4 -0.1368621,-2.459e-4 -0.2052262,0.00234 -0.076816,0.00291 -0.1534384,0.00968 -0.2301803,0.014146 -0.097814,0.00569 -0.1956295,0.011412 -0.2934862,0.016327 C 6.1477807,1.1609606 5.7512322,1.1807321 5.3546538,1.1684902 4.3474028,1.146452 5.5660845,1.1711017 4.6120295,1.1578582 4.2095054,1.1522702 4.2808879,1.1501395 3.8747401,1.1343439 3.2449897,1.109852 3.7153831,1.1334179 3.0509075,1.0959575 2.5876987,1.0559011 2.6682673,1.0649186 2.2276323,1.0193271 2.0240919,0.99826727 1.8149008,0.98453661 1.6190122,0.91973931 c 0,0 -0.80447239,0.57600239 -0.80447239,0.57600239 z" />
  </g>
</svg>
