<?xml version="1.0" encoding="UTF-8" standalone="no"?>
<!-- Created with Inkscape (http://www.inkscape.org/) -->

<svg
   width="32"
   height="32"
   viewBox="0 0 8.4666665 8.4666669"
   version="1.1"
   id="svg5"
   sodipodi:docname="touch_up.svg"
   inkscape:version="1.1 (c4e8f9e, 2021-05-24)"
   inkscape:export-filename="/home/rpolzer/src/aaaaxy/assets/sprites/touch_up.png"
   inkscape:export-xdpi="96"
   inkscape:export-ydpi="96"
   xmlns:inkscape="http://www.inkscape.org/namespaces/inkscape"
   xmlns:sodipodi="http://sodipodi.sourceforge.net/DTD/sodipodi-0.dtd"
   xmlns="http://www.w3.org/2000/svg"
   xmlns:svg="http://www.w3.org/2000/svg">
  <sodipodi:namedview
     id="namedview7"
     pagecolor="#ffffff"
     bordercolor="#666666"
     borderopacity="1.0"
     inkscape:pageshadow="2"
     inkscape:pageopacity="0.0"
     inkscape:pagecheckerboard="0"
     inkscape:document-units="mm"
     showgrid="false"
     units="px"
     width="32px"
     inkscape:zoom="34.99377"
     inkscape:cx="11.959272"
     inkscape:cy="15.688507"
     inkscape:window-width="2912"
     inkscape:window-height="2102"
     inkscape:window-x="0"
     inkscape:window-y="0"
     inkscape:window-maximized="1"
     inkscape:current-layer="layer1" />
  <defs
     id="defs2" />
  <g
     inkscape:label="Layer 1"
     inkscape:groupmode="layer"
     id="layer1">
    <path
       style="fill:#000000;stroke-width:0.264583"
       id="path166"
       d="m 3.7401992,2.5636105 c 0.00873,0.067776 0.017555,0.1214335 0.013941,0.1935367 -0.00831,0.1657982 -0.033686,0.2690053 -0.076161,0.4329965 -0.059316,0.2290119 -0.076634,0.2650942 -0.1533644,0.4874238 -0.116509,0.3114591 -0.2392929,0.6214928 -0.3856035,0.9203928 -0.020839,0.042572 -0.043197,0.084383 -0.064796,0.1265751 -0.049668,0.094222 -0.1013769,0.1875062 -0.1569854,0.2783782 -0.014084,0.023016 -0.029037,0.045493 -0.043399,0.068337 -0.041117,0.0654 -0.034672,0.055465 -0.072839,0.1199067 -0.053721,0.093913 -0.1063985,0.1884236 -0.1634903,0.2803422 -0.032631,0.050476 -0.059404,0.1043181 -0.089698,0.1561383 -0.014123,0.026795 -0.026096,0.054683 -0.040209,0.08148 -0.00728,0.013825 -0.016326,0.02672 -0.022931,0.040879 -0.00263,0.00564 -0.00433,0.011676 -0.00649,0.017515 -0.00123,0.019135 -0.00735,0.03747 -0.010487,0.056251 -0.00286,0.017153 -0.0048,0.034495 -0.00773,0.051674 -8.546e-4,0.00382 -0.00171,0.00763 -0.00256,0.011449 0,0 0.886696,-0.4375525 0.886696,-0.4375525 v 0 c 9.3e-6,-0.00288 1.88e-5,-0.00576 2.83e-5,-0.00864 0.00317,-0.029396 0.011094,-0.059159 0.026486,-0.084587 0.00736,-0.015269 0.012483,-0.03128 0.019489,-0.046711 0.012142,-0.026738 0.027523,-0.051789 0.042883,-0.076752 4.763e-4,-8.996e-4 0.025575,-0.046402 0.026846,-0.049014 0.01602,-0.032877 0.028586,-0.068056 0.046746,-0.1000115 0.046075,-0.091142 0.096545,-0.1799687 0.1423461,-0.2712643 0.00368,-0.00699 0.058317,-0.1106699 0.0602,-0.1144302 C 3.7624685,4.5914212 3.8083046,4.4810711 3.8489438,4.3691675 3.9666554,4.0382721 4.0842722,3.7070434 4.1798463,3.3688895 4.2517458,3.1247397 4.2485824,3.1300957 4.3287813,2.8807267 4.355645,2.7971977 4.3813596,2.7132563 4.410913,2.6306409 4.4847974,2.4241013 4.5005578,2.410863 4.5699212,2.2243225 c 0.010308,-0.027724 0.018304,-0.056254 0.027457,-0.084381 0,0 -0.8571782,0.4236711 -0.8571782,0.4236711 z" />
    <path
       style="fill:#000000;stroke-width:0.264583"
       id="path168"
       d="m 3.7517736,2.5016042 c 0.015703,0.033508 0.031316,0.067059 0.04711,0.1005249 0.089457,0.1895478 0.1315905,0.2616137 0.1959644,0.4781701 0.030958,0.1041427 0.053085,0.2107891 0.074708,0.3172622 0.041598,0.2048274 0.058938,0.3616515 0.085854,0.5662935 0.019793,0.1806694 0.039204,0.3614142 0.065513,0.5412798 0.00601,0.041074 0.010223,0.082517 0.019227,0.1230403 0.016126,0.072588 0.052439,0.1701852 0.076644,0.2397548 0.016317,0.042197 0.032461,0.084461 0.048952,0.1265899 0.047699,0.1218522 0.09583,0.2433809 0.1392362,0.3668649 0.032121,0.091379 0.034785,0.1028496 0.062139,0.1914866 0.021603,0.063828 0.038219,0.1291328 0.053796,0.194632 0.00826,0.034746 0.015219,0.069552 0.024815,0.1039466 0.021849,0.066051 0.053702,0.1280096 0.07851,0.1928725 0.015243,0.042817 0.00855,0.022111 0.020368,0.062025 0,0 0.8444296,-0.4742159 0.8444296,-0.4742159 v 0 C 5.5692976,5.5984981 5.578984,5.6166927 5.5605401,5.5772504 5.5338852,5.5136999 5.5147786,5.4475295 5.4918284,5.3826015 5.4772763,5.3504358 5.4602824,5.3207612 5.4430575,5.2899622 5.4108453,5.2323653 5.3810989,5.1734124 5.3505872,5.1149146 5.3397975,5.0937374 5.2683309,4.9536392 5.2606712,4.9379732 5.1844651,4.7821098 5.1159253,4.6219763 5.0694743,4.4544736 5.0575627,4.4140201 5.0452411,4.3736855 5.0337426,4.3331129 5.0227068,4.294171 5.0140417,4.2545462 5.0018751,4.2159427 4.9900271,4.1783468 4.9753186,4.141711 4.9617516,4.1047003 4.9031657,3.944879 4.8425592,3.7857972 4.7843053,3.6258529 4.7584423,3.5457918 4.7301806,3.4664655 4.7067123,3.3856697 4.6509646,3.1937433 4.5950147,2.9699894 4.5716166,2.7719684 4.5587552,2.6631159 4.5544451,2.5532446 4.55349,2.443639 4.5533873,2.431857 4.570227,2.128218 4.57386,2.0622906 c 0,0 -0.8220847,0.4393136 -0.8220847,0.4393136 z" />
    <path
       style="fill:#000000;stroke-width:0.264583"
       id="path172"
       d="m 2.3642467,6.1193507 c 0.2833294,-0.05873 0.5743224,-0.076377 0.8631979,-0.076593 0.068754,-5.13e-5 0.1374754,0.00301 0.2062133,0.00451 0.1633242,0.0089 0.1559489,0.00735 0.3071683,0.01951 0.060461,0.00486 0.1359466,0.012705 0.1974906,0.016179 0.074941,0.00423 0.086088,0.00285 0.1607396,0.00201 0.1306629,-0.00201 0.2592092,-0.027225 0.3891357,-0.037793 0.022005,-0.00354 0.044379,-6.086e-4 0.06645,-0.00266 0.013486,-0.00127 0.026814,-0.00388 0.040243,-0.00565 0.051008,-0.00675 0.039227,-0.00514 0.090657,-0.00952 0,0 0.7650882,-0.5628169 0.7650882,-0.5628169 v 0 c -0.014952,5.027e-4 -0.029901,9.789e-4 -0.044852,0.00148 -0.013888,2.911e-4 -0.027778,4.234e-4 -0.041661,8.467e-4 -0.01211,3.704e-4 -0.024265,3.175e-4 -0.036318,0.00156 -0.028488,0.00296 -0.056273,0.011218 -0.08478,0.013986 -0.06261,0.010033 -0.1253453,0.019037 -0.1878865,0.029511 -0.033307,0.00558 -0.1115573,0.019349 -0.1444064,0.023876 -0.025916,0.00357 -0.051971,0.00605 -0.077956,0.00908 -0.3234497,0.024924 0.177878,-0.013272 -0.1747298,0.012015 -0.2020855,0.014491 -0.4039822,0.032431 -0.6065583,0.039271 -0.073383,0.00185 -0.1467445,0.0052 -0.2201505,0.00555 -0.1878484,8.995e-4 -0.3781441,-0.00362 -0.5635456,-0.03704 -0.026374,-0.00475 -0.079788,-0.019934 -0.1122902,-0.02898 0,0 -0.791249,0.5816494 -0.791249,0.5816494 z" />
    <path
       style="fill:#000000;stroke-width:0.264583"
       id="path279"
       d="M 0.60224286,1.3344711 C 0.7376752,1.3151031 0.7867855,1.3067394 0.95104679,1.2942639 1.1866342,1.2763712 1.4595159,1.2682093 1.693621,1.2644626 c 0.1413134,-0.00226 0.2826578,-0.0031 0.4239878,-0.00242 0.1285708,6.139e-4 0.2571104,0.00419 0.3856655,0.00628 0.1173345,0.00182 0.2346562,0.00491 0.3520034,0.00545 0.4553546,0.00212 0.2868832,-0.00925 0.7250039,0.00557 0.097942,0.00331 0.1957654,0.00951 0.2936584,0.01405 0.2373,0.011008 0.2939486,0.013105 0.5278826,0.02286 0.076715,0.00355 0.1533861,0.00821 0.2301446,0.010641 0.092512,0.00292 0.4025125,0.00609 0.4933022,0.00803 0.077416,0.00165 0.1547836,0.00532 0.2322065,0.0066 0.080147,0.00132 0.1603147,5.61e-4 0.24047,0.00117 0.07399,5.663e-4 0.1479767,0.00157 0.221965,0.00236 0.2052521,0.0051 0.1425797,0.00289 0.3265787,0.00963 0.036654,0.00134 0.073278,0.00385 0.109955,0.0042 0.039531,3.73e-4 0.079048,-0.00203 0.1185807,-0.00204 0.072707,-1.98e-5 0.1120177,0.00247 0.1822749,0.00567 0.021743,7.911e-4 0.091556,0.00318 0.1178308,0.00459 0.010446,5.609e-4 0.030461,0.012657 0.031299,0.00223 9.79e-4,-0.012276 -0.020233,-0.02982 -0.029714,-0.021958 -0.014042,0.011645 -0.00654,0.035911 -0.00892,0.053997 -0.0046,0.034861 -0.00802,0.069867 -0.012031,0.1048001 -0.00504,0.043687 -0.010763,0.0873 -0.015113,0.1310616 -0.00485,0.048843 -0.00882,0.097774 -0.012488,0.1467208 -0.00769,0.1027391 -0.014211,0.2001315 -0.012758,0.3032775 0.00177,0.126483 0.012409,0.2231948 0.023172,0.3502935 0.00523,0.066654 0.00933,0.133406 0.015687,0.1999612 0.034986,0.3660688 0.015769,0.092382 0.058385,0.495182 0.020643,0.195113 0.034791,0.4108614 0.049665,0.6061786 C 6.770205,3.8424638 6.778367,3.9460588 6.786392,4.049664 6.808178,4.4335496 6.798632,4.2462899 6.81551,4.6155774 6.825876,4.8424195 6.830935,4.890816 6.830324,5.1134732 6.8298742,5.2821617 6.824854,5.3534638 6.817187,5.5183777 6.807014,5.7292504 6.78091,5.9392616 6.740117,6.1463758 6.737897,6.1577288 6.692504,6.3680686 6.689183,6.3834806 6.645991,6.5559167 6.638198,6.734217 6.60654,6.9087253 6.589903,7.0004343 6.577706,7.0430963 6.55563,7.1304131 6.536186,7.1894071 6.518982,7.2510363 6.494232,7.3082284 c -0.00482,0.011142 -0.011009,0.02164 -0.016502,0.032466 -0.020881,0.041165 -0.00927,0.019174 -0.031104,0.059201 -0.00796,0.012552 -0.018338,0.032192 -0.031313,0.04152 -0.00505,0.00363 -0.02272,0.010009 -0.017381,0.00682 0.2721044,-0.1628151 0.5490384,-0.317668 0.8178876,-0.4858036 0.026215,-0.016396 -0.057552,0.02394 -0.087997,0.029338 -0.052356,0.00928 -0.1059085,0.00961 -0.1588627,0.014422 -0.059303,0.00111 -0.1185955,0.00317 -0.1779087,0.00336 -0.1974316,6.35e-4 -0.3949489,-0.00683 -0.5922627,-0.012316 -0.1977424,-0.0055 -0.2596557,-0.00649 -0.4602231,-0.010795 -0.307086,3.5e-6 -0.6136656,-0.019825 -0.9206174,-0.025371 -0.167843,-0.00303 -0.2329945,-0.00153 -0.3995878,-3.439e-4 -0.1886424,7.673e-4 -0.3774292,0.00512 -0.5657263,0.017153 -0.1993,0.012732 -0.3980106,0.03397 -0.5966804,0.053862 -0.1992103,0.021056 -0.3981423,0.046627 -0.5980377,0.060744 -0.092414,0.00653 -0.1224591,0.00625 -0.2106558,0.00822 -0.025279,-3.81e-5 -0.1077697,-6.35e-4 -0.1354168,0.00103 -0.1784317,0.010755 -0.00335,0.00725 -0.2004328,0.014589 -0.053431,0.00198 -0.1338216,0.00132 -0.1883519,0.00119 -0.080098,-7.938e-4 -0.1601284,-0.00373 -0.2400428,-0.00886 -0.00397,-2.075e-4 -0.00795,-0.00106 -0.011902,-6.35e-4 -0.020175,0.0023 0.012739,0.043147 0.013311,0.04335 0.00524,0.00185 -7.4e-5,-0.011128 -1.11e-4,-0.01669 4.921e-4,-0.057259 -0.00609,-0.1140225 -0.011771,-0.1708878 -0.00338,-0.033847 -0.0055,-0.06784 -0.010038,-0.1015521 C 1.6598352,6.8424382 1.6154318,6.5741004 1.6146359,6.5692721 1.5817279,6.3060119 1.5438752,6.0432587 1.5169675,5.7792733 1.5118542,5.7291081 1.5077696,5.6788436 1.5031706,5.6286286 1.4961562,5.5184868 1.4890476,5.434268 1.4891175,5.3235693 c 3.3e-5,-0.052409 0.00239,-0.1047975 0.00467,-0.1571564 0.00502,-0.1153451 0.011472,-0.2060821 0.023562,-0.3207954 0.00524,-0.049719 0.01207,-0.099257 0.018105,-0.1488847 0.00621,-0.046331 0.012974,-0.092591 0.018633,-0.1389923 0.0056,-0.045918 0.011963,-0.091797 0.015142,-0.1379463 0.00709,-0.1029097 0.0046,-0.226848 0.00605,-0.3290747 0.00157,-0.1104723 0.00573,-0.2351982 0.00905,-0.3458303 0.013655,-0.2977274 -0.010538,-0.5953408 -0.012715,-0.893006 -4.948e-4,-0.067594 0.00102,-0.135187 0.00153,-0.2027807 0.00203,-0.06174 0.00381,-0.1234875 0.00608,-0.1852185 0.00616,-0.1674281 0.00853,-0.1524147 0.00869,-0.3152765 1.561e-4,-0.1562311 -0.00774,-0.3122325 -0.01395,-0.4683232 -0.00693,-0.099697 -5.248e-4,-0.1995537 -0.00294,-0.2992938 -0.00962,-0.39660862 -0.00747,0.094453 -0.00717,-0.3087177 0,0 -0.79011513,0.4026746 -0.79011513,0.4026746 v 0 c 1.3438e-4,0.052345 8.6254e-4,0.1046929 4.0217e-4,0.1570365 -4.6831e-4,0.053531 -0.004577,0.1070524 -0.003187,0.1605673 0.002514,0.096818 0.0227891,0.1927105 0.0186454,0.2899527 6.7205e-4,0.054885 0.001672,0.1097678 0.002013,0.1646562 0.001013,0.163098 -0.001646,0.1479007 0.001926,0.3071587 0.003317,0.1478665 0.005687,0.1532735 0.0119658,0.3039937 0.002482,0.059559 0.004474,0.1191376 0.006711,0.1787065 7.5406e-4,0.066949 0.002508,0.1338939 0.002265,0.2008468 -0.001098,0.3016922 -0.0223327,0.6032288 -0.0139721,0.9049948 1.5624e-4,0.1235686 0.001913,0.2168125 -0.004787,0.3408979 -0.0110368,0.2044404 -0.0459168,0.4064368 -0.0594934,0.6106528 -0.008648,0.1239998 -0.0126423,0.1797891 -0.0209862,0.3056913 -0.003662,0.055261 -0.008265,0.110471 -0.0107701,0.1657959 -0.007161,0.1581285 -0.00595,0.3168592 0.009488,0.4744934 0.0139787,0.1378434 0.0158893,0.1665602 0.033869,0.3041695 0.0276159,0.2113584 0.0635111,0.4216482 0.0850196,0.6337893 0.002963,0.054789 0.007742,0.1095107 0.008888,0.1643684 6.985e-4,0.033407 -0.003388,0.2010124 -0.006737,0.24701 -0.006148,0.084442 -0.009624,0.073451 -0.0192802,0.148454 -0.001865,0.014491 -0.002717,0.029096 -0.004076,0.043645 3.6513e-4,0.012382 -0.001939,0.025135 0.001093,0.037144 0.007981,0.031625 0.0151545,0.048027 0.0359713,0.067561 0.004915,0.00461 0.009876,0.00947 0.015907,0.012486 0.009096,0.00454 0.0170879,2.911e-4 0.0256651,-0.00222 0.0150127,-0.00367 0.0304934,-0.00778 0.045795,-0.00982 0.0126632,-0.00169 0.0254418,-0.00235 0.0381672,-0.00349 0.0647276,-0.00574 0.12948196,-0.011295 0.19435716,-0.015116 0.078634,-0.00372 0.1157091,-0.00632 0.1956065,-0.00652 0.033034,-8.57e-5 0.066063,8.996e-4 0.099091,0.00156 0.027277,5.556e-4 0.05455,0.00284 0.081821,0.00206 0.01281,-3.704e-4 0.1510617,-0.014597 0.1553571,-0.015028 0.1133745,-0.011091 0.1130538,-0.011292 0.2329782,-0.021963 0.046278,-0.00412 0.092691,-0.00685 0.1388581,-0.012065 0.049332,-0.00557 0.098397,-0.013317 0.1475492,-0.020304 0.1151869,-0.016372 0.2301614,-0.034217 0.3453904,-0.050299 0.1878453,-0.024498 0.2047762,-0.028892 0.3957059,-0.044801 0.1328105,-0.011068 0.255029,-0.017542 0.3880477,-0.022643 0.062415,-0.00238 0.1248733,-0.0035 0.1872983,-0.00561 0.063255,-0.00214 0.1264928,-0.00477 0.1897393,-0.00715 0.167113,-0.0047 0.2390264,-0.0076 0.4074343,-0.0087 0.3102848,-0.00204 0.6207513,0.00284 0.9307565,0.016026 0.2154774,0.00996 0.4309591,0.020429 0.6463514,0.032105 0.064078,0.00347 0.1280893,0.00814 0.1921793,0.011393 0.059277,0.003 0.1186254,0.00446 0.1779077,0.00736 0.054155,0.00265 0.1082617,0.0062 0.1623922,0.00929 0.042062,0.00524 0.084493,0.00809 0.126187,0.015729 0.025434,0.00466 0.051668,0.032915 0.074656,0.021077 0.9416663,-0.4849852 0.7393789,-0.2040975 0.890751,-0.57428 0.00718,-0.017828 0.02041,-0.049444 0.025516,-0.067488 0.00325,-0.011475 0.00502,-0.023318 0.00729,-0.035023 0.01088,-0.056086 0.018264,-0.1127279 0.023252,-0.1696429 0.011843,-0.1162706 0.022339,-0.2329945 0.041339,-0.348384 0.018415,-0.1118249 0.032836,-0.1663764 0.056323,-0.2753464 0.00833,-0.038665 0.016269,-0.077415 0.024405,-0.1161227 0.00663,-0.038163 0.014034,-0.076201 0.019897,-0.1144902 C 7.5445635,5.7914777 7.5556469,5.6919354 7.563123,5.6145704 7.578789,5.4524505 7.5872318,5.2898767 7.5868852,5.1269463 7.5848744,5.0648023 7.5840065,5.0026112 7.5808659,4.940514 7.577384,4.8716903 7.5717987,4.8029889 7.5670229,4.7342427 7.5600856,4.6343673 7.5389618,4.3386401 7.5304935,4.2446442 7.5138962,4.0604072 7.4903866,3.8768348 7.4741537,3.6925615 7.4522858,3.4068924 7.4461719,3.3571534 7.433493,3.0704067 7.4183456,2.7278025 7.4202771,2.3848142 7.4066677,2.0421618 c 9.37e-5,-0.1645253 -0.00116,-0.1983121 0.00353,-0.3569363 0.00296,-0.10018 0.00652,-0.1975433 0.018526,-0.2971482 0.015372,-0.1275557 0.025561,-0.158815 0.053216,-0.2816985 0.01144,-0.039244 0.02444,-0.078067 0.034319,-0.11773302 0.01924,-0.0772651 0.041318,-0.12513662 -0.023344,-0.19243284 -0.00995,-0.010351 -0.028648,0.001931 -0.042939,0.003292 -0.1386882,0.0131995 0.030185,-2.277e-4 -0.1344332,0.0120261 -0.073879,0.003067 -0.1267992,0.005616 -0.2019633,0.007134 -0.039904,8.0698e-4 -0.079865,-6.1383e-4 -0.1197293,0.001334 -0.043335,0.002117 -0.086449,0.007512 -0.1297072,0.0108521 C 6.67523,0.84543654 6.70074,0.84267904 6.496741,0.85291734 c -0.076459,0.001365 -0.152907,0.003745 -0.2293774,0.004092 -0.079318,3.5984e-4 -0.1586312,-0.001437 -0.2379482,-0.001971 -0.079737,-5.3711e-4 -0.1594826,-7.612e-5 -0.2392127,-0.001249 -0.1623436,-0.002389 -0.32458,-0.010197 -0.4869267,-0.012341 -0.081433,-0.001074 -0.1628799,2.886e-5 -0.24432,4.328e-5 -0.1663255,-0.002035 -0.3902072,-0.005515 -0.5550942,-0.004389 -0.1069774,7.3025e-4 -0.2139202,0.004351 -0.3208957,0.005279 -0.3074516,0.002668 -0.4206237,-8.94e-6 -0.7299552,-0.003227 -0.1233226,7.2231e-4 -0.2465888,0.005454 -0.3698833,0.008181 -0.1328023,0.001212 -0.2656057,0.004946 -0.3984072,0.003632 C 2.4662311,0.84880401 2.1411649,0.83509645 1.9192203,0.8201534 1.8253129,0.81383081 1.7313614,0.80711732 1.6378821,0.79615376 1.5295448,0.78344759 1.4912287,0.77302229 1.4034929,0.75232889 c 0,0 -0.80125004,0.58214221 -0.80125004,0.58214221 z" />
  </g>
</svg>
