<?xml version="1.0" encoding="UTF-8" standalone="no"?>
<!-- Created with Inkscape (http://www.inkscape.org/) -->

<svg
   width="32"
   height="32"
   viewBox="0 0 8.4666665 8.4666669"
   version="1.1"
   id="svg5"
   inkscape:version="1.1 (c4e8f9e, 2021-05-24)"
   sodipodi:docname="touch_left.svg"
   inkscape:export-filename="/home/rpolzer/src/aaaaxy/assets/sprites/touch_left.png"
   inkscape:export-xdpi="96"
   inkscape:export-ydpi="96"
   xmlns:inkscape="http://www.inkscape.org/namespaces/inkscape"
   xmlns:sodipodi="http://sodipodi.sourceforge.net/DTD/sodipodi-0.dtd"
   xmlns="http://www.w3.org/2000/svg"
   xmlns:svg="http://www.w3.org/2000/svg">
  <sodipodi:namedview
     id="namedview7"
     pagecolor="#ffffff"
     bordercolor="#666666"
     borderopacity="1.0"
     inkscape:pageshadow="2"
     inkscape:pageopacity="0.0"
     inkscape:pagecheckerboard="0"
     inkscape:document-units="mm"
     showgrid="false"
     units="px"
     width="32px"
     inkscape:zoom="34.99377"
     inkscape:cx="8.2443246"
     inkscape:cy="15.774236"
     inkscape:window-width="3840"
     inkscape:window-height="2160"
     inkscape:window-x="0"
     inkscape:window-y="0"
     inkscape:window-maximized="1"
     inkscape:current-layer="layer1" />
  <defs
     id="defs2" />
  <g
     inkscape:label="Layer 1"
     inkscape:groupmode="layer"
     id="layer1">
    <path
       style="fill:#000000;stroke-width:0.264583"
       id="path85"
       d="m 0.82828364,1.138915 c 0.11678497,0.2894707 0.13887151,0.5938065 0.14896627,0.9028441 0.005346,0.1636523 0.002495,0.5920612 0.001979,0.7538969 -0.003775,0.2417257 -0.0125852,0.4833308 -0.0178287,0.7250202 -0.007785,0.358843 8.3079e-4,0.325029 -0.0256955,0.6770526 -0.0177154,0.2350995 -0.032939,0.3448868 -0.0599909,0.5746769 -0.010885,0.080408 -0.0219287,0.1607952 -0.0326549,0.2412248 -0.0221887,0.1663774 -0.0341546,0.2485949 -0.0489703,0.4134046 -0.005643,0.062773 -0.00875,0.1257522 -0.0140208,0.1885577 -0.004231,0.050408 -0.0257699,0.2700247 -0.0313063,0.326884 -0.004734,0.044686 -0.009711,0.089347 -0.0142015,0.1340575 -0.003993,0.039759 -0.006914,0.079625 -0.0112503,0.1193485 -0.0127056,0.1164045 -0.0320988,0.2315334 -0.0538705,0.3465139 -0.0176546,0.084296 -0.0302174,0.1693794 -0.0363014,0.2552692 4.432e-5,0.068489 0.0115197,0.1361311 0.0157253,0.2043822 0.00374,0.060695 0.002951,0.065284 0.003276,0.1249214 -7.6994e-4,0.086859 -0.004558,0.1736037 -0.001913,0.2604548 0.003257,0.045551 -0.00764,0.089855 -0.0147934,0.1343946 -0.001955,0.00457 -0.00797,0.017828 -0.008897,0.023103 -0.006518,0.037087 0.035056,0.063135 0.0709665,0.074902 0.0305075,0.01 0.0640631,-0.00439 0.0960271,-0.00738 0.0439231,-0.00411 0.0877412,-0.00927 0.1316118,-0.013907 0.25957759,-0.02471 0.52039559,-0.031417 0.78096949,-0.035049 0.075992,-0.00106 0.1519818,-0.00287 0.2279808,-0.00274 0.070287,1.162e-4 0.1405556,0.0023 0.2108334,0.00346 0.2369828,0.00316 0.4725247,0.028845 0.7075651,0.056746 0.01883,6.086e-4 0.037653,0.0018 0.056494,0.00183 0.04268,3.54e-5 0.086232,-0.00331 0.1287592,-0.00571 0.074145,-0.00419 0.1482857,-0.00782 0.2223984,-0.012562 0.030135,-0.00254 0.060261,-0.00519 0.090403,-0.00765 0.098471,-0.00803 0.1504733,-0.012806 0.2521677,-0.015687 0.048228,-0.00138 0.09649,-0.00101 0.1447356,-0.00138 0.1103233,-8.732e-4 0.2148459,-0.0013 0.3253012,-0.00185 0.2150938,-0.015068 0.4308261,-0.013859 0.6457617,0.00254 0.2337067,0.017817 0.077886,0.010184 0.278035,0.031734 0.038064,0.0041 0.076319,0.00617 0.1144778,0.00926 0.1531088,0.010501 0.3066163,0.00858 0.4598746,0.014912 0.064724,0.00267 0.1294122,0.00618 0.1941322,0.00895 0.088039,0.00395 0.1761257,0.0033 0.264092,0.00902 0.021349,0.00138 0.042591,0.00433 0.063963,0.00527 0.062004,0.00275 0.096794,-5.82e-4 0.1611625,-0.00358 0.075615,-5.557e-4 0.087386,-0.00164 0.1594654,0.00135 0.019346,7.938e-4 0.038643,0.00427 0.057989,0.00344 0.036823,-0.00159 0.073319,-0.00768 0.1100553,-0.01066 0.1407139,-0.011411 0.1164746,-0.00886 0.2518293,-0.010118 0.1087277,-0.00653 0.2174772,-0.00169 0.3261797,0.00108 0.00448,1.149e-4 0.1095428,0.00365 0.1220743,-0.00326 0.28591,-0.1576687 0.5646187,-0.3280569 0.8469277,-0.4920853 0.014155,-0.053711 0.021622,-0.064073 0.017288,-0.1208122 -0.0019,-0.024964 -0.00856,-0.049339 -0.012229,-0.074103 -0.00395,-0.026644 -0.00746,-0.053355 -0.010647,-0.080101 -0.00735,-0.061696 -0.010014,-0.097729 -0.015378,-0.15925 C 8.0992183,6.629383 8.0971572,6.5462311 8.0815944,6.4649201 8.0744798,6.4277483 8.0654998,6.3909564 8.057819,6.3538972 8.0407243,6.2819126 8.0351892,6.2076387 8.0181442,6.13567 8.0092304,6.0980301 7.9967129,6.060619 7.9851435,6.0237808 7.9444789,5.9074824 7.9211773,5.7863813 7.8973148,5.6658332 7.8836755,5.5939795 7.867265,5.522216 7.858052,5.4495866 7.8467199,5.3602458 7.8449762,5.2693368 7.8397057,5.1795171 7.8364037,5.0884483 7.838912,4.9973375 7.8384622,4.9062459 7.8380389,4.820317 7.8361074,4.8076027 7.8380653,4.720546 c 7.409e-4,-0.032562 0.00246,-0.065095 0.00368,-0.097642 0.00346,-0.09361 0.011888,-0.1869101 0.019611,-0.2802289 0.0023,-0.027676 0.00543,-0.055299 0.00676,-0.083038 0.00114,-0.023858 0.00177,-0.1510803 0.00193,-0.1734746 -0.00146,-0.1290561 -0.00143,-0.2583098 0.00678,-0.3871685 0.00387,-0.060686 0.00931,-0.1212612 0.013891,-0.1818976 0.00188,-0.030253 0.00388,-0.060498 0.00562,-0.090759 0.00585,-0.1016359 0.00788,-0.2031841 0.00925,-0.3049735 5.292e-4,-0.039226 2.91e-4,-0.078463 0.00119,-0.1176824 8.996e-4,-0.040196 0.00276,-0.080365 0.00414,-0.1205474 0.00138,-0.040563 0.00279,-0.081124 0.0041,-0.1216898 0.00401,-0.1244767 0.00692,-0.2489793 0.00752,-0.3735261 0.00124,-0.2530987 -0.00269,-0.014975 0.00257,-0.2691481 0.00127,-0.086669 0.00538,-0.1732714 0.00695,-0.2599324 7.673e-4,-0.04205 7.38e-5,-0.084121 0.00106,-0.126166 9.261e-4,-0.039888 0.00318,-0.079735 0.00471,-0.1196044 0.00689,-0.1793469 0.00116,-0.040975 0.00833,-0.2091806 0.00333,-0.1192213 0.012054,-0.2388434 0.00583,-0.3581392 -9.525e-4,-0.018025 -0.00268,-0.035999 -0.00403,-0.0539987 -0.00143,-0.0172183 -0.00259,-0.0344571 -0.00425,-0.0516548 -0.00457,-0.0477719 -0.00715,-0.0558715 -0.010051,-0.10356517 -0.00241,-0.0394113 -0.00175,-0.0789515 -0.00198,-0.11841022 -0.00143,-0.0409931 -8.467e-4,-0.0756461 -0.057617,-0.0905165 -0.042362,-0.0110974 -0.087542,-0.004049 -0.1313299,-0.003446 -0.058845,8.0963e-4 -0.1175536,0.006126 -0.1763835,0.00768 -0.070041,0.001849 -0.1401201,0.001688 -0.2101802,0.002532 -0.1952358,2.323e-5 -0.3899125,-0.0161764 -0.5838973,-0.0366509 -0.00995,-0.00105 -0.2334567,-0.0271493 -0.2564442,-0.0293282 -0.034439,-0.003264 -0.068997,-0.005126 -0.1034958,-0.007689 -0.035461,-1.4653e-4 -0.070929,-0.001109 -0.1063839,-4.3921e-4 -0.083793,0.00158 -0.1495226,0.007228 -0.2336218,0.0121515 -0.041719,0.002442 -0.083474,0.004254 -0.1251844,0.006842 -0.047045,0.002919 -0.094011,0.007072 -0.1410748,0.009676 -0.044375,0.002455 -0.08881,0.003667 -0.1332153,0.005501 -0.040764,0.001294 -0.081525,0.002684 -0.122292,0.003885 -0.015822,4.6566e-4 -0.1976379,0.005192 -0.2165273,0.006098 C 5.1912372,0.6112633 5.0487109,0.6251502 4.906355,0.6377179 4.847621,0.6421459 4.7889152,0.6469619 4.7301531,0.6510018 4.5974151,0.6601268 4.5069371,0.6651133 4.3746452,0.670233 4.2293109,0.675858 4.0839187,0.679 3.9385889,0.684911 3.8940589,0.687186 3.8494329,0.68803 3.8049984,0.691734 3.7496924,0.696344 3.6947375,0.7045486 3.639493,0.7098431 3.4451394,0.7284695 3.2503658,0.7380226 3.0552473,0.7427862 c -0.091476,9.3662e-4 -0.183066,4.4185e-4 -0.2744161,0.006266 -0.035567,0.002267 -0.071034,0.00591 -0.1065752,0.008553 -0.078759,0.005856 -0.1342857,0.009033 -0.2127183,0.013862 -0.081834,0.004984 -0.163717,0.009483 -0.2456733,0.0119018 -0.017751,5.2388e-4 -0.035508,8.3344e-4 -0.053265,0.00109 -0.013343,1.937e-4 -0.026778,-0.001289 -0.040031,2.6371e-4 -0.024773,0.002901 -0.04912,0.008701 -0.07368,0.0130508 -0.1252207,0.0257067 -0.253198,0.0346529 -0.3808211,0.0306126 -0.023463,-7.4348e-4 -0.047015,-8.3079e-4 -0.070336,-0.003511 -0.020021,-0.002302 -0.039582,-0.0076 -0.059373,-0.0114004 0,0 -0.75867783,0.53023189 -0.75867783,0.53023189 v 0 c 0.0409343,0.00737 0.11312993,0.02195 0.15395017,0.022501 0.029415,3.969e-4 0.0586372,-0.00483 0.0879648,-0.00713 0.093838,-0.00736 0.1881792,-0.016989 0.2823536,-0.00913 0.019003,1.777e-4 0.038069,0.00209 0.057008,5.318e-4 0.017547,-0.00144 0.034615,-0.00647 0.051956,-0.00951 0.021927,-0.00385 0.043857,-0.00769 0.065848,-0.011164 0.07066,-0.01115 0.097965,-0.014466 0.1710852,-0.022764 0.033362,-0.00379 0.066768,-0.00718 0.100152,-0.010769 0.083493,-0.00685 0.1251982,-0.011377 0.2088153,-0.013869 0.032215,-9.605e-4 0.064471,3.069e-4 0.096684,-7.197e-4 0.1041695,-0.00332 0.207434,-0.017519 0.3106782,-0.030747 0.045878,-0.00515 0.091693,-0.010888 0.1376327,-0.015449 0.129572,-0.012864 0.1813848,-0.015339 0.3123646,-0.024148 0.05275,-0.00355 0.1054566,-0.00784 0.1582534,-0.010612 0.048835,-0.00257 0.09778,-0.0027 0.1466067,-0.00541 0.045994,-0.00256 0.091869,-0.00693 0.1378035,-0.010392 0.1754444,-0.013395 0.117998,-0.00874 0.2988225,-0.023681 0.055813,-0.00461 0.1115645,-0.010021 0.1674304,-0.01394 0.130723,-0.00917 0.219637,-0.012517 0.3504475,-0.015888 0.05426,-0.0014 0.1085374,-0.00197 0.1628061,-0.00296 0.068715,-8.758e-4 0.2007145,-0.00266 0.2721949,-0.00319 0.038143,-2.778e-4 0.07631,8.943e-4 0.1144309,-4.287e-4 0.1206725,-0.00418 0.2407058,-0.020687 0.3612658,-0.026671 0.044805,-0.00231 0.089574,-0.00549 0.1344163,-0.00692 0.043275,-0.00138 0.086593,-6.879e-4 0.1298816,-0.00151 0.1504296,-0.00284 0.3007706,-0.00875 0.4511219,-0.014123 0.3380822,-0.013818 0.6777514,-0.019208 1.0146451,0.018127 0.057486,0.00808 0.1152165,0.014573 0.1724586,0.024229 0.041245,0.00696 0.082149,0.015931 0.1228474,0.025584 0.018248,0.00433 0.035115,0.017361 0.05384,0.016326 0.00642,-3.546e-4 -0.00384,-0.013213 -0.00153,-0.019215 0.00359,-0.00938 0.00927,0.047405 0.011208,0.027983 0.00972,0.034053 0.017862,0.06848 0.022619,0.1036415 0.00695,0.051357 0.00837,0.1033586 0.015216,0.1547333 0.014401,0.1276828 0.029193,0.2553494 0.037413,0.3836265 0.00746,0.1039256 0.014496,0.2079241 0.015782,0.3121594 5.292e-4,0.041878 -7.144e-4,0.083761 -6.615e-4,0.125642 5.45e-5,0.041711 6.615e-4,0.08342 9.79e-4,0.1251299 -5.5e-5,0.043367 -1.098e-4,0.086735 -1.646e-4,0.1301024 -6.879e-4,0.044725 -6.614e-4,0.089468 -0.00204,0.1341767 -0.00277,0.089021 -0.00824,0.1779374 -0.012261,0.2669104 -0.011607,0.256816 -5.291e-4,-0.00353 -0.00928,0.2465814 -0.00143,0.040538 -0.00327,0.08106 -0.00491,0.1215901 -0.00609,0.1214416 -0.00505,0.1209952 -0.015137,0.2419101 -0.011306,0.1355256 -0.028411,0.2705042 -0.036945,0.4062791 -0.00874,0.1905172 -0.00678,0.3814413 -0.019902,0.571819 -0.00303,0.05852 -0.00768,0.1169559 -0.01011,0.1755035 -0.00492,0.1183158 -8.202e-4,0.2369743 -0.00904,0.3551935 -0.00484,0.097511 -0.011451,0.195316 -0.011499,0.2929909 -2.3e-5,0.047 0.00388,0.1313717 0.00556,0.1780651 0.00114,0.031357 0.00214,0.062719 0.0032,0.094079 5.821e-4,0.032237 5.557e-4,0.06449 0.00175,0.09671 0.00132,0.036504 0.00883,0.1461209 0.010597,0.1825464 0.00146,0.030103 0.00151,0.060271 0.00336,0.090352 0.00265,0.042769 0.00995,0.1030166 0.014806,0.1460945 0.00988,0.055681 0.010586,0.06599 0.024569,0.1202126 0.021087,0.081762 0.049526,0.1616652 0.065245,0.2448201 0.026083,0.1173117 2.246e-4,-0.00135 0.023191,0.1108823 0.014608,0.071373 0.03298,0.1419725 0.044729,0.2139284 0.00329,0.018968 0.0069,0.037886 0.00987,0.056907 0.00297,0.019008 0.00462,0.038219 0.00797,0.057165 0.00291,0.016499 0.00709,0.03275 0.010795,0.04909 0.01342,0.059235 0.027259,0.1184013 0.036166,0.1785522 0.00833,0.061015 0.014049,0.091455 0.016021,0.1538335 8.202e-4,0.026051 0.0018,0.052265 -8.996e-4,0.078189 -0.00297,0.02843 -0.013441,0.081022 -0.033607,0.1071922 -0.00743,0.00964 -0.019129,0.01506 -0.028693,0.02259 0.2571991,-0.1442169 0.5143982,-0.2884336 0.771597,-0.4326506 -0.019391,0.010303 -0.037408,0.023765 -0.058171,0.030905 -0.026807,0.00922 -0.055139,0.013549 -0.08318,0.017711 -0.1141825,0.016952 -0.2305161,0.015049 -0.345532,0.015534 -0.1117754,0.00198 -0.1212792,0.0053 -0.2297197,-0.0045 -0.027375,-0.00246 -0.054309,-0.00949 -0.081771,-0.010642 -0.023331,-9.789e-4 -0.046611,0.00296 -0.069925,0.00429 -0.1002323,0.00572 -0.062661,0.00413 -0.1653566,0.00509 -0.025969,-0.00164 -0.051901,-0.00399 -0.077905,-0.00493 -0.07295,-0.00262 -0.071038,7.673e-4 -0.146047,0.00335 -0.092024,0.00319 -0.1839656,6.35e-4 -0.2760126,5.292e-4 -0.1077412,-4.42e-5 -0.2155981,0.00217 -0.3233272,8.467e-4 -0.1171252,-0.00143 -0.2342007,-0.00757 -0.3513515,-0.00804 -0.042726,7.54e-5 -0.085465,-8.731e-4 -0.1281761,2.262e-4 -0.2873923,0.00731 -0.012372,0.00859 -0.3384537,0.011549 -0.1617437,0.00148 -0.2622209,-3.439e-4 -0.4238548,-0.011938 -0.062178,-0.00446 -0.1241129,-0.011843 -0.186169,-0.017764 -0.1776013,-0.00703 -0.1323415,-0.00486 -0.3043616,-0.013102 -0.044941,-0.00214 -0.089912,-0.00378 -0.134815,-0.00663 -0.070952,-0.00449 -0.1455439,-0.013047 -0.2168713,-0.015775 -0.027023,-0.00103 -0.054083,-3.44e-4 -0.081125,-5.027e-4 -0.048247,0.00206 -0.096438,0.00533 -0.1446909,0.00726 -0.084296,0.00337 -0.1688726,-0.00209 -0.2529072,0.0077 -0.056618,0.00535 -0.1175758,0.011411 -0.1739252,0.015274 -0.221679,0.015192 -0.4439843,0.021463 -0.6661078,0.024773 -0.072849,7.143e-4 -0.1456946,0.00246 -0.2185459,0.00214 -0.072879,-3.175e-4 -0.1457364,-0.00262 -0.218601,-0.00411 -0.069119,-0.0014 -0.1382533,-0.00235 -0.2073498,-0.00461 -0.1616148,-0.00531 -0.3231238,-0.01505 -0.4843955,-0.0266 -0.031131,-0.00382 -0.062356,-0.00694 -0.093392,-0.011467 -0.015534,-0.00228 -0.038264,-0.022431 -0.046244,-0.00891 -0.00963,0.016312 0.01266,0.035733 0.020139,0.053136 5.001e-4,0.00116 0.00103,-0.00235 0.00114,-0.00361 3.281e-4,-0.00359 2.003e-4,-0.0072 1.763e-4,-0.010806 -3.6e-5,-0.00542 -2.374e-4,-0.010827 -3.572e-4,-0.01624 8.89e-4,-0.019579 0.00151,-0.039443 -1.93e-5,-0.059012 -0.00208,-0.026674 -0.00818,-0.053022 -0.0093,-0.079812 -0.00585,-0.082607 -0.013059,-0.1650859 -0.02212,-0.247411 -0.00522,-0.061657 -0.00967,-0.1232866 -0.00593,-0.1852248 0.00175,-0.029007 0.00882,-0.07881 0.012614,-0.1090353 0.00162,-0.012859 0.00312,-0.025728 0.00468,-0.038594 0.00505,-0.078527 0.00421,-0.1571471 0.00517,-0.2358014 0.00267,-0.188177 0.00503,-0.3764952 -0.0049,-0.5645319 -0.00316,-0.1059593 -0.00706,-0.2000703 -0.00538,-0.3066465 9.631e-4,-0.061263 0.00456,-0.1224569 0.00657,-0.1836947 0.00678,-0.2065861 0.010651,-0.4132363 0.011366,-0.6199381 2.091e-4,-0.085791 7.673e-4,-0.1715809 6.271e-4,-0.2573715 -2.106e-4,-0.1279181 -0.00321,-0.4901272 -0.00287,-0.6098247 3.255e-4,-0.1154168 0.0042,-0.2308238 0.00323,-0.3462371 -0.00197,-0.2359838 -0.017991,-0.4717307 -0.014697,-0.7078237 0.00214,-0.1277913 0.00331,-0.2556024 0.00641,-0.383374 0.00629,-0.2595543 0.011705,-0.4967917 0.041921,-0.7549035 0.027453,-0.2345063 0.076103,-0.46520923 0.1403305,-0.69214741 0,0 -0.85364138,0.43495201 -0.85364138,0.43495201 z" />
    <path
       style="fill:#000000;stroke-width:0.264583"
       id="path91"
       d="M 4.8542498,2.8089915 C 4.729345,2.8986398 4.594711,2.973429 4.4632586,3.0528193 4.6845958,2.9253463 4.9062388,2.7984021 5.1272704,2.6703999 5.1705562,2.6453324 5.040514,2.7202357 4.9965046,2.7440099 4.8065136,2.8466436 4.6102349,2.935818 4.4135685,3.0246574 4.3146506,3.0701496 4.214006,3.1120871 4.1168801,3.161412 3.8096081,3.3174593 3.519352,3.5049663 3.221116,3.6776578 c -0.016322,0.011118 -0.032586,0.02232 -0.048963,0.033353 -0.038445,0.025903 -0.093356,0.062414 -0.1314476,0.086277 -0.028574,0.017899 -0.1156499,0.069376 -0.086403,0.052598 0.82727,-0.4745567 0.8417623,-0.481529 0.53482,-0.3123782 -0.1430293,0.075884 -0.2895145,0.1448993 -0.4381497,0.2090084 -0.321641,0.1434726 -0.8741985,0.2220031 -0.941063,0.543225 0.00854,0.018389 0.015431,0.037639 0.025628,0.055164 0.0065,0.011163 0.015874,0.020384 0.024114,0.030329 0.022282,0.026892 0.046713,0.052655 0.074515,0.073946 0.013799,0.010568 0.028485,0.019921 0.042728,0.029881 0.071515,0.042017 0.1451088,0.080689 0.2157295,0.1242317 0.069732,0.042995 0.1362173,0.091297 0.2033042,0.1382284 0.018304,0.013655 0.036184,0.027894 0.05491,0.040964 0.019878,0.013875 0.04074,0.026294 0.06085,0.039832 0.012793,0.00861 0.106399,0.073756 0.1185796,0.082608 0.035548,0.025834 0.070174,0.052911 0.1053288,0.079276 0.095838,0.081934 0.2029476,0.1487316 0.3101541,0.2145025 0.127549,0.077211 0.2530965,0.1576676 0.3804356,0.2352344 0.05247,0.031576 0.1020927,0.067445 0.1511742,0.1039585 0.011814,0.00879 0.023114,0.018296 0.035335,0.026509 0.028624,0.01924 0.066887,0.039001 0.096469,0.05512 0.022746,0.011549 0.045666,0.022765 0.068241,0.034647 0.069851,0.036766 0.1373185,0.077215 0.2033788,0.1204026 0.2049005,0.1339564 -0.08927,-0.055344 0.1176272,0.077346 0.048888,0.030922 0.096191,0.064366 0.1408001,0.1012161 0.022291,0.018415 0.043025,0.038536 0.065023,0.057281 0.066059,0.034486 0.1270836,0.077412 0.1847101,0.1244441 0.023786,0.021746 0.050251,0.040595 0.074218,0.06204 0.2483569,0.2798204 0.063999,0.094728 0.8507134,-0.5301695 0.02045,-0.016245 -0.010229,-0.051288 -0.013136,-0.077243 -0.00773,-0.069044 -0.00809,-0.1462908 -0.00961,-0.2153401 -8.467e-4,-0.038643 -0.00159,-0.077289 -0.00238,-0.1159338 -0.00591,-0.176964 -0.0112,-0.3538898 -0.025291,-0.5304229 -0.00586,-0.047694 -0.0087,-0.095618 -0.010777,-0.1435892 -4.762e-4,-0.010755 1.22e-4,-0.021608 -0.00143,-0.03226 -0.024162,-0.1662118 0.00658,0.111829 -0.014338,-0.091071 -0.00366,-0.1092872 -0.00549,-0.2186535 -0.00652,-0.3279995 -2.074e-4,-0.073336 -0.00343,-0.1468315 -0.00878,-0.2199883 -0.00161,-0.022169 -0.00443,-0.044246 -0.00573,-0.066436 -0.0014,-0.023892 -0.00156,-0.047841 -0.00235,-0.071761 3.175e-4,-0.024252 0.00106,-0.048504 9.525e-4,-0.072759 -1.1e-4,-0.02639 -0.00172,-0.052764 -0.00159,-0.079153 6.086e-4,-0.1204486 0.010988,-0.240234 0.023508,-0.3599111 0.017296,-0.1320337 0.041105,-0.2631339 0.065189,-0.3940725 0.015444,-0.07525 0.01488,-0.1517359 0.012861,-0.2280769 0.00228,-0.073098 3.175e-4,-0.036603 0.00593,-0.1094844 0,0 -0.8397597,0.420414 -0.8397597,0.420414 v 0 c -0.00477,0.073566 -0.00177,0.036701 -0.00899,0.110595 -6.35e-4,0.00382 -0.01528,0.090001 -0.016436,0.098772 -0.00573,0.043422 -0.00537,0.087422 -0.00554,0.1311066 -0.00101,0.1242666 -0.013182,0.2480752 -0.018468,0.3721902 -0.00867,0.1227955 -0.019182,0.2454098 -0.028893,0.3681224 -0.00228,0.028811 -0.00582,0.057542 -0.00705,0.086418 -0.00103,0.024336 1.654e-4,0.048717 2.479e-4,0.073075 -0.00111,0.048997 -0.00332,0.097966 -0.00435,0.1469642 -7.143e-4,0.03375 2.593e-4,0.083378 -2.67e-5,0.1175205 -1.556e-4,0.018563 -0.00119,0.037119 -0.00108,0.055684 1.045e-4,0.016838 0.00116,0.033657 0.00172,0.050486 0.00399,0.1094573 0.00906,0.2188789 0.00954,0.3284305 -2.527e-4,0.019127 -2.035e-4,0.038259 -7.673e-4,0.057378 -5.292e-4,0.017952 -0.00358,0.035899 -0.00246,0.053825 6.614e-4,0.010583 0.00489,0.02064 0.00772,0.030862 0.011885,0.043064 0.025784,0.085637 0.033661,0.1297448 0.035591,0.1622507 0.067298,0.3262405 0.072121,0.4927758 3.175e-4,0.037864 0.00185,0.075738 9.26e-4,0.1135923 -0.0018,0.072669 -0.00775,0.1544357 -0.022273,0.2259642 -0.00629,0.030988 -0.05373,0.1051634 -0.025244,0.09144 0.8528571,-0.4108685 0.6731529,-0.7533349 0.8276757,-0.430581 -0.011573,-0.00214 -0.020132,-0.00892 -0.030985,-0.013441 -0.020754,-0.00864 -0.042443,-0.015224 -0.061505,-0.0277 -0.033604,-0.01774 -0.066622,-0.036377 -0.096936,-0.059498 -0.028081,-0.021418 -0.05323,-0.04654 -0.079213,-0.070355 -0.029723,-0.015557 -0.06059,-0.028237 -0.090727,-0.043017 C 5.2879215,5.4197485 5.2775805,5.4141848 5.2318677,5.3877691 5.2121853,5.3763946 5.1927554,5.3645916 5.1731992,5.3530012 5.0465665,5.2745552 4.9137353,5.2051312 4.7952893,5.114269 4.7877593,5.108529 4.7206883,5.057044 4.7102373,5.050492 4.6965373,5.041902 4.6816273,5.035411 4.6672673,5.027976 4.6100344,4.9983411 4.5517816,4.9704952 4.4970547,4.9362637 4.3713263,4.8584328 4.2441688,4.7827347 4.1212532,4.7004925 4.1021873,4.6875385 4.0302707,4.6388768 4.0105388,4.6246735 3.9464681,4.5785553 3.8878238,4.5248919 3.8185125,4.4861985 3.7811364,4.460981 3.7429734,4.4369352 3.7057677,4.4114669 3.6257992,4.3567265 3.5500821,4.2953265 3.4651834,4.2480814 3.3318297,4.166168 3.1910751,4.0908975 3.081206,3.9772433 3.058814,3.9531023 3.03466,3.9290953 3.015066,3.9024763 c -0.00399,-0.00542 -0.00845,-0.010755 -0.010811,-0.017058 -7.673e-4,-0.00204 6.879e-4,-0.00778 0.00212,-0.00615 0.00858,0.00992 0.014145,0.022082 0.021214,0.033125 0.2532803,0.211206 0.010176,0.00482 -0.8267899,0.4864968 -0.00567,0.00326 0.011067,-0.00697 0.016586,-0.010475 0.031853,-0.020249 0.064752,-0.038537 0.09798,-0.056464 C 2.483156,4.2478684 2.6512325,4.164368 2.8175449,4.0773503 2.8534324,4.0590676 2.8901902,4.0424004 2.9252075,4.0225016 3.318404,3.7990663 3.7105985,3.5749476 4.0968008,3.3399592 3.8452397,3.4850255 3.5939557,3.6305728 3.3421178,3.775158 3.3244408,3.785307 3.3767848,3.753703 3.3943008,3.743278 3.4153798,3.730731 3.4366118,3.718442 3.4578978,3.706249 3.5561012,3.6499998 3.6563574,3.5975895 3.7576571,3.5471306 3.9198675,3.466675 3.8794411,3.4854967 4.048849,3.40668 4.1440117,3.3624057 4.2400721,3.3200702 4.3350697,3.2754424 4.6785872,3.1140646 4.9270789,2.9448955 5.3047057,2.7277663 c 0.077329,-0.046985 0.1535036,-0.095902 0.2313175,-0.1420844 0.1121982,-0.066589 0.082936,-0.047642 0.1956782,-0.11039 0.014187,-0.0079 0.028141,-0.0162 0.042212,-0.0243 0,0 -0.9197129,0.358 -0.9197129,0.358 z" />
  </g>
</svg>
