<?xml version="1.0" encoding="UTF-8" standalone="no"?>
<!-- Created with Inkscape (http://www.inkscape.org/) -->

<svg
   width="32"
   height="32"
   viewBox="0 0 8.4666665 8.4666669"
   version="1.1"
   id="svg5"
   sodipodi:docname="touch_action.svg"
   inkscape:version="1.1 (c4e8f9e, 2021-05-24)"
   inkscape:export-filename="/home/rpolzer/src/aaaaxy/assets/sprites/touch_action.png"
   inkscape:export-xdpi="96"
   inkscape:export-ydpi="96"
   xmlns:inkscape="http://www.inkscape.org/namespaces/inkscape"
   xmlns:sodipodi="http://sodipodi.sourceforge.net/DTD/sodipodi-0.dtd"
   xmlns="http://www.w3.org/2000/svg"
   xmlns:svg="http://www.w3.org/2000/svg">
  <sodipodi:namedview
     id="namedview7"
     pagecolor="#ffffff"
     bordercolor="#666666"
     borderopacity="1.0"
     inkscape:pageshadow="2"
     inkscape:pageopacity="0.0"
     inkscape:pagecheckerboard="0"
     inkscape:document-units="mm"
     showgrid="false"
     units="px"
     width="32px"
     inkscape:zoom="34.99377"
     inkscape:cx="8.2443246"
     inkscape:cy="15.774236"
     inkscape:window-width="3840"
     inkscape:window-height="2160"
     inkscape:window-x="0"
     inkscape:window-y="0"
     inkscape:window-maximized="1"
     inkscape:current-layer="layer1"
     showguides="false" />
  <defs
     id="defs2" />
  <g
     inkscape:label="Layer 1"
     inkscape:groupmode="layer"
     id="layer1">
    <path
       style="fill:#000000;stroke-width:0.264583"
       id="path256"
       d="m 2.6702588,2.6484773 c 0.023855,0.046453 0.055071,0.1054444 0.071681,0.1510136 0.018214,0.049968 0.033926,0.1009729 0.04613,0.1527381 0.01357,0.05756 0.022421,0.1161711 0.031058,0.1746758 0.017518,0.1186844 0.023783,0.2147554 0.03373,0.3335549 0.010911,0.1295466 0.019402,0.2593655 0.022664,0.3893516 0.00228,0.090184 7.409e-4,0.1803979 -1.995e-4,0.2705854 -0.00622,0.075464 -0.00456,0.1512027 -0.00651,0.2267855 -0.00114,0.044455 -0.00614,0.1168389 -0.00658,0.1612376 -2.91e-4,0.029164 9.26e-4,0.058324 0.00138,0.087487 0.00645,0.1492321 0.00303,0.05783 0.00765,0.2198555 0.00135,0.047447 0.00422,0.094871 0.00416,0.1423374 -6.59e-5,0.053012 -0.00188,0.1060256 -0.00454,0.1589706 -0.00442,0.087862 -0.017727,0.2333461 -0.025313,0.3214026 -0.019114,0.2103334 -0.048493,0.4197588 -0.093656,0.626105 -0.00106,0.00488 -0.014626,0.065485 -0.014938,0.075394 -3.969e-4,0.012592 0.00257,0.025069 0.00357,0.037627 0.00116,0.014642 0.00214,0.029302 0.00293,0.04397 0.00266,0.049348 0.00206,0.049137 0.00243,0.099076 0,0 0.8413601,-0.4284054 0.8413601,-0.4284054 v 0 c 6.086e-4,-0.047273 -7.9e-6,-0.053672 0.00335,-0.1008509 0.00108,-0.015385 0.00238,-0.030766 0.00416,-0.04609 0.00151,-0.013142 0.00504,-0.026064 0.00568,-0.039276 3.175e-4,-0.00658 -0.00625,-0.060828 -0.00652,-0.063184 -0.020738,-0.1905188 -0.018074,-0.3827897 -0.01034,-0.5740149 0.00648,-0.1255861 0.00883,-0.192678 0.019981,-0.3189486 0.018891,-0.2139511 0.013004,-0.1152953 0.038766,-0.3228972 0.00981,-0.079068 0.015788,-0.1585783 0.025548,-0.237653 0.00235,-0.030258 0.00516,-0.060484 0.00704,-0.090775 7.673e-4,-0.012377 0.0065,-0.1492877 0.00721,-0.161776 0.00156,-0.027531 0.0046,-0.054976 0.00574,-0.082528 0.00265,-0.064013 2.91e-4,-0.08598 -0.00259,-0.1499489 -0.0021,-0.026859 -0.00325,-0.053803 -0.00624,-0.080573 C 3.6747069,3.5849533 3.6572338,3.4799203 3.651242,3.4444569 3.6304246,3.3212399 3.6069113,3.1985238 3.5832282,3.075831 3.5283364,2.7875055 3.4701961,2.4887717 3.5395553,2.197479 c 0,0 -0.869284,0.4509983 -0.869284,0.4509983 z" />
    <path
       style="fill:#000000;stroke-width:0.264583"
       id="path258"
       d="m 2.873476,2.6422616 c 0.030573,-0.011381 0.060536,-0.024558 0.091718,-0.034144 0.072186,-0.022191 0.1446143,-0.043966 0.2181616,-0.061116 0.2345137,-0.054682 0.4741662,-0.083612 0.7146536,-0.091977 0.062006,-0.00216 0.1240843,-6.297e-4 0.1861265,-9.446e-4 0.1754555,0.00447 0.3497048,0.031896 0.514827,0.092384 0.072423,0.02653 0.093732,0.039663 0.1607558,0.073606 0.053165,0.035864 0.1233882,0.079123 0.1488059,0.1422408 0.013528,0.033592 0.00899,0.048225 0.00771,0.084125 -0.00384,0.015893 -0.00622,0.032217 -0.011525,0.047683 -0.017518,0.051013 -0.049233,0.097648 -0.086046,0.1366266 -0.024334,0.025765 -0.06801,0.0619 -0.094161,0.084335 C 4.5791175,3.239776 4.4148398,3.338859 4.2495446,3.4343818 5.791252,2.5401817 5.0941618,2.953432 4.872029,3.0706967 c -0.084836,0.044785 -0.045732,0.022434 -0.1300472,0.066157 -0.1734929,0.08997 0.006,-4.762e-4 -0.1641396,0.084491 -0.090554,0.045882 -0.1858174,0.080856 -0.2798815,0.1185355 -0.1128086,0.034871 -0.226907,0.065669 -0.3410715,0.0958 -0.2809967,0.1628444 -0.5823799,0.2947302 -0.8429905,0.488533 -0.029732,0.022111 0.033612,0.068383 0.061874,0.092343 0.020704,0.017552 0.1545381,0.034641 0.1687176,0.037437 0.1302785,0.025691 0.1359927,0.031256 0.2716538,0.07182 0.054003,0.020508 0.1086943,0.039285 0.1620089,0.06152 0.055169,0.023008 0.109274,0.048523 0.1632794,0.074144 0.056277,0.0267 0.112563,0.053486 0.1675249,0.082798 0.08727,0.046543 0.2068256,0.1193654 0.2894277,0.1757251 0.040154,0.027397 0.07855,0.057287 0.1178248,0.085931 0.1126122,0.087925 0.218518,0.18523 0.3089944,0.296111 0.026429,0.032389 0.059105,0.079123 0.083601,0.1133486 0.050369,0.079577 0.087898,0.1673889 0.094774,0.2623799 0.00566,0.078208 -0.00235,0.1002866 -0.014354,0.1780339 -0.029002,0.1104333 -0.078159,0.2161267 -0.1540158,0.3025346 -0.044172,0.050316 -0.061618,0.058895 -0.1147567,0.098235 -0.3250359,0.1602576 0.05102,-0.023127 0.6337726,-0.3773662 0.023352,-0.014195 -0.050407,0.021198 -0.076101,0.030509 -0.072419,0.026244 -0.1474031,0.04386 -0.2221632,0.061763 -0.1365896,0.029367 -0.2762166,0.037294 -0.4150011,0.049376 -0.078161,0.0068 -0.1069957,0.00992 -0.1835325,0.017581 -0.1475793,0.01592 -0.2950519,0.03289 -0.4432376,0.042069 -0.018994,3.44e-4 -0.037985,0.00101 -0.056982,0.00101 -0.021093,-5.2e-6 -0.05941,-0.00188 -0.081613,-0.00153 -0.037464,5.82e-4 -0.074961,0.00354 -0.1124265,0.00461 -0.041821,0.00241 -0.083724,-7.938e-4 -0.1255321,0.0019 -0.039783,0.01465 -0.080569,0.00995 -0.1215641,0.00486 0,0 -0.798014,0.5640882 -0.798014,0.5640882 v 0 c 0.023516,0.0032 0.047464,0.00426 0.070813,0.00855 0.082807,0.015211 -0.029303,-0.00357 0.042853,0.010425 0.00487,9.525e-4 0.00985,0.00111 0.01478,0.00164 0.048018,-0.00801 0.095058,-0.022778 0.1440611,-0.023929 0.012449,-9.525e-4 0.024879,-0.0022 0.037349,-0.00284 0.038405,-0.00198 0.040008,2.114e-4 0.078678,-0.00336 0.00879,-8.202e-4 0.095682,-0.012097 0.099098,-0.012449 0.021564,-0.00222 0.043208,-0.00353 0.064812,-0.0053 0.043852,-0.00293 0.1000062,-0.00639 0.143633,-0.010509 0.1080127,-0.010189 0.2154309,-0.026684 0.3228671,-0.041453 0.099184,-0.015663 0.1982071,-0.030853 0.2982526,-0.040094 0.1174094,-0.010845 0.090976,-0.00659 0.2057191,-0.011417 0.029408,-0.00124 0.058791,-0.00303 0.088186,-0.00454 0.026339,-0.00345 0.05291,-0.00544 0.079017,-0.010343 0.04204,-0.0079 0.1144641,-0.029728 0.1547194,-0.042032 0.027309,-0.00835 0.056558,-0.012242 0.081692,-0.025797 C 5.4336809,5.6163815 5.2468372,5.750563 5.5694225,5.5112837 5.6171872,5.4617195 5.6318898,5.4511431 5.6699141,5.392332 5.7347318,5.2920804 5.7706458,5.1770655 5.7904922,5.0602133 5.7978582,4.9880511 5.8063142,4.9298102 5.8034647,4.8568408 5.8012422,4.7997127 5.7904525,4.733822 5.7714189,4.6794633 5.7519244,4.6237923 5.7303902,4.5953965 5.699517,4.5460263 5.6836315,4.525783 5.6693093,4.5042102 5.6518611,4.485298 5.6255694,4.4567998 5.5490186,4.392537 5.5213778,4.3702742 5.4247626,4.2924565 5.3226811,4.2218003 5.2173052,4.1563826 5.1725276,4.1297885 5.1282094,4.1024052 5.0829725,4.0766001 4.9672501,4.0105874 4.8912335,3.9731113 4.7733746,3.9089242 4.7193737,3.8795144 4.6661474,3.8486934 4.6120666,3.8194307 4.5125563,3.7655864 4.4111587,3.7152746 4.3122201,3.6603521 4.158366,3.5766541 4.2299665,3.6143911 4.0927438,3.5437767 c -0.022188,-0.011417 -0.044047,-0.0235 -0.06657,-0.034242 -0.00958,-0.00457 -0.027582,-0.022042 -0.029622,-0.011634 -0.0041,0.020899 0.037796,0.048958 0.020013,0.060675 -0.2583222,0.17019 -0.5381239,0.3052918 -0.8071861,0.4579379 0.1077934,-0.042327 0.2183662,-0.077936 0.3330922,-0.09594 0.013584,-0.00206 0.027417,-0.00287 0.040754,-0.00617 0.023924,-0.00593 0.063915,-0.024299 0.084886,-0.033771 0.069077,-0.031198 0.1370325,-0.064805 0.2055574,-0.097176 0.050641,-0.024069 0.101767,-0.047142 0.1519389,-0.072176 0.022487,-0.011218 0.044386,-0.02358 0.066745,-0.03505 0.023715,-0.012166 0.04778,-0.02364 0.071473,-0.035848 C 4.4519913,3.4919123 5.0727178,3.1193258 5.0848844,3.1123008 5.2552687,3.0069559 5.4232603,2.8961711 5.5761969,2.7663322 c 0.042665,-0.04189 0.06567,-0.060252 0.099319,-0.1092256 0.049095,-0.071455 0.072387,-0.1556253 0.075541,-0.2415121 -0.00568,-0.049931 -0.00531,-0.081634 -0.027094,-0.1284949 C 5.6836913,2.2004825 5.5920848,2.1597075 5.5103394,2.1232542 5.4807992,2.1104744 5.4519173,2.0960495 5.4217186,2.0849146 5.3880506,2.0725004 5.3536037,2.0621994 5.3189994,2.0527029 5.121036,1.9983757 4.9184409,1.9829912 4.7136711,1.9929577 c -0.3114204,0.021383 -0.1136436,0.00544 -0.4410453,0.038116 -0.1483085,0.014804 -0.2938651,0.032514 -0.4431351,0.031848 -0.042092,-1.879e-4 -0.084108,-0.00493 -0.1258572,-0.010292 -0.014875,-0.00191 -0.029003,-0.00764 -0.043504,-0.011463 0,0 -0.7866536,0.6010943 -0.7866535,0.6010949 z" />
    <circle
       id="path322"
       style="fill:#000000;stroke:#000000;stroke-width:0.264583"
       cx="5.8107944"
       cy="0.8915329"
       r="0.00025177712" />
    <circle
       id="path359"
       style="fill:#000000;stroke:#000000;stroke-width:0.264583"
       cx="2.9125004"
       cy="1.1025285"
       r="0.00025177712" />
    <path
       style="fill:#000000;stroke-width:0.264583"
       id="path644"
       d="m 0.75158951,1.3598726 c 0.0518899,-0.00697 0.10367454,-0.014779 0.15566961,-0.020918 0.0915973,-0.010816 0.18312198,-0.022766 0.27507598,-0.029943 0.227494,-0.017756 0.4449608,-0.023263 0.6730949,-0.018787 0.2158128,0.00423 0.317179,0.015598 0.5241326,0.032862 0.059063,0.00671 0.1182099,0.01272 0.1771893,0.02013 0.2011208,0.025267 0.057608,0.01182 0.2396661,0.031835 0.035115,0.00386 0.070333,0.00672 0.1054806,0.010283 0.1056955,0.010701 0.087298,0.00897 0.1880455,0.021375 0.026421,0.00324 0.052815,0.00673 0.079266,0.00972 0.05199,0.00587 0.098417,0.010639 0.1508252,0.01205 0.08069,0.00217 0.117565,-0.00161 0.2009386,-0.00279 0.03649,-5.186e-4 0.072988,-1.606e-4 0.1094817,-2.409e-4 0.037524,-3.889e-4 0.075053,-4.947e-4 0.1125731,-0.00117 0.1103778,-0.00198 0.149824,-0.00347 0.2650133,-0.011324 0.1753084,-0.011951 0.2509348,-0.021876 0.4329644,-0.029681 0.079693,-0.00342 0.1594869,-0.00382 0.2392304,-0.00572 0.2451489,-0.00293 0.4910386,-0.00291 0.7356163,0.016697 0.05424,0.00435 0.1123976,0.011559 0.166805,0.017931 0.025704,8.757e-4 0.051404,0.00344 0.077109,0.00263 0.2538569,-0.008 0.016867,-0.013519 0.2847377,-0.012541 0.1109049,4.048e-4 0.2202892,0.010085 0.330264,0.022915 0.048856,0.00484 0.096698,0.016138 0.1450409,0.024052 0.023109,0.00378 0.046563,0.00591 0.069772,0.00906 -0.00913,-0.00509 0.017296,0.00511 0.01579,6.65e-5 -0.00212,-0.00714 -0.00724,-0.013029 -0.011036,-0.019437 -8.466e-4,-0.00141 -0.00306,-0.00561 -0.00286,-0.00399 0.00108,0.00875 0.00373,0.01724 0.00559,0.025859 0.00138,0.012716 0.00276,0.025432 0.00414,0.038148 0.00466,0.076664 -0.00358,0.1531507 -0.00847,0.229545 -4.498e-4,0.043121 -0.00652,0.085882 -0.010393,0.1287378 -0.011009,0.1219174 0.00791,-0.060976 -0.00666,0.07591 -0.012835,0.092523 -0.028653,0.1847133 -0.036284,0.2778527 -0.012909,0.1063285 -0.014758,0.2135569 -0.023461,0.3202074 -0.00204,0.024921 -0.00489,0.049768 -0.00734,0.074653 -0.014213,0.1265652 -0.025395,0.253447 -0.032381,0.3806179 9.525e-4,0.055206 0.00132,0.1109017 0.00778,0.1658321 0.00262,0.022341 0.00684,0.044469 0.010308,0.066697 0.014176,0.090961 0.0093,0.060153 0.025141,0.1545606 0.016267,0.1027184 0.020852,0.2066986 0.031618,0.3100023 0.00748,0.07175 0.009,0.074699 0.020622,0.1474978 0.00411,0.02635 0.00877,0.052619 0.012343,0.079047 0.00751,0.05554 0.010316,0.088391 0.012602,0.1434494 0.00367,0.033275 -4.762e-4,0.066651 7.409e-4,0.099944 5.027e-4,0.013568 0.00233,0.027055 0.00349,0.040583 0.00103,0.014343 0.0019,0.028701 0.00313,0.043032 0.00469,0.055213 0.00524,0.04104 0.00726,0.097073 0.00185,0.050941 -9.85e-5,0.1018434 -0.0013,0.1527722 -1.749e-4,0.093674 -0.00988,0.1869361 -0.011838,0.2805388 -0.00403,0.1928535 0.00465,-0.00246 -0.00624,0.2031944 -0.013213,0.1632207 -0.039528,0.32492 -0.058077,0.4875642 -0.00677,0.087568 -0.011914,0.1759825 -0.00481,0.2637313 0.0019,0.023386 0.00497,0.046663 0.00745,0.069994 0.00811,0.1177375 0.018452,0.2353477 0.02122,0.3533939 0.00143,0.061208 8.996e-4,0.1224473 0.00159,0.1836684 6.085e-4,0.030429 0.00159,0.060852 0.00185,0.091286 1.032e-4,0.011716 -5.557e-4,0.1649183 -6.086e-4,0.1777072 -3.704e-4,0.071353 2.434e-4,0.097119 -0.00374,0.1676283 -0.00143,0.025162 -0.00379,0.050263 -0.00569,0.075395 -0.00206,0.044949 -0.00835,0.089614 -0.010732,0.1345398 -0.00114,0.021362 -6.086e-4,0.042789 -0.00159,0.064161 -0.00274,0.060281 -0.00773,0.1203405 -0.00993,0.1806726 -0.00159,0.08209 -3.44e-4,0.037522 -0.00344,0.1185548 -0.00124,0.032155 -8.202e-4,0.072223 -0.00881,0.1041474 -0.00296,0.011824 -0.00238,0.029623 -0.013809,0.033859 -0.01415,0.00524 -0.028981,-0.00842 -0.043471,-0.012631 C 7.8139843,6.6104687 7.3686339,7.0031355 7.0565886,7.0230692 7.0305036,7.0247392 7.0042916,7.0236513 6.9781776,7.02254 6.9025536,7.01934 6.8275546,7.007848 6.7526984,6.997431 6.6548054,6.98585 6.5578513,6.967864 6.4600441,6.955722 6.3758911,6.945181 6.2913812,6.946292 6.2068355,6.948752 6.0623272,6.959063 5.9175044,6.950052 5.7729559,6.945762 5.6856089,6.9450212 5.5984867,6.937942 5.5112044,6.935711 5.4112844,6.936721 5.3118488,6.947575 5.2125919,6.958095 5.051648,6.973007 4.8920757,6.99931 4.7329158,7.026946 4.6809768,7.035966 4.629223,7.046044 4.5772406,7.054811 4.5232316,7.063921 4.4690506,7.071982 4.4149557,7.080568 4.2356489,7.106987 4.0547803,7.122564 3.8736129,7.127465 3.7980979,7.129505 3.7654986,7.128575 3.691178,7.1278883 3.663741,7.1269623 3.636285,7.1264583 3.608867,7.1250983 3.557964,7.1225583 3.5071707,7.1181483 3.4563088,7.1148823 3.3821508,7.1101223 3.3079752,7.1057723 3.2338339,7.1007403 3.1581259,7.0973903 3.0825896,7.0894453 3.0068277,7.0871413 c -0.049743,-0.00151 -0.062874,-9.16e-5 -0.1151286,0.00177 -0.1370352,0.007 -0.2742252,0.00368 -0.4112966,2.063e-4 -0.11501,-0.00254 -0.2300433,2.911e-4 -0.3449382,0.00541 -0.126468,0.00779 -0.2532912,0.00401 -0.3790673,-0.010724 -0.036624,-0.00688 -0.074089,-0.010525 -0.1104046,-0.019066 -0.00594,-0.0014 -0.011765,-0.00325 -0.017648,-0.00487 -0.00613,-0.0014 -0.012261,-0.00282 -0.018391,-0.00423 -0.010291,0.00116 -0.046319,-0.017087 -0.054272,-0.014555 -0.00319,0.00101 0.00153,0.00672 0.00352,0.00941 0.0016,-3.44e-4 0.00408,4.762e-4 0.0048,-0.00101 0.0033,-0.00675 0.00591,-0.042556 0.00604,-0.043597 0.0048,-0.037016 0.013078,-0.07336 0.020731,-0.1098542 0.01931,-0.086087 0.012414,-0.1739757 0.00638,-0.2610533 -0.010523,-0.086325 -0.010859,-0.1732928 -0.015375,-0.2599917 -0.00239,-0.045887 -0.00567,-0.082002 -0.00941,-0.1280536 -0.010542,-0.1410946 -0.00458,-0.2824218 -0.00328,-0.4236799 -0.00129,-0.1519328 2.78e-5,-0.3038642 0.00744,-0.4556326 0.00686,-0.1173398 0.024674,-0.2334199 0.040242,-0.349767 0.0103,-0.076983 0.011043,-0.090995 0.018922,-0.169368 0.018065,-0.1639935 0.048277,-0.3264654 0.062224,-0.4909542 0.00315,-0.03711 0.00467,-0.07434 0.007,-0.1115105 0.00668,-0.079514 0.010155,-0.1592421 0.015779,-0.2388259 0.00766,-0.1084337 0.012652,-0.1320993 0.0148,-0.2409634 8.229e-4,-0.041709 -6.694e-4,-0.083433 -4.895e-4,-0.1251501 1.746e-4,-0.040822 0.00103,-0.081639 0.00155,-0.1224589 -4.657e-4,-0.1509292 -0.00169,-0.3019388 0.00142,-0.4528524 0.00129,-0.062777 0.004,-0.1255186 0.00556,-0.1882902 -4.816e-4,-0.1120944 0.00453,-0.2243254 0.00154,-0.3364139 -0.00904,-0.3385617 -2.6e-6,0.1655428 -0.00552,-0.1759621 C 1.7400333,2.2058046 1.7391311,2.0464087 1.732617,1.8872051 1.7267113,1.7649659 1.7147743,1.6431185 1.7016541,1.5214638 1.6914936,1.4568104 1.6922721,1.3904062 1.677516,1.3265314 1.6272416,1.2412266 1.6110172,1.1435152 1.5984573,1.0468486 1.5868854,0.98585315 1.5843414,0.92374245 1.5821633,0.86185869 c 0,0 -0.85472514,0.44313931 -0.85472514,0.44313931 v 0 c 0.003776,0.036154 0.008229,0.072777 0.0153223,0.1084573 0.002529,0.012721 0.00642,0.025137 0.00922,0.037801 0.00324,0.01465 0.00593,0.029416 0.008896,0.044124 0.008769,0.030608 0.0186804,0.060895 0.026804,0.091681 0.0174543,0.066146 0.0288651,0.133781 0.0309605,0.202236 0.00529,0.022349 0.0129357,0.043032 0.0199483,0.064875 0.008901,0.027727 0.0110837,0.037176 0.0182605,0.066861 0.003357,0.013884 0.006516,0.027815 0.009774,0.041722 0.0225295,0.1148077 0.0382438,0.2307838 0.047649,0.3474228 0.003423,0.044923 0.007625,0.097382 0.0101939,0.1422595 0.006169,0.1077736 0.006967,0.2157839 0.0118499,0.3236162 0.002662,0.157666 0.001405,0.018275 -3.466e-4,0.1775187 -0.001225,0.1113367 0.002196,0.2226853 0.004894,0.3339724 0.0056,0.1186646 0.00232,0.058407 0.009925,0.1807684 0.007288,0.1477841 0.011797,0.2957647 0.0139057,0.4437076 6.0325e-4,0.039641 0.002315,0.079282 0.001807,0.1189244 -9.9218e-4,0.077272 -0.007724,0.1675929 -0.0123656,0.244825 -0.00236,0.039251 -0.003809,0.078563 -0.006877,0.1177647 -0.005231,0.066838 -0.017589,0.1735968 -0.0250203,0.2406708 -0.0312596,0.2040274 -0.0571695,0.4089046 -0.0939097,0.6120646 -0.005163,0.030639 -0.0110797,0.061159 -0.015489,0.091915 -0.007046,0.049152 -0.0124931,0.1148927 -0.0170241,0.1643158 -0.0167389,0.1825829 0.001394,-0.010787 -0.0173537,0.1779175 -0.003008,0.030278 -0.005771,0.06058 -0.008657,0.09087 -0.006984,0.072659 -0.0105987,0.1033409 -0.014981,0.1752478 -0.006046,0.099206 -0.007597,0.1987002 -0.0118343,0.2979825 7.1967e-4,0.045748 0.00114,0.086291 0.002753,0.1320562 8.0698e-4,0.022926 0.002331,0.045826 0.00305,0.068756 0.002275,0.072678 0.001093,0.077783 0.001389,0.1510246 9.869e-5,0.024379 4.3392e-4,0.048755 6.5088e-4,0.073132 -1.2777e-4,0.057682 -0.001183,0.078059 0.00241,0.1343059 0.005402,0.084591 0.020025,0.1690442 0.0100185,0.2540447 -0.00885,0.085736 -0.0185656,0.171481 -0.0345941,0.2562254 -0.007327,0.038486 -0.0156726,0.076616 -0.0242234,0.1148451 -0.005204,0.023267 -0.0122791,0.047725 -0.0105423,0.072024 8.4138e-4,0.011784 0.004951,0.023106 0.007427,0.034657 0.0114051,0.022064 0.01416,0.033119 0.0324673,0.049221 0.0197533,0.017375 0.0481552,0.01656 0.0712804,0.026329 0.0596057,0.015653 0.12073961,0.023111 0.18235874,0.024273 0.13160442,0.00185 0.26339202,-0.00135 0.39479012,0.00821 0.1146832,0.00167 0.2291201,-0.00424 0.343756,-0.00634 0.1365723,-0.00337 0.2733308,-0.00752 0.4098395,3.175e-4 0.018592,9.261e-4 0.037169,0.0022 0.055776,0.00274 0.098332,0.00288 0.1967737,-0.00566 0.2951277,-0.00167 0.074342,0.0014 0.074324,8.732e-4 0.1496097,0.00448 0.109789,0.00528 0.2194736,0.014507 0.329499,0.013052 0.099536,-0.00309 0.1047999,-0.00169 0.207645,-0.01165 0.1946831,-0.018833 0.3875535,-0.053281 0.5823855,-0.070995 0.098273,-0.011859 0.1966396,-0.022945 0.2948601,-0.03523 0.1380948,-0.017272 0.2765317,-0.040156 0.4162272,-0.035803 0.056733,0.00444 0.057648,0.00577 0.1102539,0.00567 0.04034,-7.83e-5 0.08023,-0.00414 0.1204659,-0.00605 0.011705,-5.556e-4 0.023426,-6.085e-4 0.035139,-9.26e-4 0.095767,-0.0023 0.191412,-0.00896 0.2872486,-0.00912 0.1411335,-0.00243 0.2832089,-0.00987 0.4236675,0.00756 0.012229,0.00124 0.07374,0.00764 0.088805,0.00845 0.049525,0.00266 0.099332,-6.35e-4 0.1488329,0.00329 0.1071784,0.00509 0.2142984,0.011472 0.3213764,0.018325 0.077546,0.00652 0.1544389,0.014751 0.2315593,0.025223 0.02504,0.0034 0.050102,0.00664 0.075095,0.010372 0.022349,0.00333 0.046579,0.020651 0.066924,0.010816 0.298245,-0.1441894 0.5847554,-0.3114865 0.8771329,-0.4672298 0.0037,-0.017804 0.00927,-0.035319 0.011089,-0.053411 0.0013,-0.012779 -0.00124,-0.025659 -0.00185,-0.038491 -7.408e-4,-0.015579 -0.00185,-0.031146 -0.00222,-0.046738 -0.00135,-0.056987 -3.46e-5,-0.1141143 0.00257,-0.1710383 0.00225,-0.059498 0.00295,-0.118971 0.0047,-0.1784747 6.35e-4,-0.021373 0.00225,-0.042715 0.00262,-0.064094 C 7.2704349,6.5525176 7.26954,6.4273144 7.26954,6.4268456 7.26601,6.2575705 7.26215,6.0882938 7.25987,5.9190012 7.25628,5.7980625 7.25855,5.8586722 7.25306,5.7371732 7.24933,5.6160731 7.24995,5.4947902 7.25557,5.3737643 7.26506,5.2614275 7.272334,5.1489684 7.273136,5.0361784 7.271526,4.8835821 7.26156,4.7305871 7.278806,4.5784022 7.283326,4.5415932 7.287086,4.5046842 7.292371,4.4679765 7.297391,4.4330435 7.304216,4.3983905 7.309714,4.3635293 7.325351,4.2644163 7.336521,4.1646539 7.347701,4.0649631 c 0.00132,-0.019407 0.00316,-0.038786 0.00393,-0.058222 0.00206,-0.052041 -0.00132,-0.1038609 -0.00289,-0.155834 -5.028e-4,-0.016687 -3.44e-4,-0.033391 -8.467e-4,-0.050077 -4.763e-4,-0.015671 -0.00143,-0.031326 -0.00217,-0.046989 -0.00143,-0.014801 -0.00153,-0.029785 -0.00425,-0.044402 -0.00246,-0.013152 -0.00764,-0.025649 -0.011205,-0.038543 -0.00458,-0.016539 -0.00918,-0.033076 -0.013234,-0.04975 -0.012547,-0.051588 -0.018661,-0.082508 -0.026432,-0.1362321 -0.00378,-0.026128 -0.00643,-0.052407 -0.00965,-0.078611 -0.0043,-0.051281 -0.0078,-0.099378 -0.014084,-0.1503942 -0.012512,-0.101542 -0.034391,-0.2017908 -0.042891,-0.3038591 -0.00177,-0.028496 -0.00822,-0.1273731 -0.00886,-0.1586071 -4.763e-4,-0.023019 6.35e-4,-0.046043 7.408e-4,-0.069066 2.646e-4,-0.054529 3.704e-4,-0.1090462 0.00122,-0.1635734 -3.704e-4,-0.1211909 0.00111,-0.2424597 0.01234,-0.363241 0.013023,-0.1352082 0.032111,-0.2696771 0.055508,-0.4034771 0.016981,-0.093429 0.027999,-0.1878604 0.045471,-0.2812366 0.00507,-0.0285 0.01148,-0.056794 0.0152,-0.085501 0.00568,-0.043777 0.00368,-0.08845 0.00743,-0.1323753 0.00204,-0.077206 -0.00569,-0.1541947 -0.00347,-0.231429 0.00225,-0.059645 0.013854,-0.12274313 -0.032962,-0.17002915 -0.00623,-0.006294 -0.026891,-0.00612 -0.033755,-0.006596 -0.0947,0.002582 -0.1890329,0.0119465 -0.2837008,0.0154458 -0.1228823,0.004533 -0.2462917,0.009608 -0.3692533,0.004359 -0.2646953,-0.011299 -0.00781,-0.003865 -0.2311408,-0.025572 -0.027367,-0.00266 -0.054975,-0.001363 -0.082463,-0.002045 -0.1290815,0.0111678 -0.2577811,0.0263356 -0.3869587,0.0364387 -0.215887,0.0168849 -0.432463,0.0276091 -0.6490673,0.0256053 -0.075513,-0.001217 -0.1510676,-8.6783e-4 -0.2265392,-0.003647 -0.1839841,-0.006777 -0.1892032,-0.0138708 -0.3599786,-0.024017 -0.1077211,-0.0064 -0.1363548,-0.005256 -0.2411621,-0.005357 -0.036208,-3.471e-5 -0.072416,1.215e-5 -0.1086236,1.821e-5 -0.034905,-8.255e-4 -0.069835,-9.2605e-4 -0.1047166,-0.002474 -0.058829,-0.002611 -0.117475,-0.008509 -0.1762844,-0.01153 -0.081128,-0.004168 -0.1623989,-0.004669 -0.2435447,-0.008398 -0.3060298,-0.0137179 0.1239398,0.00597 -0.2051344,-0.010559 -0.039117,-0.001966 -0.078222,-0.004964 -0.117388,-0.005112 -0.1791639,-6.7733e-4 -0.3568917,0.026394 -0.5357894,0.0318213 -0.091914,0.003872 -0.183773,0.00937 -0.2757405,0.0116163 -0.2995703,0.007316 -0.6003411,0.003036 -0.8972224,-0.0428885 -0.119767,-0.0185266 -0.1662806,-0.0345476 -0.2683339,-0.0644983 0,0 -0.76821358,0.55374004 -0.76821358,0.55374004 z" />
  </g>
</svg>
