<?xml version="1.0" encoding="UTF-8" standalone="no"?>
<!-- Created with Inkscape (http://www.inkscape.org/) -->

<svg
   width="32"
   height="32"
   viewBox="0 0 8.4666665 8.4666669"
   version="1.1"
   id="svg5"
   sodipodi:docname="touch_right.svg"
   inkscape:version="1.1 (c4e8f9e, 2021-05-24)"
   inkscape:export-filename="/home/rpolzer/src/aaaaxy/assets/sprites/touch_right.png"
   inkscape:export-xdpi="96"
   inkscape:export-ydpi="96"
   xmlns:inkscape="http://www.inkscape.org/namespaces/inkscape"
   xmlns:sodipodi="http://sodipodi.sourceforge.net/DTD/sodipodi-0.dtd"
   xmlns="http://www.w3.org/2000/svg"
   xmlns:svg="http://www.w3.org/2000/svg">
  <sodipodi:namedview
     id="namedview7"
     pagecolor="#ffffff"
     bordercolor="#666666"
     borderopacity="1.0"
     inkscape:pageshadow="2"
     inkscape:pageopacity="0.0"
     inkscape:pagecheckerboard="0"
     inkscape:document-units="mm"
     showgrid="false"
     units="px"
     width="32px"
     inkscape:zoom="34.99377"
     inkscape:cx="-2.0432208"
     inkscape:cy="15.774236"
     inkscape:window-width="3840"
     inkscape:window-height="2160"
     inkscape:window-x="0"
     inkscape:window-y="0"
     inkscape:window-maximized="1"
     inkscape:current-layer="layer1" />
  <defs
     id="defs2" />
  <g
     inkscape:label="Layer 1"
     inkscape:groupmode="layer"
     id="layer1">
    <path
       style="fill:#000000;stroke-width:0.264583"
       id="path119"
       d="m 2.5244986,2.9024209 c 0.022441,0.057921 0.084559,0.2168176 0.091379,0.2456913 0.037181,0.157403 0.044202,0.3529711 0.047785,0.5125839 0.00355,0.1579658 -0.00201,0.3420219 -0.00542,0.500652 C 2.6503126,4.4661616 2.6257886,4.77022 2.5855676,5.0724053 2.5584166,5.2664201 2.5172856,5.4579705 2.482409,5.6506408 2.460381,5.7524366 2.455398,5.8572526 2.430667,5.9584296 c 0,0 0.8652515,-0.4295347 0.8652515,-0.4295347 v 0 c -0.00478,-0.093898 0.00262,-0.1880944 0.00564,-0.2819328 0.00991,-0.1174885 0.025093,-0.2341004 0.041479,-0.3508537 0.00498,-0.035468 0.010864,-0.070812 0.015306,-0.1063519 0.00446,-0.035716 0.0076,-0.071585 0.011409,-0.1073777 0.00646,-0.1047969 0.0097,-0.1217004 0.00715,-0.2279835 C 3.371819,4.2426768 3.3378518,4.0332458 3.3179803,3.8227463 3.2971046,3.5715432 3.2758096,3.3197636 3.2854992,3.0673278 c 0.00352,-0.091645 0.00884,-0.1834682 0.021601,-0.2742888 0.01094,-0.077872 0.03315,-0.1537412 0.049355,-0.2306904 0.00696,-0.033055 0.013428,-0.066212 0.02014,-0.099319 0,0 -0.8520984,0.4393909 -0.8520984,0.4393909 z" />
    <circle
       id="path125"
       style="fill:#000000;stroke:#000000;stroke-width:0.264583"
       cx="5.8462353"
       cy="4.0689588"
       r="0.00025177712" />
    <circle
       id="path127"
       style="fill:#000000;stroke:#000000;stroke-width:0.264583"
       cx="5.8462353"
       cy="4.0689588"
       r="0.00025177712" />
    <path
       style="fill:#000000;stroke-width:0.264583"
       id="path131"
       d="m 2.6714386,3.0488964 c 0.053257,0.017677 0.106026,0.036897 0.1597697,0.053034 0.3471447,0.1042281 0.3494924,0.08331 0.7015168,0.2347899 0.2402345,0.1033756 0.38813,0.1925254 0.6104239,0.3200948 0.091176,0.052324 0.1819259,0.105387 0.2728889,0.1580803 0.2052034,0.1463979 0.2154552,0.1446903 0.3915036,0.3011403 0.073834,0.065615 0.1471531,0.141006 0.2165806,0.2118669 0.085516,0.087282 0.054642,0.054127 0.1254156,0.1348799 0.0254,0.031541 0.038422,0.045646 0.059076,0.077558 0.00446,0.00689 0.019024,0.02586 0.012131,0.02141 C 5.2021499,4.5497464 5.1541335,4.5297857 5.171976,4.5166888 5.3908869,4.356001 5.6431894,4.2451318 5.865174,4.0887181 5.9229402,4.0480154 5.7338457,4.1409429 5.6681816,4.1670552 5.3482372,4.2904309 5.0224972,4.398315 4.7040122,4.5255439 c -0.040361,0.016124 -0.080337,0.033195 -0.1205053,0.049793 -0.033676,0.01533 -0.067752,0.029812 -0.1010293,0.045989 -0.031143,0.01514 -0.062156,0.030651 -0.092165,0.047927 -0.2818519,0.1622656 -0.5636964,0.3245829 -0.8433271,0.4906465 -0.029799,0.017695 -0.056666,0.039926 -0.084611,0.060425 -0.053991,0.039606 -0.097403,0.073932 -0.1500053,0.1148445 -0.1194691,0.094316 -0.00837,0.00715 -0.1180279,0.09177 -0.01579,0.012184 -0.03112,0.024974 -0.047165,0.036823 -0.035759,0.026408 -0.073588,0.050104 -0.1114526,0.073323 -0.031659,0.016994 -0.058286,0.041252 -0.086028,0.063676 -0.00734,0.00593 -0.014907,0.011578 -0.022363,0.017367 -0.00946,0.00776 -0.018928,0.015518 -0.028391,0.023278 -0.046343,0.038294 -0.091859,0.07724 -0.1396452,0.1137787 0,0 0.8885515,-0.3575695 0.8885515,-0.3575695 v 0 c 0.044125,-0.038894 0.089582,-0.076022 0.1380937,-0.1094076 0.048167,-0.034115 0.096048,-0.06865 0.1443165,-0.1025782 0.076507,-0.059823 0.1481505,-0.1254244 0.2231453,-0.1871032 0.057779,-0.045901 0.073425,-0.059675 0.136166,-0.103491 0.026421,-0.018452 0.1085209,-0.069439 0.080395,-0.053704 C 4.1478232,4.9656086 3.928562,5.0949689 3.707292,5.2207912 3.6735,5.2400082 3.773648,5.1802452 3.8075143,5.1611612 c 0.038946,-0.021945 0.078774,-0.042286 0.1181613,-0.063429 0.047401,-0.023378 0.094357,-0.047682 0.1422038,-0.070135 0.1048562,-0.049206 0.2530268,-0.1128496 0.3587345,-0.15566 0.1983398,-0.080325 0.3993875,-0.154858 0.6058537,-0.211755 0.4418476,-0.098046 0.321735,-0.057586 1.0365005,-0.5298908 0.022841,-0.015092 -0.010337,-0.05468 -0.023463,-0.078705 -0.00511,-0.00936 -0.01865,-0.010366 -0.028,-0.015502 C 5.9442167,3.9958311 6.00707,4.0309278 5.9178901,3.9806459 5.8579284,3.9456039 5.798739,3.9092168 5.7381348,3.8752983 5.6392796,3.819971 5.5335487,3.7668951 5.4334124,3.7149534 5.1513462,3.5686423 5.2609466,3.6260891 4.9574756,3.4624872 4.862894,3.4105889 4.771114,3.3532209 4.6737306,3.3067929 4.5708977,3.2577664 4.4616541,3.2232748 4.3577494,3.1765631 4.1291814,3.0738082 3.927091,2.9768337 3.7274055,2.8237082 3.6597015,2.7717903 3.6007294,2.7090288 3.5429658,2.6462381 c -0.0283,-0.030763 -0.048514,-0.068084 -0.072771,-0.1021255 0,0 -0.7987591,0.5047843 -0.7987591,0.5047843 z" />
    <path
       style="fill:#000000;stroke-width:0.264583"
       id="path146"
       d="m 0.7877362,1.4722579 c 0.0403803,-0.0038 0.0808389,-0.00685 0.12114096,-0.01141 C 1.0099236,1.4494192 1.110529,1.4340407 1.211752,1.4242992 1.3393449,1.4120198 1.4672971,1.4037587 1.595166,1.3948006 1.7401005,1.3846469 1.8850565,1.3745992 2.0301455,1.3669647 2.3465168,1.3503174 2.5376309,1.3474356 2.8513929,1.339384 3.2469433,1.332424 3.1680337,1.330894 3.544875,1.334924 c 0.1857079,0.00199 0.3555958,0.00483 0.5402617,0.012298 0.110318,0.00446 0.2252073,0.012107 0.3358087,0.019001 0.080745,0.00588 0.1616625,0.00984 0.242321,0.01695 0.023275,0.00205 0.043163,0.00542 0.066346,0.00553 0.018968,8.88e-5 0.037929,-8.335e-4 0.056893,-0.00125 0.041989,-0.00183 0.084003,-0.00316 0.1259673,-0.0055 0.2104776,-0.011746 0.2886038,-0.022199 0.5098561,-0.023077 0.2203627,-8.758e-4 0.4397187,0.016819 0.6589688,0.036188 0.2096728,-0.00729 0.2949453,-0.013796 0.504136,-0.00707 0.1089573,0.0035 0.2337565,-0.00182 0.3343148,0.054895 0.022701,0.012803 0.039739,0.035156 0.052675,0.057782 0.010184,0.01781 0.0097,0.039867 0.014555,0.059801 8.732e-4,0.1004759 -0.041478,0.1925107 -0.073606,0.2855321 -0.023577,0.068267 -0.0239,0.073659 -0.043224,0.1434059 -0.022593,0.077318 -0.032674,0.156966 -0.040682,0.2368259 -0.00284,0.028349 -0.00674,0.056642 -0.00785,0.085112 -0.00127,0.032512 7.673e-4,0.06507 7.673e-4,0.097606 1.43e-5,0.035281 -4.498e-4,0.070561 -6.879e-4,0.1058409 -3.969e-4,0.1120387 -0.00257,0.2240925 -0.00111,0.3361343 5.027e-4,0.0386 9.24e-5,0.077262 0.00266,0.11578 0.0022,0.032749 0.026521,0.2391648 0.029657,0.2662505 0.031345,0.250666 0.037579,0.5038384 0.075362,0.7538008 0.00852,0.056358 0.019783,0.1122675 0.029674,0.1684012 0.010239,0.06096 0.020508,0.1219142 0.03072,0.1828779 0.03074,0.1835023 0.037959,0.2163506 0.061405,0.4022381 0.024445,0.193816 0.042531,0.3884419 0.060185,0.5829615 0.015168,0.2071632 0.021489,0.4153212 0.013676,0.6229839 -0.00276,0.073338 -0.011261,0.1773015 -0.016804,0.2508769 -0.00448,0.039309 -0.00836,0.078691 -0.013444,0.1179266 -0.014333,0.1106771 -0.017894,0.1148829 -0.03419,0.2240939 -0.016129,0.1080836 -0.028155,0.2167419 -0.042821,0.3250287 -0.019378,0.1264034 -0.031904,0.2539373 -0.056033,0.3795969 -0.012086,0.062941 -0.01492,0.070011 -0.030304,0.128252 -0.020807,0.012287 -0.00629,0.059579 -0.028655,0.073288 -0.0089,0.00545 -0.040075,0.00304 -0.031208,-0.00246 0.2601957,-0.1614377 0.530352,-0.3064685 0.7902051,-0.4684575 0.019756,-0.012316 -0.044567,0.013928 -0.067501,0.017931 -0.03481,0.00608 -0.070202,0.00816 -0.1053026,0.012248 -0.044207,0.00257 -0.088404,0.00534 -0.1326218,0.00773 -0.1916639,0.010364 -0.219742,0.012594 -0.4214794,0.014348 -0.2448796,0.00212 -0.4897395,-0.0051 -0.7345646,-0.00904 -0.3520963,-0.00643 -0.7041501,-0.014774 -1.0562399,-0.021788 -0.094543,-0.00188 -0.1890763,-0.00435 -0.2836299,-0.00558 -0.097375,-0.00127 -0.1947632,-0.00127 -0.292145,-0.00193 -0.2115629,-8.996e-4 -0.378243,-0.00235 -0.5901354,-2.91e-4 -0.1018103,9.789e-4 -0.2035968,0.00381 -0.3054064,0.00489 -0.1910736,0.00204 -0.3421139,2.911e-4 -0.531849,0.00333 -0.081651,0.0013 -0.1632744,0.00397 -0.2449115,0.00595 -0.3364612,0.00722 -0.6729918,0.00302 -1.0094847,0.00196 -0.1444994,-0.0032 -0.2890103,-0.00649 -0.4334568,-0.011605 -0.056207,-0.00382 -0.1119248,0.0045 -0.1676037,0.01061 -0.022096,0.00285 -0.044036,0.0054 -0.066288,0.00646 -0.00495,2.352e-4 -0.0099,6.086e-4 -0.014863,7.144e-4 -0.00316,5.66e-5 -0.00718,-0.00243 -0.00948,-2.646e-4 -0.00186,0.00175 0.00126,0.00495 0.00189,0.00742 0.018343,0.00666 0.016293,0.038855 0.033756,0.047127 0.00353,0.00167 0.00473,-0.00648 0.00559,-0.010287 0.00299,-0.013319 0.00286,-0.027208 0.00581,-0.040538 0.00948,-0.042985 0.025516,-0.086613 0.039395,-0.1280694 0.03779,-0.1026229 0.077096,-0.2048372 0.1033717,-0.3112249 0.010725,-0.043424 0.027727,-0.1344752 0.035966,-0.1770491 0.017113,-0.1095404 0.027707,-0.2201738 0.033928,-0.330853 0.00242,-0.042982 0.00813,-0.2198909 0.00989,-0.2599639 0.00203,-0.046095 0.00473,-0.092157 0.0071,-0.1382356 0.00216,-0.046845 0.0047,-0.093675 0.00649,-0.1405355 0.00183,-0.04787 0.00268,-0.095774 0.00436,-0.1436495 0.0048,-0.1372015 0.010927,-0.2742758 0.011612,-0.4115942 2.201e-4,-0.044107 -5.106e-4,-0.088213 -7.646e-4,-0.1323195 -2.05e-4,-0.04495 -2.27e-4,-0.089902 -6.139e-4,-0.1348512 -4.074e-4,-0.04714 -1.914e-4,-0.094298 -0.00177,-0.1414132 -0.0075,-0.2239386 -0.011035,-0.1064467 -0.015222,-0.3461994 -0.00161,-0.092431 0.00142,-0.3235632 0.00233,-0.4125936 -8.069e-4,-0.2431965 0.00611,-0.4863129 0.011959,-0.7294089 0.00203,-0.084504 0.00361,-0.1690206 0.00603,-0.2535145 0.00642,-0.2242147 0.00961,-0.2797616 0.019209,-0.5026685 0.014877,-0.3294392 0.0545,-0.6569113 0.082511,-0.9852937 0.011749,-0.085649 0.0058,-0.1717761 0.00129,-0.2576132 0,0 -0.81805665,0.4194269 -0.81805665,0.4194269 v 0 c -1.4734e-4,0.083411 -0.002434,0.1670617 0.005624,0.2502289 0.015584,0.2327446 0.0338539,0.4650778 0.0378824,0.6984457 0.001286,0.07442 9.3927e-4,0.1488591 0.00141,0.2232885 -0.001659,0.081874 -0.002805,0.1637594 -0.00498,0.2456209 -0.002754,0.1036551 -0.0136676,0.4058285 -0.0172786,0.5092499 -0.008648,0.2476701 -0.0170286,0.4954471 -0.0393438,0.7423775 -0.0333787,0.4946033 0.001138,-0.040962 -0.024253,0.4259328 -0.006644,0.122182 -0.0174567,0.2441268 -0.0231436,0.3663569 -0.002241,0.048158 -0.002946,0.096377 -0.003977,0.1445768 -9.7632e-4,0.045627 -0.001365,0.091264 -0.002045,0.1368968 -3.0163e-4,0.1319643 0.002164,0.264011 4.4979e-4,0.3959645 -0.001614,0.1242481 -0.00395,0.1588553 -0.0108508,0.2838667 -0.002588,0.046864 -0.005486,0.09371 -0.00823,0.1405641 -0.009546,0.135064 -0.0206235,0.2696224 -0.0363351,0.4041318 -0.0129389,0.1107717 -0.028377,0.2213438 -0.0572451,0.3293104 -0.0441588,0.163821 -0.091779,0.3270679 -0.15916719,0.4831292 -0.0175662,0.040125 -0.0437844,0.101545 -0.0637735,0.1416415 -0.005038,0.010107 -0.0379448,0.061819 -0.0373835,0.082396 6.4029e-4,0.023453 0.0251759,0.055651 0.0361341,0.072886 0.005813,0.00432 0.0107728,0.010123 0.0174379,0.012954 0.00497,0.00212 0.0107582,9.525e-4 0.0161459,0.0013 0.0305815,0.00204 0.0613978,7.409e-4 0.0919834,-5.556e-4 0.0610057,-0.00634 0.12122158,-0.017089 0.18154917,-0.028046 0.1635969,-0.019254 0.32857358,-0.023527 0.49283608,-0.034355 0.3669126,-0.018703 0.7330845,-0.049695 1.100094,-0.066982 0.084541,-0.0042 0.1691032,-0.00798 0.2536226,-0.012589 0.2439833,-0.013303 0.312741,-0.021558 0.5616322,-0.027162 0.1765358,-0.00397 0.4172775,-0.00153 0.5942354,-4.762e-4 0.096717,5.821e-4 0.1934345,0.00122 0.2901516,0.00185 0.251029,0.0046 0.3161283,0.00481 0.5656617,0.013258 0.3443528,0.01166 0.6882722,0.034596 1.0328498,0.03968 0.2372534,0.00524 0.4746172,0.00811 0.7114423,0.024683 0.2990141,0.020923 0.095626,0.00987 0.3547105,0.036794 0.037653,0.00391 0.0755,0.00567 0.1132496,0.0085 0.028585,0.00306 0.057199,0.00586 0.085756,0.00917 0.020505,0.00238 0.043079,0.017365 0.061421,0.0079 C 7.3480884,7.326589 7.7311,7.3861509 7.7778678,7.0270198 c 9.26e-4,-0.00719 0.00431,-0.070399 0.0044,-0.072058 0.00835,-0.1636855 0.023053,-0.3268178 0.042119,-0.4896162 0.026053,-0.2220166 0.061775,-0.4431392 0.07501,-0.6664931 0.00138,-0.040978 0.00356,-0.081938 0.00411,-0.1229352 C 7.9045643,5.59688 7.9023418,5.4907887 7.8969231,5.4124739 7.8893058,5.3022204 7.8777117,5.2246041 7.8639113,5.1140091 7.8566908,5.0561529 7.8495656,4.9982851 7.8423901,4.9404231 7.8271607,4.815286 7.8117442,4.6852639 7.7948667,4.5603899 7.7697816,4.3747873 7.7620965,4.346002 7.741029,4.1578488 7.7333826,4.0895506 7.7276781,4.0210484 7.7209154,3.952657 7.714695,3.8897616 7.7083583,3.8268781 7.7020824,3.7639888 7.6656834,3.3219436 7.7092367,3.837676 7.672108,3.43495 7.6674566,3.3844895 7.6640832,3.333917 7.6595032,3.2834501 7.6458719,3.1333345 7.6289296,2.9834121 7.624737,2.8325827 7.616997,2.5912992 7.615067,2.3497109 7.626987,2.1085057 c 0.00257,-0.035645 0.0041,-0.071381 0.00772,-0.1069343 0.00341,-0.033527 0.00906,-0.06679 0.013372,-0.1002141 0.00353,-0.027355 0.00588,-0.054869 0.010128,-0.082121 C 7.670285,1.7418223 7.68963,1.6656924 7.711445,1.5905291 7.733355,1.5195621 7.756793,1.4487578 7.775144,1.3767525 7.788799,1.3231745 7.804581,1.2597283 7.803693,1.2039712 7.8031638,1.1711052 7.795393,1.1387572 7.791239,1.1061502 7.77307,1.0758752 7.762843,1.0390922 7.736732,1.0153252 7.650132,0.9364983 7.5533684,0.9392676 7.4419754,0.9343904 7.3652754,0.9310324 7.2884205,0.9359354 7.2116553,0.93480844 6.9857309,0.93149104 6.9677152,0.92737412 6.7491876,0.91220106 6.5854518,0.917475 6.466656,0.92289605 6.3002691,0.92102994 6.2134738,0.92005628 6.126586,0.91908261 6.039985,0.91319934 5.8675338,0.90148385 5.8034112,0.88884232 5.6466273,0.85602904 c -0.028158,-0.005893 -0.056043,-0.0130268 -0.084064,-0.01954 -0.015756,-0.004227 -0.031172,-0.0100296 -0.047268,-0.0126801 -0.032172,-0.005298 -0.061843,1.9389e-4 -0.093917,0.004038 -0.1044972,0.0125241 -0.2088206,0.0266019 -0.313618,0.036558 -0.1739522,0.0171379 -0.2250858,0.0233214 -0.4098097,0.0359934 -0.316783,0.0217313 -0.264092,0.0143261 -0.5982221,0.0294563 -0.1782342,0.008071 -0.5692103,0.0289933 -0.741003,0.0380331 C 2.9547259,0.98758604 2.5510042,1.0111092 2.1463546,0.99361685 2.0434512,0.98916851 1.9403883,0.98338472 1.8382567,0.97004155 1.727541,0.95557685 1.6728817,0.93603208 1.5804318,0.90684349 c 0,0 -0.7926956,0.56541441 -0.7926956,0.56541441 z" />
  </g>
</svg>
